<?xml version="1.0" standalone="no"?>
<!DOCTYPE svg PUBLIC "-//W3C//DTD SVG 1.1//EN" "http://www.w3.org/Graphics/SVG/1.1/DTD/svg11.dtd" >
<svg xmlns="http://www.w3.org/2000/svg">
<metadata></metadata>
<defs>
<font id="leckerlioneregular" horiz-adv-x="1191" >
<font-face units-per-em="2048" ascent="1556" descent="-492" />
<missing-glyph horiz-adv-x="819" />
<glyph horiz-adv-x="2048" />
<glyph horiz-adv-x="2048" />
<glyph unicode="&#xd;" horiz-adv-x="2048" />
<glyph unicode=" "  horiz-adv-x="819" />
<glyph unicode="&#x09;" horiz-adv-x="819" />
<glyph unicode="&#xa0;" horiz-adv-x="819" />
<glyph unicode="!" horiz-adv-x="1017" d="M328 39q0 110 67 195t152 85q56 0 103 -39t75 -98q-40 -105 -123 -173t-176 -68q-98 0 -98 98zM430 580q0 115 34 267t107.5 313t167.5 253q35 35 82 35q56 0 106 -49.5t50 -77.5q-2 -41 -27.5 -93t-60.5 -104t-70 -107.5t-59.5 -119.5t-24.5 -123q0 -27 10.5 -95 t10.5 -97q0 -54 -73 -91.5t-163 -37.5q-49 0 -69.5 32t-20.5 95z" />
<glyph unicode="&#x22;" horiz-adv-x="577" d="M102 1260h127v-394h-106zM328 866v394h127v-394h-127z" />
<glyph unicode="#" horiz-adv-x="950" d="M82 373v119h156l41 208h-148v119h172l72 363h127l-72 -363h180l72 363h127l-72 -363h131v-119h-155l-41 -208h147v-119h-170l-74 -373h-126l73 373h-180l-74 -373h-127l74 373h-133zM365 492h180l41 208h-180z" />
<glyph unicode="$" horiz-adv-x="1167" d="M61 440q0 84 34.5 170t94 143.5t123.5 57.5q74 0 74 -45q0 -42 -29.5 -130t-29.5 -142q0 -58 24.5 -112.5t69.5 -82.5q19 58 71 198.5t78 219.5l19 55q-120 61 -164 94q-119 91 -119 236q0 74 24 137.5t65.5 108t96 76.5t116 47.5t126.5 15.5q5 0 16.5 -1t16.5 -1 q30 121 63 231q3 14 23 17q47 0 82 -54.5t35 -105.5q0 -17 -37 -143q119 -81 119 -254q0 -59 -13 -90t-49 -31q-24 0 -43 26t-42 73.5t-44 74.5l-94 -287q10 -4 29 -13q43 -19 65 -29.5t60 -32t59.5 -39.5t48.5 -48t41 -61t24.5 -74.5t10.5 -93.5q0 -86 -34 -164t-92 -136.5 t-133 -103.5t-157.5 -70t-165.5 -30q-1 -4 -19.5 -92t-34.5 -138t-32 -50q-48 0 -83.5 49.5t-35.5 111.5q0 44 25 133q-129 33 -206 128t-77 251zM565 1169q0 -101 86 -163q13 50 36.5 151t33.5 143q-70 0 -113 -35.5t-43 -95.5zM582 289q99 19 162 83t63 156 q0 107 -111 183q-51 -173 -114 -422z" />
<glyph unicode="%" horiz-adv-x="1394" d="M164 1192q0 87 35 169.5t106 140t160 57.5q76 0 118 -29t42 -70q0 -26 -41 -26q-14 0 -53 5t-72 5q-61 0 -97 -69t-36 -154q0 -70 28 -106t72 -36q60 0 109 57t49 148q0 17 -8.5 51t-8.5 54q0 12 11 20t26 8q39 0 62.5 -40t23.5 -105q0 -156 -85 -245t-210 -89 q-98 0 -164.5 65t-66.5 189zM242 41q0 17 6 35l809 1446q6 16 20 16q30 0 69.5 -58.5t39.5 -109.5q0 -35 -22.5 -85t-47.5 -90t-82 -125t-90 -136q-198 -312 -362.5 -602t-212.5 -436q-3 -7 -13 -7q-41 0 -77.5 54t-36.5 98zM766 229q0 87 35 169.5t106 140t160 57.5 q76 0 118 -28.5t42 -69.5q0 -27 -41 -27q-14 0 -53 5t-72 5q-61 0 -97 -69t-36 -154q0 -70 28 -105.5t72 -35.5q60 0 109 57t49 148q0 17 -8.5 50.5t-8.5 53.5q0 12 11 20.5t26 8.5q39 0 62.5 -40.5t23.5 -105.5q0 -156 -85 -245t-210 -89q-98 0 -164.5 65t-66.5 189z" />
<glyph unicode="&#x26;" horiz-adv-x="1187" d="M0 393q0 130 81 229.5t212 151.5q-150 105 -150 324q0 84 34 151.5t91 108.5t127 62.5t146 21.5q105 0 195.5 -36t150 -111.5t59.5 -176.5q0 -34 -11 -56t-26 -22q-29 0 -73 52q-49 61 -112 96t-122 35q-70 0 -115 -50.5t-45 -148.5q0 -90 80 -162q20 2 68 2 q74 0 126 -27.5t52 -76.5q0 -26 -19.5 -46t-52 -30t-66 -15t-67.5 -5q-40 0 -98 14q-61 -37 -92 -93t-31 -145q0 -106 86 -172.5t199 -66.5q57 0 108.5 19.5t94.5 59t68.5 106t25.5 153.5q0 47 -17.5 117t-17.5 106t31.5 49.5t93.5 13.5q118 0 198.5 8.5t108 19.5t47.5 19.5 t31 8.5q45 0 45 -47q0 -67 -57.5 -127t-129.5 -60q-49 0 -149 17q12 -70 12 -138q0 -141 -47 -250t-126.5 -173t-176.5 -96t-205 -32q-88 0 -167.5 13t-153.5 44t-127 78t-85 119.5t-32 163.5z" />
<glyph unicode="'" horiz-adv-x="352" d="M102 866v394h127v-394h-127z" />
<glyph unicode="(" horiz-adv-x="1230" d="M143 627q0 166 50 313t131.5 256.5t198 204t237.5 159t262 117.5q15 6 35 6q32 0 62 -18t30 -51q0 -53 -88 -86q-73 -28 -153 -77.5t-165 -128t-152 -170t-110 -212.5t-43 -248q0 -320 149.5 -587t393.5 -435q25 -17 25 -47q0 -43 -39.5 -68.5t-85.5 -25.5q-35 0 -62 18 q-138 96 -254.5 209t-213.5 249t-152.5 296.5t-55.5 325.5z" />
<glyph unicode=")" horiz-adv-x="1230" d="M143 -401q0 53 88 86q73 28 153 77.5t165 127.5t152 169.5t110 212.5t43 248q0 320 -149.5 587t-393.5 435q-24 16 -24 47q0 43 39.5 68.5t85.5 25.5q34 0 61 -18q109 -76 205 -162t184 -192.5t150.5 -218.5t99.5 -243t37 -263q0 -166 -50 -313t-131.5 -257.5 t-198 -204.5t-237.5 -159t-262 -117q-15 -6 -34 -6q-32 0 -62.5 18.5t-30.5 51.5z" />
<glyph unicode="*" horiz-adv-x="1093" d="M266 1030q0 34 42 75.5t123.5 98.5t92.5 66q-32 24 -82 40t-77 31t-27 45q0 40 43.5 69.5t87.5 29.5q57 0 164 -49q10 24 57 116q19 34 71 50t101 16q53 0 53 -19q0 -13 -23.5 -51t-47 -88t-23.5 -92q105 23 156 23q76 0 76 -35q0 -25 -18.5 -44t-49 -28.5t-57.5 -14.5 t-55.5 -8t-32.5 -4q7 -16 24.5 -52t26.5 -57t22.5 -53t22.5 -61q0 -27 -57.5 -53.5t-110.5 -26.5q-48 0 -57 27q-19 56 -68 156q-12 -9 -53 -38.5t-67 -50.5t-48 -44q-52 -52 -113 -52q-42 0 -69 22t-27 56z" />
<glyph unicode="+" horiz-adv-x="966" d="M102 479v119h318v322h127v-322h317v-119h-317v-321h-127v321h-318z" />
<glyph unicode="," horiz-adv-x="708" d="M123 -193q0 26 21.5 45.5t49 31t57.5 36.5t42 60q-70 46 -70 143q0 94 72.5 154.5t171.5 60.5q61 0 100 -33.5t39 -105.5q0 -95 -53.5 -199t-145.5 -176t-190 -72q-35 0 -64.5 13t-29.5 42z" />
<glyph unicode="-" horiz-adv-x="802" d="M94 573q0 166 281 166q67 0 187.5 -3t135.5 -3q25 0 25 -35t-52 -94t-85 -59q-13 0 -87 7t-96 7q-79 0 -177.5 -2t-119.5 -2q-12 0 -12 18z" />
<glyph unicode="." horiz-adv-x="847" d="M225 78q40 105 123 173t176 68q99 0 99 -98q0 -110 -67.5 -195t-152.5 -85q-56 0 -103 39t-75 98z" />
<glyph unicode="/" horiz-adv-x="944" d="M246 41q0 17 6 35l522 1446q6 16 21 16q30 0 69 -58.5t39 -109.5q0 -23 -51.5 -172.5t-101.5 -277.5q-65 -164 -104 -263.5t-75 -194.5t-51 -132.5t-39 -108t-30.5 -89t-35 -105.5t-42.5 -131q-3 -7 -13 -7q-41 0 -77.5 54t-36.5 98z" />
<glyph unicode="0" horiz-adv-x="1499" d="M102 612q0 128 32 259t96.5 251.5t152.5 214t210 149.5t259 56q171 0 271 -66.5t100 -144.5q0 -22 -62 -22q-46 0 -141.5 18.5t-183.5 18.5q-96 0 -176 -60t-130.5 -155.5t-78 -210.5t-27.5 -230q0 -109 25.5 -193.5t70.5 -135.5t101.5 -77t121.5 -26q67 0 134.5 26 t128.5 78t109 123t76 168t28 205q0 78 -21 137t-50.5 91.5t-59.5 57t-51 48.5t-21 51q0 23 51 23q29 0 61 -8t70.5 -26t72.5 -51.5t63 -79.5t46 -116.5t17 -155.5q0 -161 -38.5 -298.5t-106.5 -236.5t-161 -169t-202.5 -104.5t-229.5 -34.5q-89 0 -170 24t-152 74.5 t-123 123t-82 176.5t-30 228z" />
<glyph unicode="1" horiz-adv-x="1081" d="M-61 -18q0 77 118.5 152.5t292.5 82.5v33q0 156 76.5 469t163.5 549l-74 -19q-67 -19 -135.5 -56t-114.5 -63t-71 -26q-19 0 -19 49q0 97 73 175.5t177 109.5q5 2 84 26.5t115 34.5t94 22.5t92 12.5q16 0 42 -36.5t26 -74.5q0 -71 -47.5 -276t-103 -470.5t-69.5 -459.5 q44 -1 82.5 -0.5t71.5 0.5h59t46 -2.5t33.5 -7t20.5 -13t7 -20.5q0 -7 -6 -23.5t-14.5 -39t-12.5 -35.5q-12 -41 -32 -58.5t-56 -17.5q-20 0 -206 7t-222 7q-127 0 -283 -26.5t-188 -26.5q-20 0 -20 21z" />
<glyph unicode="2" horiz-adv-x="1400" d="M0 195q0 103 74.5 157t197.5 54q139 0 248 -33l41 51q289 439 289 725q0 93 -53 145t-142 52q-78 0 -135.5 -20t-89 -49t-55 -57.5t-48.5 -48.5t-55 -20q-11 0 -18.5 10.5t-7.5 22.5q0 55 31 116t87 115.5t146.5 90.5t196.5 36q221 0 342.5 -95.5t121.5 -272.5 q0 -114 -37.5 -241.5t-100.5 -245t-137.5 -221t-156.5 -190.5q67 -33 122 -50t126 -17q73 0 140 34.5t118 98.5q45 59 74 59q31 0 31 -77q0 -61 -34.5 -120.5t-94 -106t-148 -75t-188.5 -28.5q-133 0 -314 106q-125 -135 -325 -135q-122 0 -184 62.5t-62 167.5zM199 182 q0 -28 20.5 -42.5t48.5 -14.5q46 0 123 84q-75 35 -119 35q-31 0 -52 -16.5t-21 -45.5z" />
<glyph unicode="3" horiz-adv-x="1222" d="M10 281q0 36 43 36q35 0 79.5 -26t83.5 -56.5t99 -56.5t121 -26q65 0 119.5 18.5t89.5 48t59.5 66.5t35 73.5t10.5 69.5q0 173 -86 299q-39 -8 -89 -8t-89.5 7t-71 31t-31.5 62q0 94 190 94q27 0 74 -12q86 110 86 248q0 93 -51.5 145t-142.5 52q-78 0 -135.5 -20 t-89 -49t-55 -57.5t-48.5 -48.5t-55 -20q-11 0 -19 11t-8 22q0 55 31 116t87 115.5t146.5 90.5t196.5 36q222 0 343.5 -94.5t121.5 -273.5q0 -99 -54 -197t-145 -166q234 -151 234 -405q0 -109 -55.5 -197.5t-145 -142.5t-195 -82.5t-213.5 -28.5q-98 0 -188 31.5t-150.5 80 t-96.5 105.5t-36 109z" />
<glyph unicode="4" horiz-adv-x="1404" d="M72 680q0 78 60.5 199.5t168 286.5t121.5 190q16 28 28.5 45.5t34 34t43.5 16.5q17 0 29 -23t12 -53q0 -45 -38.5 -152t-90 -254.5t-73.5 -262.5q44 17 114.5 26t128 10.5t160.5 1.5q112 430 209 646q27 59 68.5 101t89.5 42q26 0 26 -51t-14.5 -151.5t-47.5 -295 t-48 -293.5q59 -1 109.5 -0.5t91.5 0t70 -4t44.5 -12.5t15.5 -26q0 -7 -7.5 -24t-18 -39t-15.5 -35q-18 -41 -42.5 -58.5t-69.5 -17.5q-15 0 -209 9q-41 -289 -41 -494q0 -31 -24.5 -44t-57.5 -13q-127 0 -175 49t-48 170q0 115 47 334q-107 -7 -249.5 -27.5t-184.5 -22.5 h-25q-76 37 -121 82t-71 111z" />
<glyph unicode="5" horiz-adv-x="1282" d="M41 281q0 36 43 36q35 0 79.5 -26t83.5 -56.5t99 -56.5t121 -26q154 0 233.5 75.5t79.5 200.5q0 311 -270 311q-11 0 -36.5 -1t-39.5 -1q-21 -30 -76 -30q-37 12 -68.5 35.5t-39.5 54.5q15 121 50.5 266t84.5 256q-64 -6 -109 -6q-26 0 -26 20q0 38 42 79.5t113.5 77 t180.5 58.5t229 23q88 0 242 -3t172 -3q33 0 33 -39q0 -7 -5 -24t-12 -39.5t-10 -35.5q-11 -40 -27 -57.5t-45 -17.5q-15 0 -148.5 7t-162.5 7q-78 0 -254 -20q-13 -56 -53 -195t-62 -225q62 8 101 8q112 0 205 -26t169 -81.5t119 -152.5t43 -228q0 -98 -30 -179t-84 -138.5 t-130 -96.5t-167.5 -58t-196.5 -19q-97 0 -187.5 32t-151 80.5t-96.5 105.5t-36 108z" />
<glyph unicode="6" horiz-adv-x="1462" d="M82 524q0 21 30.5 48.5t80.5 52.5q1 106 24.5 214.5t67 210.5t109 191.5t146 156.5t184.5 105.5t218 38.5q171 0 271 -66.5t100 -144.5q0 -23 -7.5 -32t-25.5 -9q-17 0 -67 14t-127 28t-160 14q-81 0 -151.5 -42.5t-121 -114.5t-85 -161.5t-50.5 -187.5q184 82 373 82 q115 0 208 -36.5t151 -98t89 -139t31 -161.5q0 -153 -84 -269t-228 -176t-325 -60q-99 0 -186.5 30t-162 91t-124 164.5t-63.5 240.5q-54 -21 -88 -21q-13 0 -20 11t-7 26zM506 655q7 -200 93 -308.5t214 -108.5q125 0 204 74t79 180t-71 173.5t-200 67.5q-159 0 -319 -78z " />
<glyph unicode="7" horiz-adv-x="1226" d="M61 1333q0 38 42 79.5t114 77t181 58.5t229 23q88 0 241.5 -3t171.5 -3q50 0 50 -66q0 -39 -17.5 -82.5t-38.5 -56.5l-137 -447q47 -1 85.5 0t69 0.5t51 -4t31.5 -13t11 -26.5q0 -7 -5 -24t-12 -39t-10 -35q-11 -41 -26.5 -58.5t-44.5 -17.5q-10 0 -43.5 2t-84 4.5 t-83.5 4.5q-138 -468 -138 -660q0 -31 -24.5 -44t-57.5 -13q-127 0 -175 49t-48 170q0 141 127 485q-50 -5 -131.5 -15t-137.5 -16t-91 -6q-12 0 -19.5 6t-7.5 15q0 51 65.5 98.5t171 80.5t232.5 50q26 65 191 453q-82 6 -129 6q-97 0 -310 -26.5t-266 -26.5q-27 0 -27 20z " />
<glyph unicode="8" horiz-adv-x="1234" d="M102 324q0 84 22.5 153t56 116t88 88.5t102.5 66t116 53.5q-50 30 -80.5 50t-70 54t-61 67t-37 81t-15.5 104q0 185 119 285t320 100q137 0 248.5 -84.5t111.5 -177.5q0 -18 -16 -18q-34 0 -74 13t-74.5 29t-91.5 29t-121 13q-80 0 -131 -44t-51 -114q0 -39 15.5 -73.5 t36.5 -60t60.5 -54.5t70.5 -47t83 -46q77 42 118.5 95t41.5 131q0 18 -13.5 47t-13.5 39q0 24 15 24q51 0 97 -54t46 -136q0 -163 -115 -246q107 -70 167.5 -157t60.5 -210q0 -95 -37.5 -182.5t-105.5 -156.5t-175 -110.5t-235 -41.5q-210 0 -344 108.5t-134 266.5zM422 358 q0 -64 47 -105.5t121 -41.5q99 0 157 54.5t58 148.5q0 168 -141 276q-44 -19 -75.5 -37t-65 -46.5t-54 -61.5t-34 -81t-13.5 -106z" />
<glyph unicode="9" horiz-adv-x="1417" d="M92 281q0 36 43 36q35 0 79.5 -26t83.5 -56.5t99 -56.5t121 -26q408 0 408 575v12q-153 -75 -344 -75q-190 0 -314.5 110.5t-124.5 302.5q0 98 45 185t120.5 148t177 96.5t212.5 35.5q110 0 199 -36.5t149 -103t99 -146.5t61 -179q68 45 101 45q12 0 20 -11t8 -26 q0 -23 -29 -62t-75 -77q8 -71 8 -160q0 -98 -6.5 -180t-25.5 -169.5t-50.5 -156t-83.5 -131.5t-121.5 -104t-168 -65.5t-220.5 -24.5q-98 0 -188 31.5t-150.5 80t-96.5 105.5t-36 109zM418 1073q0 -94 62.5 -157.5t166.5 -63.5q82 0 145 16.5t132 53.5q-3 67 -11.5 121 t-28.5 110t-49.5 93.5t-78.5 61t-113 23.5q-86 0 -155.5 -78t-69.5 -180z" />
<glyph unicode=":" horiz-adv-x="960" d="M307 78q40 105 123 173t176 68q99 0 99 -98q0 -110 -67.5 -195t-152.5 -85q-56 0 -103 39t-75 98zM338 909q0 99 98 99q93 0 176 -68t123 -174q-28 -59 -75 -98t-103 -39q-85 0 -152 85t-67 195z" />
<glyph unicode=";" horiz-adv-x="899" d="M184 -193q0 26 21.5 45.5t49 31t57.5 36.5t42 60q-69 46 -69 143q0 94 72 154.5t171 60.5q61 0 100.5 -33.5t39.5 -105.5q0 -95 -53.5 -199t-145.5 -176t-190 -72q-35 0 -65 13t-30 42zM276 766q40 106 123 174t176 68q99 0 99 -99q0 -110 -67 -195t-152 -85 q-56 0 -103.5 39t-75.5 98z" />
<glyph unicode="&#x3c;" horiz-adv-x="800" d="M61 543l545 379l68 -99l-400 -276l404 -281l-72 -102z" />
<glyph unicode="=" horiz-adv-x="966" d="M123 362v119h721v-119h-721zM123 690v119h721v-119h-721z" />
<glyph unicode="&#x3e;" horiz-adv-x="800" d="M123 819l72 103l544 -379l-544 -379l-68 98l397 277z" />
<glyph unicode="?" horiz-adv-x="1171" d="M246 1087q0 55 31 116t87 116t146.5 91t196.5 36q221 0 342.5 -95.5t121.5 -273.5q0 -98 -18 -175t-48.5 -127t-70 -88t-83.5 -62t-88 -44t-83.5 -40t-70 -44t-48.5 -61.5t-18 -87.5q0 -12 -22 -12q-38 0 -81.5 27.5t-43.5 68.5q0 88 19.5 150t50.5 96.5t69 59.5t76 48 t69 53t50.5 83.5t19.5 130.5q0 92 -53 144t-142 52q-78 0 -135.5 -20t-89 -48.5t-55 -57t-48.5 -48.5t-55 -20q-11 0 -18.5 10t-7.5 22zM338 98q0 43 21.5 74.5t57.5 47.5t74 23t80 7q41 0 60.5 -22t19.5 -58q0 -90 -54.5 -159.5t-123.5 -69.5q-48 0 -91.5 49t-43.5 108z " />
<glyph unicode="@" horiz-adv-x="1906" d="M246 440q0 130 47.5 243.5t131 197t193.5 144t237 90.5t261 30q77 0 153.5 -18.5t146.5 -56.5t123.5 -92t85.5 -130.5t32 -165.5q0 -122 -57.5 -235t-153 -182.5t-199.5 -69.5q-81 0 -114 110q-80 -137 -246 -137q-94 0 -153.5 58.5t-59.5 154.5q0 61 16 123.5t48 119 t75.5 101t104.5 70.5t129 26q77 0 114 -18q33 61 86 61q40 0 74.5 -37.5t34.5 -85.5q0 -11 -8.5 -27t-21.5 -34t-17 -25q0 -247 41 -247q44 0 80 63.5t36 128.5q0 84 -29.5 160.5t-83 136.5t-136.5 95.5t-183 35.5q-132 0 -254 -64.5t-203 -187.5t-81 -274 q0 -111 48.5 -210.5t129 -169t187.5 -110.5t222 -41q97 0 186.5 36.5t152 88.5t114 103.5t92 88t66.5 36.5q16 0 25.5 -15.5t11.5 -29t2 -25.5q0 -101 -61 -184.5t-161.5 -136.5t-225.5 -82t-257 -29q-172 0 -319.5 50t-248 134.5t-157.5 197t-57 236.5zM874 418 q0 -105 76 -105q47 0 91 34.5t69 103.5q-4 45 -4 137q0 72 18 137q-103 -26 -176.5 -106t-73.5 -201z" />
<glyph unicode="A" horiz-adv-x="1423" d="M-41 616q0 62 104 127.5t273 94.5q44 113 95.5 212.5t118.5 193t139.5 160t160.5 106.5t180 40q103 0 178.5 -30.5t118.5 -85.5t63.5 -123.5t20.5 -151.5q0 -108 -34 -239.5t-75.5 -230.5t-75.5 -199.5t-34 -153.5q0 -56 9 -81.5t38 -25.5q28 0 78.5 39.5t95 87.5 t85 87.5t52.5 39.5q15 0 26 -21.5t11 -55.5q0 -87 -72 -184t-183.5 -162.5t-215.5 -65.5q-114 0 -163.5 56.5t-49.5 160.5q0 141 92 426q-375 12 -411 12h-29q-37 -220 -37 -477q0 -111 -84 -152q-3 -2 -18.5 -9.5t-19.5 -9.5t-17.5 -8t-19.5 -8l-18 -6t-20 -5.5t-18 -3 t-20 -1.5q-50 0 -76.5 52t-26.5 147q0 175 84 459q-39 -5 -104 -14t-104.5 -13t-69.5 -4q-27 0 -27 20zM600 854l465 -6q51 169 51 239q0 86 -32.5 135.5t-92.5 49.5q-269 0 -391 -418z" />
<glyph unicode="B" horiz-adv-x="1449" d="M31 262q0 33 47 33q29 0 135 -27v2q0 118 30 282t78 318.5t119 262.5t144 108q26 0 26 -111q0 -85 -27 -225.5t-54 -259t-27 -151.5l-21 -310q124 -32 187 -32q78 0 140 19t98.5 47.5t60.5 67t32.5 73t8.5 69.5q0 110 -21 180t-74 121q-48 -10 -79 -10q-35 0 -66 4.5 t-61.5 14.5t-48 31t-17.5 50q0 31 17 51t48.5 28.5t59.5 11.5t65 3q45 0 87 -10q67 64 67 205q0 238 -317 238q-100 0 -185 -22.5t-131.5 -49.5t-97.5 -49.5t-92 -22.5q-27 0 -27 23t25.5 60.5t77.5 82t119.5 83.5t163.5 65t198 26q130 0 232 -22.5t168 -60t109 -90.5 t61 -111t18 -125q0 -209 -205 -320q135 -79 190.5 -170t55.5 -237q0 -110 -51 -197.5t-139 -142t-200 -83t-239 -28.5q-83 0 -198.5 24t-225.5 63t-187 98.5t-77 121.5z" />
<glyph unicode="C" horiz-adv-x="1124" d="M123 510q0 197 67.5 395t190.5 350q-45 55 -73.5 116t-28.5 102q0 19 12 32t28 13q22 0 51 -25t65.5 -62t64.5 -55q203 172 452 172q314 0 314 -252q0 -110 -97 -183t-258 -73q-154 0 -321 66q-69 -114 -107.5 -254.5t-38.5 -263.5q0 -182 74.5 -278.5t224.5 -96.5 q118 0 240.5 55.5t200.5 155.5q45 59 73 59q31 0 31 -77q0 -96 -50 -177.5t-132 -134t-185 -81.5t-212 -29q-276 0 -431 139.5t-155 386.5zM688 1233q106 -35 240 -35q110 0 110 68q0 80 -100 80q-137 0 -250 -113z" />
<glyph unicode="D" horiz-adv-x="1576" d="M31 354q0 10 9 17.5t23 7.5q37 0 203 -45q20 169 81.5 365t137.5 364q65 143 152 143q17 0 32 -34.5t15 -75.5q0 -67 -29 -195t-66.5 -304.5t-53.5 -330.5q140 -30 235 -30q103 0 192 53t148 140.5t92 199t33 229.5q0 111 -20 196t-53.5 139t-82.5 87.5t-102 47 t-117 13.5q-92 0 -212.5 -35.5t-221 -70.5t-143.5 -35q-58 0 -58 29q0 38 58.5 92t147 103t206 83.5t223.5 34.5t201.5 -22t185.5 -74t155 -131t104.5 -202t39.5 -277q0 -129 -30.5 -250.5t-96 -231.5t-159.5 -192t-230 -130t-299 -48q-94 0 -213 36q-13 -38 -78 -38 q-103 0 -140 34.5t-42 118.5q-101 57 -164 116.5t-63 102.5z" />
<glyph unicode="E" horiz-adv-x="1083" d="M82 414q0 293 293 409q-150 105 -150 316q0 100 56 186q-51 57 -83 121t-32 108q0 19 12.5 32t28.5 13q22 0 53.5 -28.5t71.5 -69.5t69 -59q176 106 416 106q53 0 99.5 -7t91 -25t76 -46t50.5 -72.5t19 -101.5q0 -110 -96.5 -183t-257.5 -73q-78 0 -142.5 25t-132.5 74 q-2 -10 -2 -33q0 -124 82 -200q30 6 68 7q52 0 88 -6.5t63 -27t27 -56.5q0 -31 -19.5 -52.5t-52 -32t-65 -15t-68.5 -4.5q-45 0 -98 16q-61 -42 -92 -105t-31 -163q0 -123 87.5 -180.5t244.5 -57.5q73 0 142.5 26t119 63.5t89 75t66.5 63.5t37 26q15 0 26 -21.5t11 -55.5 q0 -109 -83 -204t-225 -151.5t-306 -56.5q-122 0 -220.5 24t-173.5 73.5t-116 131.5t-41 191zM584 1266q110 -68 231 -68q111 0 111 68q0 39 -34.5 59.5t-88.5 20.5q-139 0 -219 -80z" />
<glyph unicode="F" horiz-adv-x="1167" d="M31 1182q0 104 98.5 185t265 124t369.5 43q142 0 364 -5t250 -5q56 0 56 -43q0 -7 -7.5 -25t-19 -43t-16.5 -39q-17 -43 -43.5 -61.5t-73.5 -18.5q-12 0 -94.5 0.5t-197 1t-204.5 0.5q-15 -106 -98 -381q58 -1 144 -2.5t146.5 -2.5t84.5 -1q32 0 32 -39q0 -7 -4.5 -23.5 t-11.5 -39.5t-10 -35q-11 -41 -27 -58.5t-45 -17.5q-15 0 -148.5 7.5t-162.5 7.5q-37 0 -55 -2q-107 -392 -107 -619q0 -121 -235 -121q-17 0 -29 5.5t-19.5 19t-12 27.5t-6.5 40.5t-2.5 47.5t-0.5 59q0 166 88 506q-136 -17 -197 -17q-26 0 -26 21q0 51 68.5 102.5 t205.5 87.5q72 248 150 428q-56 -3 -105.5 -14.5t-81.5 -23t-69.5 -37t-52.5 -37.5t-50 -44.5t-43 -39.5q-8 -8 -20 -8q-19 0 -33 25.5t-14 64.5z" />
<glyph unicode="G" horiz-adv-x="1376" d="M123 489q0 155 42.5 315t121.5 300q-49 57 -80 119.5t-31 105.5q0 19 12.5 32t28.5 13q21 0 46.5 -20t60.5 -56t57 -53q111 142 256 222.5t315 80.5q359 0 359 -280q0 -162 -123 -266.5t-338 -104.5q-152 0 -324 68q-82 -206 -82 -398q0 -313 299 -313q95 0 166 68l6 45 t7 51t7.5 52t10.5 53t13.5 48.5t17 44t21.5 33t27.5 23.5t33.5 8q55 0 106 -78.5t51 -124.5q0 -108 -73 -352q77 56 148 124.5t109.5 115.5t70 79.5t46.5 32.5q29 0 29 -71q0 -128 -133 -277t-346 -235q-24 -61 -47 -140q-47 -142 -171.5 -228.5t-316.5 -86.5 q-68 0 -133 17.5t-119.5 50.5t-88 88.5t-33.5 123.5q0 36 20 65.5t60.5 52t86.5 40t114.5 34t126 28.5t141 29t139.5 30q14 42 24 88q-81 -61 -202 -61q-90 0 -167 14t-146.5 48t-118.5 86t-78 132.5t-29 183.5zM360 -326q0 -21 16 -37t41.5 -24t52.5 -12t54 -4 q73 0 135 56.5t109 151.5q-76 -20 -156.5 -38t-119 -26.5t-73.5 -19t-47 -21t-12 -26.5zM594 1104q111 -49 272 -49q96 0 156.5 52.5t60.5 129.5q0 50 -39.5 79.5t-105.5 29.5q-198 0 -344 -242z" />
<glyph unicode="H" horiz-adv-x="1466" d="M31 1182q0 63 47.5 114.5t122 83t172.5 53.5t191.5 30.5t185.5 9.5h4q20 0 42.5 -19t22.5 -55q0 -35 -14 -80.5t-35 -67.5q-3 -25 -9.5 -56t-12.5 -55.5t-18 -68.5t-18 -65.5t-22 -76.5t-22 -75q155 0 401 -4q93 389 188 541q29 44 81.5 93.5t91.5 49.5q26 0 26 -111 q0 -63 -28.5 -233t-62.5 -352t-62.5 -407t-28.5 -384q0 -31 -24.5 -44t-57.5 -13q-127 0 -175 49t-48 170q0 151 53 430q-303 10 -322 10q-61 0 -92 -2q-92 -349 -92 -557q0 -121 -235 -121q-17 0 -29 5.5t-19.5 19t-12 27.5t-6.5 40.5t-2.5 47.5t-0.5 59q0 136 74 446 q-133 -18 -183 -18q-26 0 -26 20q0 48 70.5 105t191.5 90q78 265 151 430q-84 -2 -145 -12.5t-106.5 -32.5t-72 -41t-67.5 -55q-8 -8 -20 -8q-19 0 -33 25.5t-14 64.5z" />
<glyph unicode="I" horiz-adv-x="671" d="M133 209q0 186 101.5 594.5t187.5 597.5q65 143 172 143q27 0 47.5 -34t20.5 -76q0 -63 -35 -235t-77 -355.5t-77 -410.5t-35 -386q0 -31 -24.5 -44t-57.5 -13q-127 0 -175 49t-48 170z" />
<glyph unicode="J" horiz-adv-x="962" d="M-287 -260q0 102 223 210q115 55 416 163q6 38 19 123t20 118q27 189 98 449t142 440q-80 51 -176 51q-79 0 -177.5 -20t-175.5 -40t-104 -20q-30 0 -45.5 12.5t-15.5 33.5q0 28 44.5 67.5t117 76.5t179.5 63t216 26q33 0 66.5 -2t85 -7t94 -17t82 -30t62.5 -48t23 -68 q0 -79 -31 -271.5t-63 -357.5t-88 -440q235 94 299 166q24 29 47.5 44t36.5 15q29 0 29 -78q0 -48 -35.5 -96t-101.5 -93.5t-142 -84.5t-174 -80q-19 -93 -61 -182q-24 -66 -51 -120t-71 -113t-95 -99t-125 -66t-160 -26q-81 0 -152.5 17.5t-129.5 52.5t-92 94.5t-34 136.5z M-78 -285q0 -50 61 -84t136 -34q122 0 194 309q-40 -14 -88 -30.5t-77 -26t-63 -21.5t-53 -20t-40.5 -17.5t-32 -17t-20.5 -17.5t-13.5 -19.5t-3.5 -21.5z" />
<glyph unicode="K" horiz-adv-x="1390" d="M20 1182q0 19 7 47q16 66 93 116t187 76.5t220 39t214 12.5h4q20 0 43 -19t23 -55q0 -35 -14 -80.5t-35 -67.5q-11 -81 -54 -234t-86.5 -294t-78.5 -318.5t-35 -314.5q0 -121 -236 -121q-17 0 -29 5.5t-19.5 19.5t-11.5 27t-6 40.5t-2.5 47.5t-0.5 59q0 165 90 508 t188 565q-85 -2 -146 -12t-106.5 -31.5t-73.5 -41.5t-67 -56q-8 -8 -20 -8q-19 0 -33.5 25.5t-14.5 64.5zM666 764q0 39 40 60.5t99 21.5q50 0 92 -25q48 51 89 110.5t79.5 136.5t62 131t65.5 156.5t62 149.5q10 23 39.5 29t89.5 6q57 0 81 -34.5t24 -108.5 q0 -117 -72 -260.5t-182.5 -264t-224.5 -184.5q27 -57 52 -146.5t40 -153t42 -111.5t62 -48q28 0 78.5 39.5t95 87.5t85.5 87.5t53 39.5q15 0 25.5 -21t10.5 -56q0 -87 -72 -184t-183.5 -162.5t-215.5 -65.5q-68 0 -114 29.5t-68 76t-36 115.5t-19 134.5t-17 147.5t-30 142 q-57 9 -95 42.5t-38 82.5z" />
<glyph unicode="L" horiz-adv-x="1212" d="M20 195q0 102 75 156.5t198 54.5q54 0 119 -7q0 249 55 488q-70 35 -117 78.5t-47 76.5q0 19 8 37.5t21 18.5q29 0 90.5 -26.5t89.5 -33.5q80 235 211.5 372.5t300.5 137.5q324 0 324 -272q0 -42 -11 -84.5t-35.5 -92t-71 -92.5t-111 -79t-162.5 -58.5t-218 -25.5 q-22 -172 -22 -408q0 -52 -15 -129q6 -3 39 -20.5t42 -21t37.5 -17t43.5 -17t41.5 -11t51 -9.5t51.5 -2q47 0 101.5 43t94 94t78 94t57.5 43q31 0 31 -77q0 -49 -21.5 -105.5t-63 -110.5t-97 -98t-129.5 -71t-154 -27q-135 0 -317 108q-127 -137 -322 -137q-122 0 -184 62.5 t-62 167.5zM219 182q0 -28 21 -42.5t49 -14.5q48 0 72.5 22.5t35.5 67.5q-60 29 -104 29q-31 0 -52.5 -16.5t-21.5 -45.5zM770 1020q143 12 246.5 82.5t103.5 142.5q0 103 -100 103q-172 0 -250 -328z" />
<glyph unicode="M" horiz-adv-x="1947" d="M0 1280q0 110 102.5 183t245.5 73q68 0 114 -21t70 -62t34 -87.5t12 -110.5q153 285 383 285q73 0 127.5 -21t87 -55t52 -86t26 -106t6.5 -123v-16q132 184 315 184q258 0 258 -311q0 -109 -30.5 -258.5t-61.5 -273t-31 -167.5q0 -78 53 -78q28 0 78.5 39.5t95 87.5 t85.5 87.5t53 39.5q15 0 25.5 -21t10.5 -56q0 -87 -72 -184t-183.5 -162.5t-215.5 -65.5q-102 0 -156 58t-54 149q0 69 39 210.5t78.5 290.5t39.5 236q0 98 -59 98t-131 -74t-132 -185.5t-102.5 -251.5t-46.5 -263q12 -78 12 -112q0 -75 -64 -128t-144 -53q-44 0 -68.5 45 t-24.5 115q0 59 31 183.5t68.5 247t68.5 270t31 247.5q0 92 -23 138.5t-81 46.5q-69 0 -134.5 -59t-113 -146t-90 -201t-68 -207.5t-43.5 -183.5q0 -6 -1 -19.5t-1 -19.5q2 -12 13 -64t14 -71.5t7.5 -55t4.5 -63.5q0 -111 -84 -152q-2 -1 -16.5 -8t-17.5 -8.5t-16 -7.5 t-17.5 -7.5t-15.5 -6t-17.5 -6t-16 -4t-18 -3t-17.5 -0.5q-50 0 -76 52t-26 147q0 124 36.5 354t73.5 419.5t37 217.5q0 73 -19.5 119.5t-63.5 46.5q-38 0 -100 -51t-103 -51q-33 0 -33 57z" />
<glyph unicode="N" horiz-adv-x="1415" d="M0 1280q0 110 102.5 183t245.5 73q60 0 103 -17.5t67.5 -45t38.5 -71.5t18.5 -87t4.5 -101v-14q81 158 192.5 249t249.5 91q103 0 178.5 -30.5t118.5 -85.5t63.5 -123.5t20.5 -151.5q0 -88 -22.5 -189.5t-54.5 -189t-64.5 -168t-55 -151.5t-22.5 -115q0 -107 47 -107 q35 0 109.5 63t127.5 132q47 59 74 59q15 0 26 -21.5t11 -55.5q0 -87 -72 -184t-183.5 -162.5t-215.5 -65.5q-114 0 -163.5 56.5t-49.5 160.5q0 87 33.5 217.5t73 242t73 228t33.5 178.5q0 86 -32.5 135.5t-92.5 49.5q-78 0 -153 -62.5t-132 -156.5t-105.5 -210.5 t-77.5 -219.5t-44 -187q2 -12 13 -64t14 -71.5t7.5 -55t4.5 -63.5q0 -111 -84 -152q-2 -1 -16.5 -8t-17.5 -8.5t-16 -7.5t-17.5 -7.5t-15.5 -6t-17.5 -6t-16 -4t-18 -3t-17.5 -0.5q-50 0 -76 52t-26 147q0 124 36.5 354t73.5 419.5t37 217.5q0 73 -19.5 119.5t-63.5 46.5 q-38 0 -100 -51t-103 -51q-33 0 -33 57z" />
<glyph unicode="O" horiz-adv-x="1738" d="M143 612q0 144 37 280.5t109 254t171.5 206t232 139t282.5 50.5q194 0 323 -67.5t129 -143.5q0 -22 -61 -22q-10 0 -144 18.5t-264 18.5q-112 0 -207.5 -60t-156.5 -155.5t-95 -210.5t-34 -230q0 -203 94.5 -318.5t261.5 -115.5q206 0 343 96.5t202 263.5 q-149 19 -229 112.5t-80 246.5q0 116 76.5 197t195.5 81q134 0 203.5 -96.5t69.5 -245.5q0 -19 -5 -96q18 7 41 21.5t42 23t40 8.5q12 0 20.5 -10t8.5 -24q0 -70 -47.5 -123t-128.5 -80q-63 -300 -262.5 -473.5t-509.5 -173.5q-135 0 -246 34.5t-186.5 93.5t-127 140 t-75 171t-23.5 189zM1319 993q0 -55 26.5 -98.5t71.5 -69.5q6 55 6 115q0 133 -61 133q-21 0 -32 -23t-11 -57z" />
<glyph unicode="P" horiz-adv-x="1253" d="M123 1225q0 36 67 114q66 76 214 139.5t303 63.5q161 0 285 -39.5t197 -106.5t109.5 -149.5t36.5 -175.5q0 -97 -37.5 -190.5t-103 -167t-162 -119t-205.5 -45.5q-219 0 -219 92q0 21 22.5 31t58 15t79 13t87 30.5t79 59t58 108t22.5 169.5q0 134 -92.5 206.5 t-266.5 72.5q-82 0 -152.5 -15t-117.5 -36t-86.5 -42t-77 -36t-71.5 -15q-27 0 -27 23zM164 168q0 197 81 494.5t183 461.5q77 117 143 117q13 0 20 -33t7 -78q0 -85 -27 -230.5t-54.5 -269.5t-27.5 -157l-20 -383q0 -121 -236 -121q-17 0 -29 5.5t-19.5 19.5t-11.5 27 t-6 40.5t-2.5 47.5t-0.5 59z" />
<glyph unicode="Q" horiz-adv-x="1622" d="M20 197q0 98 90.5 165.5t262.5 67.5q82 0 150.5 -17t121.5 -49t91.5 -66.5t78.5 -82.5q191 96 296.5 274.5t105.5 409.5q0 102 -28.5 181t-78 127t-111 72t-131.5 24q-207 0 -339 -134.5t-132 -363.5q0 -66 19.5 -144.5t19.5 -93.5q0 -22 -22 -22q-91 0 -159.5 92 t-68.5 250q0 125 39.5 232.5t107.5 183t158 129.5t191 80t207 26q128 0 244.5 -39.5t210.5 -115t150 -197.5t56 -275q0 -179 -44 -330t-122.5 -261t-175.5 -188t-215 -132q88 -88 207 -88q70 0 159 7t105 7q45 0 45 -20q0 -17 -20.5 -43t-59 -53.5t-107 -46.5t-151.5 -19 q-93 0 -169 26.5t-122.5 63.5t-91.5 92q-154 -41 -319 -41q-211 0 -330 82t-119 230zM266 188q0 -29 44.5 -45t97.5 -16q103 0 215 23q-93 96 -211 96q-59 0 -102.5 -15t-43.5 -43z" />
<glyph unicode="R" horiz-adv-x="1333" d="M123 1225q0 22 24.5 59t75.5 82t118 84t164 65.5t202 26.5q89 0 170 -13t156 -44.5t130 -77.5t88 -117t33 -160q0 -92 -27.5 -170.5t-75.5 -133.5t-103.5 -93.5t-119.5 -62.5q29 -65 60 -187t59 -188t72 -66q28 0 78.5 39.5t95 87.5t85 87.5t52.5 39.5q15 0 26 -21.5 t11 -55.5q0 -87 -72 -184t-183.5 -162.5t-215.5 -65.5q-59 0 -101 21t-66 59.5t-38.5 86.5t-23 110t-14 120t-16 126.5t-26.5 121.5q-57 9 -95 42.5t-38 82.5q0 39 40.5 60.5t99.5 21.5q50 0 96 -27q64 53 96.5 118.5t32.5 178.5q0 104 -78 167t-238 63q-106 0 -192 -22.5 t-131 -49.5t-94.5 -49.5t-89.5 -22.5q-27 0 -27 23zM143 168q0 191 89.5 488.5t195.5 467.5q24 37 63.5 67t79.5 30q27 0 27 -91q0 -85 -32 -230.5t-64.5 -269.5t-32.5 -157v-301q0 -111 -84 -152q-2 -1 -16.5 -8t-17.5 -8.5t-16 -7.5t-17.5 -7.5t-15.5 -6t-17.5 -6t-16 -4 t-18 -3t-17.5 -0.5q-49 0 -69.5 50t-20.5 149z" />
<glyph unicode="S" horiz-adv-x="1167" d="M51 379q0 83 37 169.5t99 144t126 57.5q74 0 74 -45q0 -42 -20.5 -130.5t-20.5 -142.5q0 -79 35 -128.5t117 -49.5q105 0 174 52.5t69 160.5q0 58 -23 109.5t-59 91.5t-80.5 80t-88.5 82t-80 88.5t-59 109.5t-23 135q0 92 33.5 166.5t90.5 121.5t129.5 72t153.5 25 q65 0 121 -19t100.5 -55.5t70.5 -97.5t26 -139q0 -102 -69 -177.5t-181 -94.5q110 -91 147 -130q118 -124 133 -289q2 -28 2 -57q0 -113 -54.5 -210t-142 -159.5t-194.5 -98t-215 -35.5q-87 0 -162.5 23.5t-135.5 69.5t-95 123.5t-35 176.5zM565 1276q23 -81 67.5 -142 t110.5 -120q45 44 81 110t36 121q0 49 -40 76t-97 27q-47 0 -90.5 -19t-67.5 -53z" />
<glyph unicode="T" horiz-adv-x="1130" d="M61 1212q0 23 25.5 61t77.5 82.5t119.5 83.5t164 65t199.5 26q142 0 394 -3t280 -3q55 0 55 -43q0 -7 -7.5 -25t-19 -43t-16.5 -39q-18 -43 -43.5 -61.5t-72.5 -18.5q-18 0 -86.5 2.5t-164 5.5t-151.5 5q-7 -83 -48 -308t-75.5 -472.5t-34.5 -436.5q0 -121 -235 -121 q-17 0 -29 5.5t-19.5 19t-12 27.5t-6.5 40.5t-2.5 47.5t-0.5 59q0 189 87 567.5t182 569.5q-106 -8 -216 -37t-191 -53.5t-126 -24.5q-27 0 -27 22z" />
<glyph unicode="U" horiz-adv-x="1415" d="M0 1280q0 110 102.5 183t245.5 73q59 0 105.5 -21.5t74.5 -54.5t46 -77t25 -83.5t7 -78.5q0 -84 -22 -194.5t-48.5 -203t-48.5 -212.5t-22 -220q0 -58 33.5 -97.5t109.5 -39.5q62 0 117 33.5t95.5 87.5t74.5 127t56 147.5t36 153.5l12 92q0 41 -4 224t-4 204 q0 64 42.5 115t99.5 75.5t112 24.5q34 0 46 -50t12 -157q0 -46 -52.5 -401.5t-52.5 -513.5q0 -187 51 -187q27 0 75 38.5t91 85.5t82.5 85.5t52.5 38.5q29 0 29 -71q0 -66 -40 -139.5t-102.5 -133.5t-146 -99.5t-164.5 -39.5q-42 0 -72.5 16t-48.5 41.5t-28.5 68.5t-14 86 t-4.5 105q-137 -317 -407 -317q-188 0 -292.5 94t-104.5 285q0 44 41 204t82.5 333.5t41.5 248.5q0 73 -19.5 119.5t-63.5 46.5q-38 0 -100 -51t-103 -51q-33 0 -33 57z" />
<glyph unicode="V" horiz-adv-x="1347" d="M0 1280q0 110 102.5 183t245.5 73q59 0 105.5 -21.5t74.5 -54.5t46 -77t25 -83.5t7 -78.5q0 -84 -22 -194.5t-48.5 -203t-48.5 -212.5t-22 -220q0 -58 33.5 -97.5t109.5 -39.5q89 0 163.5 36t128 96.5t95 146t67 178t40.5 198.5q-165 10 -254.5 105.5t-89.5 257.5 q0 116 76.5 197t195.5 81q137 0 205 -90t68 -252q0 -48 -3 -94q16 7 39.5 21t42 22t39.5 8q12 0 20.5 -10.5t8.5 -24.5q0 -66 -42 -116.5t-114 -77.5q-7 -102 -20 -191t-39.5 -187t-63 -177.5t-94.5 -153t-130.5 -123.5t-173.5 -80t-222 -30q-188 0 -292.5 94t-104.5 285 q0 44 41 204t82.5 333.5t41.5 248.5q0 73 -19.5 119.5t-63.5 46.5q-38 0 -100 -51t-103 -51q-33 0 -33 57zM1020 1290q0 -55 27 -99.5t73 -70.5q4 78 4 117q0 133 -61 133q-21 0 -32 -23t-11 -57z" />
<glyph unicode="W" horiz-adv-x="2105" d="M0 1280q0 109 103 182.5t245 73.5q74 0 126.5 -27t80 -74t39.5 -100t12 -116q0 -61 -35 -207t-70.5 -320t-35.5 -303q0 -56 33.5 -95.5t109.5 -39.5q91 0 179.5 57t164.5 158q-82 298 -82 651q0 142 68 223.5t207 81.5q105 0 163 -60.5t58 -162.5q0 -125 -51.5 -327 t-143.5 -386q41 -110 99.5 -173.5t134.5 -63.5q59 0 113 28t96 79t77.5 114t63.5 140t48 149.5t36 150.5q-100 13 -175.5 69.5t-111.5 132.5t-36 157q0 116 76.5 197t195.5 81q137 0 204.5 -90.5t67.5 -255.5q0 -55 -2 -90q16 7 39.5 21t42 22t39.5 8q12 0 20.5 -10.5 t8.5 -24.5q0 -66 -43.5 -117.5t-118.5 -78.5q-9 -88 -23 -170.5t-40.5 -179t-62 -178.5t-90 -160t-121.5 -132t-159 -87t-200 -33q-199 0 -324 264q-208 -264 -475 -264q-188 0 -292.5 94t-104.5 285q0 44 41 204t82.5 333.5t41.5 248.5q0 73 -19.5 119.5t-63.5 46.5 q-38 0 -100 -51t-103 -51q-33 0 -33 57zM1075 1102q0 -164 29 -348q78 202 78 393q0 43 -14.5 74.5t-39.5 31.5q-53 0 -53 -151zM1778 1290q0 -54 26 -97t70 -69q8 68 8 113q0 47 -15 90t-46 43q-21 0 -32 -23t-11 -57z" />
<glyph unicode="X" horiz-adv-x="1241" d="M-61 25q0 5 6.5 12t22 20t24.5 21q366 331 579 655q-55 265 -73 338q-59 -16 -133 -16q-62 0 -120 13t-109 39t-82 74t-31 111q0 114 75.5 186t198.5 72q81 0 151 -25t121.5 -67t95 -104.5t74 -128.5t56.5 -148q134 212 278 445q15 22 49 22q62 0 137.5 -23t75.5 -61 q0 -68 -133.5 -257.5t-331.5 -426.5q7 -36 18 -94t17.5 -92.5t16.5 -83t18.5 -78t19.5 -65.5t22.5 -57t26 -40.5t31 -28t35.5 -8.5q27 0 75 38.5t91 85.5t82.5 85.5t52.5 38.5q29 0 29 -71q0 -66 -40 -139.5t-102.5 -133.5t-146 -99.5t-164.5 -39.5q-49 0 -92 25.5 t-75.5 67.5t-62 105.5t-51 130.5t-42.5 152q-43 -57 -71.5 -94t-75.5 -94.5t-84 -95t-86 -81.5t-92 -69.5t-92 -43t-95 -17.5q-42 0 -68 13.5t-26 31.5zM285 1311q0 -42 52 -84t132 -56q-62 199 -147 199q-37 0 -37 -59z" />
<glyph unicode="Y" horiz-adv-x="1325" d="M0 1280q0 110 102.5 183t245.5 73q59 0 105.5 -19.5t74.5 -50t46 -70t25 -75t7 -70.5q0 -76 -22 -175.5t-48.5 -182.5t-48.5 -191.5t-22 -199.5q0 -123 108 -123q121 0 211 143q29 130 97 390.5t84 336.5q52 244 139 244q98 0 146 -44.5t48 -154.5q0 -103 -73 -241 q-75 -450 -148 -801q235 94 299 166q24 29 47.5 44t36.5 15q29 0 29 -78q0 -48 -35.5 -96t-101.5 -93.5t-142 -84.5t-174 -80q-11 -47 -23.5 -91.5t-37.5 -107.5t-54.5 -116.5t-74.5 -109t-97.5 -94t-123.5 -63t-152 -24.5t-152 17.5t-129 52.5t-92 94.5t-34 136.5 q0 27 13.5 53.5t44.5 52.5t61.5 47.5t86 48t95 44.5t111.5 45t112 41.5t119 42.5l14 4q0 59 10 127q-131 -72 -280 -72q-145 0 -222 90t-77 252q0 67 26 162t56.5 175.5t56.5 174.5t26 160q0 137 -83 137q-38 0 -100 -51t-103 -51q-33 0 -33 57zM274 -285q0 -50 61 -84 t136 -34q123 0 207 313q-51 -18 -112 -38.5t-94.5 -32t-72 -25.5t-57.5 -23.5t-37 -22t-24.5 -25t-6.5 -28.5z" />
<glyph unicode="Z" horiz-adv-x="1175" d="M-10 195q0 103 74.5 157t197.5 54q120 0 234 -29q79 137 137 276q-50 -5 -130.5 -15t-136 -16t-90.5 -6q-26 0 -26 21q0 75 131.5 137t327.5 92q23 73 59 205.5t55 192.5q-95 30 -174 30t-177 -25t-175 -50t-104 -25q-62 0 -62 45q0 33 44.5 76t117 83t179 67.5 t216.5 27.5q34 0 71.5 -2t96.5 -7t109.5 -17t97.5 -30t74.5 -48t27.5 -68q0 -150 -129 -451q16 0 38.5 0.5t35.5 1t29.5 0t26 -3t18 -7t12.5 -12.5t4 -20q0 -7 -4.5 -23.5t-11.5 -39.5t-10 -35q-11 -41 -27 -58.5t-45 -17.5q-10 0 -35.5 2t-64 4.5t-62.5 4.5 q-114 -223 -225 -381q72 -38 129.5 -57t132.5 -19q33 0 69 20.5t66 50.5t61 66t55 66t45.5 50.5t35.5 20.5q30 0 30 -77q0 -49 -21.5 -105.5t-63 -110.5t-97 -98t-129.5 -71t-154 -27q-134 0 -311 106l-8 -6q-122 -129 -319 -129q-122 0 -184 62.5t-62 167.5zM188 182 q0 -28 21 -42.5t49 -14.5q46 0 123 84q-75 35 -119 35q-31 0 -52.5 -16.5t-21.5 -45.5z" />
<glyph unicode="[" horiz-adv-x="686" d="M102 -451v2169h502v-119h-362v-1931h362v-119h-502z" />
<glyph unicode="\" horiz-adv-x="995" d="M246 1370q0 51 39 109.5t69 58.5q15 0 21 -16l522 -1446q6 -18 6 -35q0 -44 -37 -98t-78 -54q-8 0 -12 7q-19 58 -49 148l-40.5 121.5t-36 103.5t-55 148.5t-76.5 197t-120 305.5q-50 128 -101.5 277.5t-51.5 172.5z" />
<glyph unicode="]" horiz-adv-x="686" d="M102 -332h363v1931h-363v119h502v-2169h-502v119z" />
<glyph unicode="^" horiz-adv-x="1064" d="M154 743l358 517h41l358 -517l-102 -71l-281 401l-276 -397z" />
<glyph unicode="_" horiz-adv-x="901" d="M0 -160h901v-119h-901v119z" />
<glyph unicode="`" horiz-adv-x="1024" d="M291 1511q0 55 17.5 78t74.5 23q30 0 57 -5.5t51 -23.5t27 -45q18 -230 191 -346q24 -16 24 -41q0 -14 -41 -14q-74 0 -144 23.5t-128.5 68t-93.5 117.5t-35 165z" />
<glyph unicode="a" d="M51 307q0 122 38.5 241.5t113.5 211.5q79 95 185.5 157t225.5 62q58 0 123 -12q41 -9 62 -21q29 60 69 60q61 0 129 -64.5t68 -116.5q-37 -84 -84 -161q-16 -89 -16 -267q0 -168 43 -168q28 0 78.5 39.5t95 87.5t85 87.5t52.5 39.5q15 0 26 -21.5t11 -55.5 q0 -87 -72 -184t-183.5 -162.5t-215.5 -65.5q-107 0 -146 190q-38 -62 -85 -104.5t-118.5 -69t-162.5 -26.5q-144 0 -233 88t-89 235zM352 360q0 -157 117 -157q78 0 149 60.5t105 182.5q6 245 41 394q-77 -14 -149 -52.5t-131.5 -97t-95.5 -145t-36 -185.5z" />
<glyph unicode="b" horiz-adv-x="1058" d="M82 1083q0 15 7 26t20 11q28 0 93 -20t87 -25q110 203 247.5 327t276.5 124q137 0 214 -67.5t77 -172.5q0 -73 -34.5 -132.5t-91.5 -99t-138 -68t-166.5 -43.5t-184.5 -21q-96 -237 -96 -510q0 -74 13.5 -126t36.5 -76.5t45.5 -34t48.5 -9.5q64 0 92 50t28 122 q0 23 -6 45t-12.5 37.5t-21.5 36.5t-23 30t-28 30.5t-25 27.5q19 67 68 133.5t93 66.5q57 0 92.5 -45.5t51.5 -110.5t29.5 -130t39.5 -110.5t68 -45.5q31 0 61.5 27.5t51 60.5t41.5 60.5t34 27.5q23 0 42.5 -32.5t19.5 -65.5q0 -25 -15 -63t-42.5 -78.5t-75 -69.5 t-103.5 -29q-95 0 -149 41q-38 -91 -124.5 -145.5t-223.5 -54.5q-60 0 -115 11t-109.5 38t-94.5 69t-64.5 108.5t-24.5 151.5q0 294 141 603q-66 29 -108.5 61.5t-42.5 58.5zM543 1038q65 12 122 30t106.5 44t78.5 62.5t29 78.5q0 31 -13 51.5t-37 20.5q-55 0 -136 -78.5 t-150 -208.5z" />
<glyph unicode="c" horiz-adv-x="747" d="M41 307q0 142 48 269.5t126.5 215.5t180 139.5t206.5 51.5q71 0 106 -33.5t35 -91.5q0 -70 -29 -114t-71 -44q-27 0 -60.5 30t-58.5 30q-58 0 -101 -63t-62 -151.5t-19 -185.5q0 -40 19 -69t48 -42.5t56 -19.5t51 -6q46 0 95 27t88 65t73.5 76t61.5 65t40 27 q16 0 26.5 -21t10.5 -56q0 -40 -19.5 -92t-63 -110t-103 -105.5t-149.5 -79t-193 -31.5q-64 0 -123.5 19t-109.5 56.5t-79.5 100.5t-29.5 143z" />
<glyph unicode="d" d="M51 307q0 122 38.5 241.5t113.5 211.5q79 95 185.5 157t225.5 62q74 0 123 -12l47 -13q52 252 125 413t146 161q57 0 105 -75.5t48 -121.5q-1 -31 -5 -59t-14.5 -56.5t-17.5 -47t-25.5 -48t-26 -41t-31.5 -45.5t-31 -43q-37 -134 -66.5 -328.5t-29.5 -291.5 q0 -142 47 -142q28 0 78.5 39.5t95 87.5t85 87.5t52.5 39.5q15 0 26 -21.5t11 -55.5q0 -87 -72 -184t-183.5 -162.5t-215.5 -65.5q-111 0 -148 184q-59 -92 -146 -143t-218 -51q-144 0 -233 88t-89 235zM352 360q0 -157 117 -157q76 0 145 57t105 174q3 186 43 406 q-61 -11 -119 -37.5t-111 -69t-93 -96.5t-63.5 -125.5t-23.5 -151.5z" />
<glyph unicode="e" horiz-adv-x="856" d="M41 307q0 143 45 270t119.5 215t173.5 139.5t205 51.5q113 0 175 -54t62 -143q0 -58 -21.5 -105t-53.5 -77t-84.5 -58.5t-97.5 -45.5t-112 -42.5t-110 -45.5v-52q0 -40 19.5 -68.5t51.5 -42.5t62.5 -20t63.5 -6q75 0 145 26t118 63.5t86 75t64.5 63.5t38.5 26 q29 0 29 -71q0 -31 -13.5 -71t-41.5 -88t-78 -93t-115 -83t-161 -60.5t-208 -22.5q-71 0 -134.5 19t-115 56.5t-82 100t-30.5 143.5zM356 553q24 16 65 41t60.5 38t43 33t33 40.5t9.5 44.5q0 51 -63 51q-57 0 -94 -70t-54 -178z" />
<glyph unicode="f" horiz-adv-x="854" d="M10 -371q0 323 64.5 668.5t179.5 624.5q-67 29 -110.5 62t-43.5 58q0 15 7 26t20 11q29 0 89 -20t87 -25q109 230 243 361t283 131q68 0 115 -18t71 -52t34 -74.5t10 -95.5q0 -117 -78 -209.5t-203 -142.5t-276 -57q-57 -157 -92 -336q74 30 204 30q32 -239 152 -239 q35 0 66 16.5t53 40t39.5 47t32.5 40t26 16.5q35 0 35 -66q0 -126 -61.5 -203.5t-188.5 -77.5q-60 0 -111.5 11t-81.5 26t-51.5 30.5t-29.5 26.5l-9 11q45 -428 45 -545q0 -266 -313 -266q-104 0 -155.5 53.5t-51.5 136.5zM258 -326q0 -77 47 -77q26 0 46 39t20 98 q0 57 -11 182t-28 234q-34 -148 -54 -291.5t-20 -184.5zM555 1010q43 18 63.5 27.5t58 28t56.5 31.5t45 34t38.5 40.5t22 45.5t9.5 55q0 53 -37 53q-44 0 -115.5 -83t-140.5 -232z" />
<glyph unicode="g" horiz-adv-x="1173" d="M51 307q0 122 38.5 241.5t113.5 211.5q79 95 185.5 157t225.5 62q59 0 128.5 -14t103.5 -33q25 90 92 90q55 0 106.5 -78.5t51.5 -124.5q0 -135 -183 -743q80 63 154 141t114.5 131.5t75 91t52.5 37.5q28 0 28 -71q0 -80 -63.5 -186t-180 -211t-253.5 -167 q-17 -58 -29 -92t-32.5 -82.5t-40.5 -77t-52 -61t-69.5 -50t-89 -29t-113.5 -11.5q-133 0 -229.5 79t-96.5 193q0 36 13.5 63.5t42.5 47.5t62 34t86 26.5t98.5 21t116.5 22t124 25.5q15 57 33 137q-112 -104 -291 -104q-144 0 -233 88t-89 235zM276 -313q0 -40 45.5 -65 t90.5 -25q81 0 155 165q-50 -10 -105.5 -18.5t-84 -12.5t-55 -10t-36.5 -13.5t-10 -20.5zM352 360q0 -157 117 -157q72 0 138 52.5t104 156.5q41 189 110 432q-63 -9 -127.5 -33.5t-126 -67t-109.5 -97t-77 -129t-29 -157.5z" />
<glyph unicode="h" horiz-adv-x="1132" d="M92 168q0 104 2.5 175.5t12 178.5t31 204t55.5 216t90 253t131 280q29 55 82 55q29 0 54.5 -24.5t40 -59t22.5 -66t8 -51.5q0 -52 -16.5 -105t-35.5 -89t-56.5 -99t-57.5 -102l-31 -148q117 195 324 195q136 0 209 -63t73 -173q0 -86 -21.5 -189t-43 -182.5t-21.5 -109.5 q0 -35 23 -35q27 0 75 38.5t91 85.5t82.5 85.5t52.5 38.5q28 0 28 -71q0 -66 -40 -139.5t-102 -133.5t-145.5 -99.5t-164.5 -39.5q-164 0 -164 262q0 92 16 174t31.5 146t15.5 112q0 74 -92 74q-54 0 -113 -67.5t-101 -161.5t-56 -179q12 -126 12 -182q0 -112 -71 -152 q-2 -1 -17.5 -10.5t-19 -11t-16.5 -8.5t-19 -9t-17 -6t-20 -5t-18 -1q-44 0 -73.5 54t-29.5 145z" />
<glyph unicode="i" horiz-adv-x="595" d="M102 377q0 95 16 203.5t44.5 207.5t74.5 164.5t99 65.5q30 0 55 -23.5t38.5 -57.5t20.5 -65t7 -51q-2 -100 -50.5 -290t-48.5 -238q0 -30 20.5 -47t51.5 -17q27 0 75 38.5t91 85.5t82.5 85.5t52.5 38.5q29 0 29 -71q0 -66 -40 -139.5t-102.5 -133.5t-146 -99.5 t-164.5 -39.5q-205 0 -205 383zM336 1380q0 42 17 100.5t52.5 108t77.5 49.5q40 0 77.5 -45.5t56 -96t18.5 -79.5q0 -60 -23 -107t-60 -73t-78 -39.5t-83 -13.5q-6 9 -15 26t-24.5 68.5t-15.5 101.5z" />
<glyph unicode="j" horiz-adv-x="573" d="M-512 -289q0 28 8 52.5t26.5 45.5t38.5 38t54.5 34.5t63 30t76 28.5t81 27t91 28.5t93.5 29.5q13 67 34.5 194.5t31.5 165.5q32 133 92 332t80 248q23 57 80 57q55 0 106.5 -78.5t51.5 -124.5q0 -126 -154 -649q76 49 146.5 108.5t109.5 100.5t69 69.5t42 28.5 q28 0 28 -71q0 -116 -135 -255t-338 -231l-53 -166q-21 -60 -40 -102t-51 -85t-71.5 -69t-99 -42.5t-135.5 -16.5q-133 0 -229.5 79t-96.5 193zM-324 -313q0 -40 45.5 -65t90.5 -25q91 0 155 210q-50 -18 -104 -36t-83.5 -27.5t-56 -19.5t-37 -18.5t-10.5 -18.5zM344 1368 q0 60 18.5 115.5t62.5 97t105 41.5q126 0 172 -96q-2 -78 -45 -159.5t-114 -137t-146 -55.5q-53 83 -53 194z" />
<glyph unicode="k" horiz-adv-x="1044" d="M92 168q0 179 35.5 419t110.5 492.5t170 395.5q36 55 81 55q56 0 106 -77.5t50 -123.5q0 -52 -19.5 -105t-42 -89t-66.5 -99t-68 -102l-21 -172q107 219 326 219q129 0 199.5 -63t70.5 -173q0 -55 -24 -103.5t-63 -83t-87.5 -60t-97.5 -37.5t-93 -12q9 -32 17 -56.5 t24 -57.5t34.5 -54t47.5 -36.5t64 -15.5q48 0 94 25.5t80 62t63 73t54 62t43 25.5q28 0 28 -71q0 -89 -60.5 -184.5t-162.5 -161.5t-209 -66q-53 0 -101 28t-83.5 68.5t-72.5 107t-61 121.5t-55 134q-1 -38 -7.5 -137.5t-6.5 -143.5q0 -35 -1 -53.5t-8.5 -43t-21.5 -36.5 q-87 -70 -170 -70q-96 0 -96 199zM422 504q138 9 226.5 60t88.5 124q0 74 -80 74q-58 0 -123.5 -75.5t-111.5 -182.5z" />
<glyph unicode="l" horiz-adv-x="778" d="M82 401q0 126 21 257.5t59.5 257t97.5 236t131.5 194t166.5 132t196 48.5q88 0 138 -48.5t50 -134.5q0 -72 -33 -146.5t-95.5 -153t-128 -150t-156.5 -172.5t-156 -186v-82q0 -110 48 -166t128 -56q98 0 170 50.5t139 136.5q45 59 74 59t29 -71q0 -66 -38.5 -139.5 t-99 -133.5t-142.5 -99.5t-163 -39.5q-88 0 -164 23t-138 70t-98 127.5t-36 186.5zM399 791q58 90 126 176t106 129.5t64 91.5t26 92q0 45 -35 45q-73 0 -159.5 -147.5t-127.5 -386.5z" />
<glyph unicode="m" horiz-adv-x="1574" d="M92 168q0 108 1 164.5t5.5 139.5t14.5 135t27.5 117.5t46 123t67.5 117.5q38 57 80 57q45 0 86.5 -52.5t62.5 -111.5q100 123 232 123q90 0 158.5 -58.5t68.5 -146.5v-22q125 155 305 155q109 0 167.5 -56.5t58.5 -156.5q0 -80 -20 -175t-40 -167.5t-20 -97.5 q0 -27 16 -27q27 0 75 38.5t91 85.5t82.5 85.5t52.5 38.5q29 0 29 -71q0 -66 -40 -139.5t-102.5 -133.5t-146 -99.5t-164.5 -39.5q-147 0 -147 268q0 72 22.5 187.5t22.5 173.5q0 67 -78 67q-57 0 -120.5 -104.5t-92.5 -220.5v-5q0 -62 21.5 -138.5t21.5 -98.5 q0 -41 -38 -74.5t-136 -71.5q-27 -10 -47 -10q-49 0 -69.5 51t-20.5 150q0 137 15 318.5t15 205.5q0 35 -14.5 52.5t-48.5 17.5q-41 0 -97 -72.5t-95.5 -168.5t-39.5 -161q0 -62 21.5 -138.5t21.5 -98.5q0 -41 -38 -74.5t-136 -71.5q-27 -10 -47 -10q-49 0 -69.5 51 t-20.5 150z" />
<glyph unicode="n" horiz-adv-x="1099" d="M92 168q0 109 1 165.5t5.5 140t14.5 135t27.5 117t46 122.5t67.5 117q38 57 80 57q39 0 77 -43.5t62 -97.5q96 100 242 100q136 0 209 -63t73 -173q0 -86 -21.5 -189t-43 -182.5t-21.5 -109.5q0 -35 23 -35q27 0 75 38.5t91 85.5t82.5 85.5t52.5 38.5q29 0 29 -71 q0 -66 -40 -139.5t-102.5 -133.5t-146 -99.5t-164.5 -39.5q-164 0 -164 262q0 92 16 174t32 146t16 112q0 74 -93 74q-52 0 -107 -63t-94.5 -150.5t-56.5 -173.5v-15q0 -62 21.5 -138.5t21.5 -98.5q0 -41 -38 -74.5t-136 -71.5q-27 -10 -47 -10q-49 0 -69.5 51t-20.5 150z " />
<glyph unicode="o" horiz-adv-x="1112" d="M51 387q0 116 39.5 223.5t110.5 190.5t178 132.5t233 49.5q114 0 210 -38.5t96 -82.5q0 -33 -160 -33q-177 0 -291.5 -114.5t-114.5 -294.5q0 -95 56.5 -156t162.5 -61q89 0 154 41q-145 99 -145 284q0 46 18 92t50.5 84.5t85.5 62.5t116 24q96 0 147.5 -62t51.5 -162 q0 -102 -48 -213h13q52 0 93.5 19.5t62 43t41 43t36.5 19.5q29 0 29 -73q0 -116 -73.5 -180t-182.5 -64q-70 0 -131 12q-76 -88 -176.5 -139t-216.5 -51q-113 0 -200.5 33.5t-139.5 91t-78.5 128t-26.5 150.5zM817 547q0 -82 53 -135q35 71 35 145q0 68 -45 68 q-18 0 -30.5 -25.5t-12.5 -52.5z" />
<glyph unicode="p" horiz-adv-x="1126" d="M-82 -371q0 89 13 216.5t43.5 305t94 394.5t150.5 420q23 57 80 57q45 0 87 -52.5t63 -111.5q106 121 272 121q161 0 240 -87t79 -224q0 -159 -101 -312.5t-245 -208.5h25q66 0 133.5 22t118 53t97.5 71.5t74 70t46 54.5q45 59 74 59q28 0 28 -74q0 -112 -98.5 -223 t-241.5 -166q-103 -41 -291 -41q-117 0 -191.5 38t-74.5 120q0 17 4.5 37.5t9.5 32.5l5 12q82 0 146.5 34.5t103.5 95t59 136.5t20 164q0 46 -33.5 81.5t-82.5 35.5q-59 0 -123 -48.5t-107 -129.5q-87 -161 -106 -279q-22 -129 -52 -335t-49.5 -329.5t-29.5 -142.5 q-12 -23 -32 -40t-42 -17q-60 0 -127 84q-39 45 -39 106z" />
<glyph unicode="q" horiz-adv-x="1173" d="M51 307q0 122 38.5 241.5t113.5 211.5q79 95 185.5 157t225.5 62q70 0 141 -18t85 -37l18 41q23 57 80 57q55 0 106.5 -79t51.5 -124q-1 -70 -22.5 -139t-48 -118t-56 -120t-41.5 -139l-13 -70q27 -6 54 -6q117 0 266 191q47 59 74 59q28 0 28 -71q0 -107 -91 -221 t-222 -160q6 -18 15 -48.5t23.5 -115t14.5 -156.5q0 -266 -313 -266q-104 0 -155.5 53.5t-51.5 136.5q0 178 37 408q-86 -53 -221 -53q-144 0 -233 88t-89 235zM352 360q0 -157 117 -157q98 0 172 86q63 279 168 555q-63 -8 -126.5 -32t-123 -66t-105.5 -97t-74 -130 t-28 -159zM805 -326q0 -77 47 -77q26 0 46 39t20 98q0 78 -14 150.5t-28 105.5l-14 33q-57 -251 -57 -349z" />
<glyph unicode="r" horiz-adv-x="935" d="M92 168q0 221 22 344.5t85 247.5q-95 88 -95 162q0 62 37 96.5t111 34.5q40 0 76 -23t58.5 -57.5t37 -67.5t20.5 -61q29 -10 78 -10q42 0 88 19t83.5 38.5t60.5 19.5q31 0 61 -52t53 -122q-19 -84 -51 -193.5t-50.5 -178.5t-18.5 -101q0 -35 22 -35q27 0 75 38.5t91 85.5 t82.5 85.5t52.5 38.5q29 0 29 -71q0 -90 -54.5 -185t-151 -161t-202.5 -66q-92 0 -141 76t-49 186q0 212 96 406q-18 -8 -63 -13.5t-68 -5.5q-19 0 -51 4q-56 -228 -56 -287q0 -62 6.5 -160t6.5 -120q0 -33 -50.5 -73t-140.5 -40q-49 0 -69.5 51t-20.5 150z" />
<glyph unicode="s" horiz-adv-x="821" d="M-41 244q0 92 49 170t103 78q26 0 42 -18t25.5 -46t20 -62.5t30 -69t50 -62.5t86.5 -46t133 -18q-18 56 -59 109t-84.5 93.5t-84.5 83.5t-67.5 99t-26.5 121q0 97 51.5 171t131 110t171.5 36q131 0 201 -51t70 -135q0 -107 -56 -178t-145 -101q51 -53 78 -85t52.5 -81 t25.5 -92q0 -136 -109 -211t-307 -75q-98 0 -173.5 22t-119.5 60t-66 83t-22 95zM424 797q0 -82 96 -185q82 91 82 142q0 27 -19.5 45t-60.5 18q-15 0 -39.5 -5t-41.5 -10z" />
<glyph unicode="t" horiz-adv-x="649" d="M41 817q0 53 9.5 84t43.5 70q66 0 111 2q98 315 201 315q59 0 86.5 -42.5t46.5 -123.5l-84 -147q188 -4 202 -4t18.5 -6.5t4.5 -26.5q0 -29 -18.5 -85t-38.5 -56q-13 0 -92.5 5t-112.5 5q-19 -112 -31 -238.5t-12 -197.5q0 -142 47 -142q39 0 140.5 64t148.5 125 q45 59 73 59q29 0 29 -71q0 -86 -81 -183.5t-203 -163t-230 -65.5q-96 0 -143 111t-47 290q0 189 49 402h-92q-25 0 -25 20z" />
<glyph unicode="u" horiz-adv-x="1091" d="M41 233q0 50 14.5 95.5t50.5 113.5l60 504q33 26 86 37.5t96 11.5q35 0 57.5 -15.5t32.5 -45.5t14.5 -61.5t4.5 -75.5q0 -67 -24.5 -155.5t-48.5 -183t-24 -175.5q0 -74 93 -74q54 0 99.5 49.5t75.5 128t48.5 152.5t28.5 147q-7 50 -7 178q0 137 213 137q49 0 64.5 -31.5 t15.5 -101.5q0 -115 -44 -328t-44 -276q0 -35 23 -35q27 0 75 38.5t91 85.5t82.5 85.5t52.5 38.5q28 0 28 -71q0 -66 -40 -139.5t-102 -133.5t-145.5 -99.5t-164.5 -39.5q-132 0 -150 180q-101 -184 -297 -184q-144 0 -229.5 61t-85.5 182z" />
<glyph unicode="v" horiz-adv-x="1032" d="M72 748q0 52 3.5 85.5t16 67t35 52.5t61.5 30.5t95 11.5q48 0 75 -29.5t27 -76.5q0 -50 -14 -138.5t-35 -160.5q2 -28 3.5 -72.5t2.5 -70.5t4 -60.5t8.5 -54.5t14.5 -39.5t23 -28t34 -8.5q65 0 190 240q-24 99 -24 217q0 39 6 74t21.5 70t39.5 60.5t63.5 41.5t90.5 16 q64 0 110 -39t46 -133q0 -59 -33 -130.5t-123 -209.5q40 -109 111 -109q52 0 93.5 19.5t62 43t41 43t36.5 19.5q29 0 29 -73q0 -116 -73 -177t-183 -61q-147 0 -232 127q-237 -311 -401 -311q-50 0 -95 102t-72 238.5t-42.5 254.5t-15.5 169z" />
<glyph unicode="w" horiz-adv-x="1546" d="M72 748q0 52 3.5 85.5t16 67t35 52.5t61.5 30.5t95 11.5q48 0 75 -29.5t27 -76.5q0 -49 -14 -138t-35 -161q2 -31 3.5 -73.5t2.5 -70.5t3.5 -61t8 -53.5t14.5 -39.5t24 -27.5t36 -8.5q59 0 156 90q-72 174 -72 324q0 123 66.5 193.5t197.5 70.5q91 0 151 -52t60 -130 q0 -165 -182 -394q60 -104 123 -104q65 0 202 250q-24 93 -24 209q0 39 6 74t21.5 70t39.5 60.5t63.5 41.5t90.5 16q91 0 123.5 -44.5t32.5 -125.5q0 -61 -40 -158.5t-106 -204.5q37 -88 101 -88q52 0 93.5 19.5t62 43t41 43t36.5 19.5q29 0 29 -73q0 -116 -73 -177 t-183 -61q-130 0 -217 115q-101 -132 -202 -215.5t-173 -83.5q-34 0 -89.5 59t-107.5 152q-101 -95 -197 -153t-159 -58q-50 0 -95.5 102t-72.5 238.5t-43 254.5t-16 169zM717 651q0 -48 18 -119q68 101 68 164q0 29 -11 47.5t-32 18.5q-26 0 -34.5 -28.5t-8.5 -82.5z" />
<glyph unicode="x" horiz-adv-x="1013" d="M133 74q0 3 33.5 43t105.5 128t140 177q-28 106 -54 164.5t-63 58.5q-73 0 -110.5 41t-37.5 102q0 63 59 142.5t122 79.5q82 0 159 -81t134 -206l6 -21q150 179 196 261q12 22 43 22q29 0 63 -8.5t61.5 -29t27.5 -46.5q0 -35 -25 -68t-63 -63t-108 -98.5t-136 -151.5 q44 -133 83 -212t79 -79q27 0 75 38.5t91 85.5t82.5 85.5t52.5 38.5q29 0 29 -71q0 -66 -40 -139.5t-102.5 -133.5t-146 -99.5t-164.5 -39.5q-73 0 -133.5 58t-116.5 163q-72 -112 -117 -167.5t-77 -55.5q-52 0 -100 27t-48 55z" />
<glyph unicode="y" horiz-adv-x="1095" d="M10 -289q0 32 12 58.5t31.5 46t53.5 36.5t67 28t84.5 24t94.5 21.5t107.5 22t112.5 25.5q29 118 39 177q-101 -142 -274 -142q-143 0 -224 61t-81 183q0 50 14.5 95.5t50.5 113.5l60 485q62 49 172 49q35 0 57.5 -15.5t33 -45.5t14 -61t3.5 -76q0 -67 -24 -151t-48 -174 t-24 -171q0 -74 92 -74q73 0 116 50t75 143q31 132 84 316.5t71 228.5q23 57 80 57q55 0 106.5 -78.5t51.5 -124.5q0 -145 -176 -723q80 60 153 133.5t113 125t73 87t50 35.5q29 0 29 -71q0 -125 -146.5 -298t-351.5 -266q-17 -58 -29 -92t-32.5 -82.5t-40.5 -77t-52 -61 t-69.5 -50t-89 -29t-113.5 -11.5q-133 0 -229.5 79t-96.5 193zM199 -313q0 -40 45 -65t90 -25q99 0 174 167q-50 -10 -106 -18t-88 -12t-61 -9.5t-41.5 -14.5t-12.5 -23z" />
<glyph unicode="z" horiz-adv-x="958" d="M102 752q0 39 17 79t48 75t81.5 57t109.5 22q45 0 147 -47t161 -47q47 0 81 -2.5t74.5 -10.5t62 -26.5t21.5 -46.5q0 -35 -8.5 -76t-17.5 -65l-9 -23q-6 -12 -18 -32t-50.5 -77.5t-79.5 -109t-102.5 -112t-121.5 -101.5q87 -23 166 -23q66 0 129.5 30t109 72.5t83 85.5 t65.5 73t43 30q28 0 28 -71q0 -83 -46 -161t-124 -137t-189.5 -95t-234.5 -36q-100 0 -205.5 36.5t-105.5 86.5q0 54 14 119q26 36 98.5 94t139 107.5t119.5 110t53 108.5q0 20 -96 20q-58 0 -184 -9t-154 -9q-52 0 -78.5 31t-26.5 80z" />
<glyph unicode="{" horiz-adv-x="993" d="M-6 623q0 10 10 20.5t21 15.5q92 57 157.5 159.5t65.5 182.5q0 69 -33 232t-33 240q0 73 29.5 126t83 83t118 43.5t142.5 13.5q106 0 233 -20t127 -42q0 -36 -70.5 -66t-135.5 -30q-35 0 -108 16.5t-136 18.5q-6 -21 -6 -45q0 -71 32.5 -225.5t32.5 -233.5 q0 -107 -85.5 -248t-198.5 -235q239 -209 239 -357q0 -54 -38 -195t-38 -196q0 -88 27.5 -179t87 -159.5t135.5 -68.5q21 0 62.5 10t75.5 10q55 0 55 -31q0 -32 -59 -57.5t-123.5 -36t-108.5 -10.5q-125 0 -223.5 65t-151.5 172.5t-53 235.5q0 54 35 186t35 189 q0 45 -21 96.5t-50.5 96t-59.5 85.5t-51 78t-21 60z" />
<glyph unicode="|" horiz-adv-x="946" d="M360 1540q3 17 10.5 22t24.5 5q33 0 86 -44.5t54 -80.5q8 -183 8 -488q0 -140 -2 -411t-2 -383q0 -60 2 -155.5t2 -129.5q0 -14 -33 -14q-50 0 -96.5 48.5t-46.5 84.5z" />
<glyph unicode="}" horiz-adv-x="993" d="M55 -580q0 36 71 66.5t136 30.5q23 0 44.5 1t62 6.5t69.5 16t51.5 32t22.5 50.5q0 71 -33 167t-33 175q0 108 87.5 268t197.5 256q-46 42 -79.5 75.5t-74.5 83t-63 101t-22 99.5q0 54 37.5 184t37.5 185q0 88 -27.5 179t-87 159.5t-135.5 68.5q-22 0 -62.5 -10t-74.5 -10 q-55 0 -55 30q0 32 59 57.5t123.5 36.5t108.5 11q125 0 223.5 -65t151.5 -172.5t53 -235.5q0 -54 -35 -175t-35 -178q0 -45 21 -92t51 -85.5t59.5 -73.5t50.5 -67.5t21 -55.5q0 -19 -31 -37q-61 -32 -114.5 -116.5t-81 -169.5t-27.5 -140q0 -69 32.5 -221.5t32.5 -229.5 q0 -73 -29.5 -126t-82.5 -83t-117.5 -43.5t-142.5 -13.5q-107 0 -234 19.5t-127 41.5z" />
<glyph unicode="~" horiz-adv-x="1044" d="M102 553q28 80 89 114.5t157 34.5q62 0 178.5 -35.5t167.5 -35.5q55 0 91 16t57 58l100 -43q-28 -80 -89 -115t-157 -35q-60 0 -178.5 36t-167.5 36q-55 0 -90.5 -16t-56.5 -58z" />
<glyph unicode="&#xa1;" horiz-adv-x="1017" d="M82 -383q2 41 27.5 93t60.5 104t70 107.5t59.5 119.5t24.5 123q0 27 -10.5 95t-10.5 97q0 54 73 91.5t163 37.5q49 0 69.5 -32t20.5 -95q0 -115 -34 -267t-108 -313t-168 -253q-35 -35 -81 -35q-56 0 -106 49.5t-50 77.5zM334 756q40 105 123 173t176 68q98 0 98 -98 q0 -110 -67 -195.5t-152 -85.5q-56 0 -103 39t-75 99z" />
<glyph unicode="&#xa2;" horiz-adv-x="911" d="M41 594q0 114 33 220t90.5 187.5t131 142.5t158.5 93.5t169 32.5h8q33 135 80 295q4 16 22 16q47 0 82 -54.5t35 -105.5q0 -11 -3 -25t-11 -36.5t-13 -35.5t-19.5 -47.5t-19.5 -47.5q56 -32 89.5 -78t33.5 -88q0 -70 -29 -114t-71 -44q-28 0 -115 60q-79 -243 -133 -449 q50 13 104.5 56t91.5 86t71 77.5t48 34.5q16 0 26.5 -21t10.5 -57q0 -35 -15.5 -80t-49 -96t-79.5 -96.5t-115.5 -82t-149.5 -52.5l-70 -303q-1 -7 -8.5 -13t-15.5 -6q-48 0 -83.5 50t-35.5 112q0 53 33 154q-56 8 -105 30.5t-89.5 60t-63.5 95.5t-23 129zM342 647 q0 -82 80 -119q103 281 153 508q-22 11 -30 11q-59 0 -106.5 -62t-72 -153t-24.5 -185z" />
<glyph unicode="&#xa3;" horiz-adv-x="1431" d="M20 195q0 102 75 156.5t198 54.5q54 0 119 -7q0 164 14 293l-250 -12q-12 0 -12 18q0 55 42.5 106.5t96.5 51.5h148q61 328 209.5 510t363.5 182q324 0 324 -272q0 -74 -53 -163t-101 -89q-74 0 -74 221q0 103 -100 103q-111 0 -180 -132.5t-99 -359.5h445q24 0 24 -35 q0 -34 -51.5 -87.5t-85.5 -53.5q-182 4 -348 8q-8 -109 -8 -252v-18q-2 -34 -15 -111q6 -3 39 -20.5t42 -21t37.5 -17t43.5 -17t41.5 -11t51 -9.5t51.5 -2q47 0 101.5 43t94 94t78 94t57.5 43q31 0 31 -77q0 -49 -21.5 -105.5t-63 -110.5t-97 -98t-129.5 -71t-154 -27 q-135 0 -317 108q-127 -137 -322 -137q-122 0 -184 62.5t-62 167.5zM219 182q0 -28 21 -42.5t49 -14.5q48 0 72.5 22.5t35.5 67.5q-60 29 -104 29q-31 0 -52.5 -16.5t-21.5 -45.5z" />
<glyph unicode="&#xa4;" horiz-adv-x="1286" d="M61 70l203 202q-98 124 -98 318q0 191 98 315l-203 205l89 90l208 -209q118 76 285 76t285 -76l209 209l88 -90l-203 -205q98 -124 98 -315q0 -194 -98 -318l203 -202l-88 -90l-209 208q-116 -75 -285 -75t-285 75l-208 -208zM305 592q0 -181 86.5 -271t251.5 -90 t251.5 90t86.5 271q0 178 -86.5 267t-251.5 89t-251.5 -88.5t-86.5 -267.5z" />
<glyph unicode="&#xa5;" horiz-adv-x="1333" d="M-61 1280q0 110 102.5 183t245.5 73q59 0 105.5 -19.5t74.5 -50t46 -70t25 -75t7 -70.5q0 -196 36 -300.5t130 -164.5q62 146 166 371.5t108 233.5q65 143 172 143q16 0 42 -36.5t26 -74.5q0 -55 -41.5 -177t-118.5 -323.5t-121 -332.5h303q25 0 25 -35 q0 -34 -51.5 -87.5t-85.5 -53.5q-113 2 -244 6l-21 -76h275q24 0 24 -35q0 -34 -51.5 -87.5t-85.5 -53.5q-87 2 -198 4q-17 -112 -17 -186q0 -31 -24.5 -44.5t-57.5 -13.5q-127 0 -175 49t-48 170q0 21 2 31q-43 2 -92 2q-37 0 -149 -6t-138 -6q-12 0 -12 18 q0 55 42.5 106.5t96.5 51.5h285l26 82h-49l-286 -12q-13 0 -13 18q0 55 43 106.5t97 51.5h192q-79 43 -134 92.5t-87 99.5t-49.5 117.5t-23 131t-5.5 157.5q0 60 -20 98.5t-64 38.5q-25 0 -52.5 -16t-47.5 -35t-48 -35t-55 -16q-32 0 -32 57z" />
<glyph unicode="&#xa6;" horiz-adv-x="946" d="M410 -94v809h127v-809h-127zM410 848v799h127v-799h-127z" />
<glyph unicode="&#xa7;" horiz-adv-x="1026" d="M41 -115q0 56 104 56q29 0 133.5 -23.5t116.5 -23.5q6 0 10.5 5.5t4.5 12.5q0 67 -24 130t-58.5 113.5t-69 100.5t-58.5 111t-24 125q0 73 34 145.5t88.5 128.5t124 96t138.5 53q-3 6 -50 83t-69 131t-22 104q0 92 55.5 162.5t139 104.5t178.5 34q77 0 122.5 -34.5 t45.5 -69.5q0 -19 -34 -28t-75 -12t-75 -24t-34 -61q0 -69 20.5 -128.5t50.5 -106t59.5 -94t50 -113t20.5 -142.5q0 -153 -100 -259t-260 -153q80 -169 80 -291q0 -163 -102 -256.5t-263 -93.5q-106 0 -182 66.5t-76 150.5zM469 575q0 -35 20 -90q98 4 141.5 59.5 t43.5 129.5q0 44 -14 74t-37 30q-79 -48 -116.5 -96.5t-37.5 -106.5z" />
<glyph unicode="&#xa8;" horiz-adv-x="1024" d="M150 1315q0 91 56 162t126 71q76 0 145 -145q-32 -77 -99.5 -123.5t-146.5 -46.5q-81 0 -81 82zM559 1329q0 91 43 146t113 55q103 0 159 -68q-40 -104 -90.5 -166.5t-121.5 -62.5q-44 0 -73.5 29t-29.5 67z" />
<glyph unicode="&#xa9;" horiz-adv-x="1568" d="M82 739q0 146 63.5 266t171 197.5t246.5 119.5t293 42q152 0 324 -27q53 -8 53 -55q0 -31 -49 -65.5t-92 -34.5q-44 0 -135 13t-140 13q-88 0 -166 -17.5t-144 -55t-114 -91.5t-75 -130.5t-27 -168.5q0 -98 35.5 -191.5t96.5 -166t151.5 -116.5t193.5 -44q135 0 252.5 66 t190.5 188t73 273q0 59 -25.5 176.5t-25.5 179.5q0 86 57 86q40 0 72 -35q72 -85 98.5 -178t26.5 -205q0 -118 -29 -225t-91 -199.5t-151.5 -160t-218 -106t-282.5 -38.5q-132 0 -250.5 56.5t-201.5 151t-132 221t-49 261.5zM512 627q0 93 34 177.5t88.5 142.5t123 92 t137.5 34q48 0 71 -22.5t23 -61.5q0 -47 -18.5 -75.5t-48.5 -28.5q-16 0 -37 19.5t-39 19.5q-58 0 -96.5 -83t-38.5 -182q0 -26 12.5 -45t32 -28t36.5 -13t33 -4q36 0 77.5 27t70.5 59t55 59t35 27q10 0 17 -13.5t7 -35.5q0 -35 -22 -80t-62 -90.5t-110.5 -76.5t-155.5 -31 q-91 0 -158 54t-67 159z" />
<glyph unicode="&#xaa;" horiz-adv-x="899" d="M164 1149q0 68 23.5 138t65 129t107.5 96.5t142 37.5q36 0 73 -6q30 -8 39 -12q15 35 41 35q36 0 76.5 -39t40.5 -70q-13 -33 -49 -96q-10 -59 -10 -160q0 -26 0.5 -36.5t2.5 -28.5t8.5 -25.5t16.5 -7.5q16 0 47 18.5t50 18.5q20 0 20 -21q0 -41 -63 -100t-129 -59 q-68 0 -88 112q-73 -119 -220 -119q-87 0 -140.5 53t-53.5 142zM346 1180q0 -95 70 -95q46 0 87.5 36t63.5 108q0 125 25 239q-97 -17 -171.5 -94.5t-74.5 -193.5z" />
<glyph unicode="&#xab;" horiz-adv-x="1656" d="M205 457q0 13 31 49q61 81 137.5 158.5t167.5 148.5t192.5 114.5t192.5 43.5q55 0 55 -27q0 -18 -25 -35q-47 -32 -231.5 -193t-226.5 -216q16 -13 58 -47.5t66.5 -54.5t65.5 -54.5t67.5 -56.5t60.5 -50.5t55.5 -47.5t41.5 -37.5t29.5 -29t9.5 -13.5q0 -26 -72 -59.5 t-130 -33.5q-26 0 -48 13q-40 26 -78.5 54t-65 48t-72.5 60t-68.5 60.5t-89 80.5t-99.5 90q-24 21 -24 35zM758 518q0 19 30 49q90 85 168.5 149.5t170 126t181.5 95t171 33.5q55 0 55 -27q0 -18 -25 -35q-407 -274 -462 -346q80 -59 194.5 -172t189 -195.5t74.5 -86.5 q0 -29 -43 -61t-98 -32q-9 0 -17 2t-18 6t-12 5q-101 73 -255.5 216t-279.5 238q-24 18 -24 35z" />
<glyph unicode="&#xac;" horiz-adv-x="901" d="M82 541v118h737v-358h-127v240h-610z" />
<glyph unicode="&#xad;" horiz-adv-x="802" d="M102 541v118h598v-118h-598z" />
<glyph unicode="&#xae;" horiz-adv-x="1568" d="M82 657q0 158 63.5 292t170.5 224t247 140.5t293 50.5q86 0 211 -20t215 -48q28 -9 40.5 -21.5t12.5 -33.5q0 -31 -49 -65.5t-92 -34.5q-34 0 -87.5 16.5t-128 33.5t-161.5 17q-219 0 -372.5 -155.5t-153.5 -388.5q0 -198 133 -327.5t344 -129.5q100 0 194.5 42t165 114 t113.5 174.5t43 216.5q0 38 -36 121.5t-36 132.5q0 86 58 86q38 0 88.5 -45.5t89.5 -121.5t39 -149q0 -119 -29 -227.5t-91 -204t-151.5 -166t-218 -111t-282.5 -40.5q-178 0 -322.5 80t-227.5 224t-83 324zM485 469q0 88 39 220t88 208q33 47 78 47q15 0 24 -15.5t9 -41.5 q0 -52 -27.5 -145.5t-31.5 -137.5v-133q0 -43 -37 -74.5t-84 -31.5q-58 0 -58 104zM530 948q0 15 18 40t50 52.5t86.5 47.5t116.5 20q71 0 129 -18.5t98.5 -65t40.5 -115.5q0 -154 -133 -211q5 -11 12 -42t14 -53.5t23 -42t39 -19.5q26 0 77 55t66 55q35 0 35 -55 q0 -64 -84 -130.5t-170 -66.5q-37 0 -61.5 16.5t-38 49.5t-20.5 63.5t-14.5 78t-14.5 73.5q-26 8 -43 27t-17 45q0 24 23 39.5t57 15.5q24 0 39 -10q37 40 37 106q0 35 -28.5 57.5t-86.5 22.5q-54 0 -97 -15.5t-72.5 -30.5t-49.5 -15q-14 0 -22.5 7t-8.5 19z" />
<glyph unicode="&#xaf;" horiz-adv-x="1024" d="M25 1372q0 166 280 166q67 0 361 -3t309 -3q24 0 24 -35t-52 -94.5t-85 -59.5q-13 0 -259.5 7.5t-268.5 7.5q-79 0 -177.5 -2t-119.5 -2q-12 0 -12 18z" />
<glyph unicode="&#xb0;" horiz-adv-x="774" d="M102 918q0 125 79.5 203.5t205.5 78.5q132 0 208.5 -75t76.5 -207q0 -125 -79.5 -204t-205.5 -79q-132 0 -208.5 76t-76.5 207zM242 920q0 -82 37.5 -124t107.5 -42q67 0 106 44.5t39 121.5q0 161 -145 161q-66 0 -105.5 -43t-39.5 -118z" />
<glyph unicode="&#xb1;" horiz-adv-x="966" d="M102 0v119h762v-119h-762zM102 487v119h318v314h127v-314h317v-119h-317v-299h-127v299h-318z" />
<glyph unicode="&#xb2;" horiz-adv-x="710" d="M123 1012q0 48 34 74t89 26q51 0 84 -10q5 4 12.5 12t26.5 34.5t34 55t27 73.5t12 91q0 25 -14 38t-37 13q-26 0 -48.5 -11t-35.5 -24.5t-29.5 -24.5t-31.5 -11q-13 0 -22 11t-9 23q0 51 55 101.5t140 50.5q91 0 142.5 -40.5t51.5 -115.5q0 -80 -44.5 -168.5 t-110.5 -162.5q35 -13 63 -13q27 0 51.5 19t43 38t30.5 19q15 0 24 -14t9 -37q0 -51 -55 -97.5t-148 -46.5q-24 0 -50.5 8.5t-41.5 17.5l-15 9q-51 -45 -124 -45q-54 0 -83.5 29t-29.5 78z" />
<glyph unicode="&#xb3;" horiz-adv-x="712" d="M143 1047q0 34 37 34q21 0 64.5 -29.5t81.5 -29.5q47 0 72.5 26.5t25.5 57.5q0 47 -27 86h-22q-90 0 -90 57q0 31 26.5 44.5t55.5 13.5q14 0 26 -4q23 32 23 71q0 51 -56 51q-33 0 -74.5 -35.5t-66.5 -35.5q-13 0 -22 11t-9 21q0 52 53.5 103t139.5 51q92 0 142 -41 t50 -117q0 -67 -59 -133q76 -64 76 -153q0 -88 -78 -139.5t-170 -51.5q-80 0 -139.5 47.5t-59.5 94.5z" />
<glyph unicode="&#xb4;" horiz-adv-x="1024" d="M203 1165q0 23 30.5 39t51.5 19q42 10 78.5 33t61 46t51.5 63.5t40.5 66t37.5 74t34 67.5q11 23 51 35t86 12q40 0 68 -9t28 -24q0 -13 -33 -69q-27 -46 -41 -69t-40.5 -64t-43.5 -62.5t-45.5 -53.5t-52 -49t-56.5 -38t-65.5 -31.5t-73 -17.5t-85.5 -7q-82 0 -82 39z" />
<glyph unicode="&#xb5;" horiz-adv-x="1050" d="M-78 -371q0 86 3.5 155t16.5 187.5t47 259.5t87 295l49 420q33 26 86 37.5t96 11.5q35 0 57.5 -15.5t33 -45.5t14.5 -61.5t4 -75.5q0 -67 -24 -155.5t-48.5 -183t-24.5 -175.5q0 -74 93 -74q54 0 99.5 49.5t75.5 128t48.5 152.5t28.5 147q-7 50 -7 178q0 137 213 137 q49 0 64.5 -31.5t15.5 -101.5q0 -115 -44 -328t-44 -276q0 -35 23 -35q27 0 75 38.5t91 85.5t82.5 85.5t52.5 38.5q28 0 28 -71q0 -66 -40 -139.5t-102 -133.5t-145.5 -99.5t-164.5 -39.5q-132 0 -150 180q-101 -184 -297 -184q-25 0 -75 4q-14 -94 -35 -238 q-30 -216 -47.5 -266.5t-69.5 -50.5q-60 0 -127 84q-39 45 -39 106z" />
<glyph unicode="&#xb6;" horiz-adv-x="1050" d="M41 883q0 205 124.5 293t393.5 88q29 0 81 -2t83 -2h276v-119h-182v-1295h-127v1295h-160v-1295h-127v666q-187 24 -274.5 112t-87.5 259z" />
<glyph unicode="&#xb7;" horiz-adv-x="749" d="M205 602q0 92 39.5 135t130.5 43q94 0 132 -42t38 -136q0 -93 -40 -134.5t-130 -41.5q-91 0 -130.5 41.5t-39.5 134.5z" />
<glyph unicode="&#xb8;" horiz-adv-x="1024" d="M258 -371q0 25 41.5 44.5t83.5 19.5q37 0 55 -20t31 -55.5t27 -51.5q34 34 58 82t24 86q0 32 -17 63q-46 -12 -82 -12q-59 0 -59 25q0 8 2 12q28 71 33 180q1 25 40.5 42t82.5 17q65 0 65 -41q0 -47 -14 -122q65 0 101 -36t36 -98q0 -67 -42 -140t-116 -124t-155 -51 q-73 0 -134 56t-61 124z" />
<glyph unicode="&#xb9;" horiz-adv-x="583" d="M113 938q0 39 39 68t112 38q3 113 78 347q-76 -52 -113 -52q-28 0 -28 39q0 41 32 76t76 49q3 1 21.5 7t25.5 8.5t24.5 7t29 6.5t28 4t31.5 2q35 -40 35 -57q0 -37 -35.5 -194.5t-44.5 -242.5h82q19 0 28 -6.5t9 -25.5q0 -30 -19 -58t-49 -28q-24 0 -84 2t-74 2 q-47 0 -105.5 -9.5t-70.5 -9.5q-28 0 -28 27z" />
<glyph unicode="&#xba;" horiz-adv-x="876" d="M164 1198q0 93 40 173.5t118 131.5t178 51q67 0 124.5 -22.5t57.5 -48.5q0 -21 -94 -21q-106 0 -175 -68.5t-69 -176.5q0 -57 34 -93.5t97 -36.5q44 0 84 19q-80 61 -80 176q0 61 44.5 109.5t119.5 48.5q58 0 88.5 -36.5t30.5 -96.5q0 -56 -29 -125q32 9 62.5 40t44.5 31 q16 0 16 -45q0 -69 -44 -107t-110 -38q-28 0 -40 2q-99 -109 -232 -109q-131 0 -198.5 70t-67.5 172zM623 1294q0 -61 26 -94q27 52 27 100q0 16 -7 27.5t-20 11.5q-11 0 -18.5 -15t-7.5 -30z" />
<glyph unicode="&#xbb;" horiz-adv-x="1656" d="M205 43q0 19 24 35q409 275 463 346q-81 60 -195 172.5t-189 195.5t-75 87q0 29 43.5 60.5t98.5 31.5q9 0 17 -2t18 -6t12 -5q101 -73 255 -216t279 -238q25 -19 25 -35q0 -18 -31 -49q-90 -85 -168.5 -149.5t-170 -126t-181 -95t-170.5 -33.5q-55 0 -55 27zM758 43 q0 19 24 35q48 32 232.5 193t226.5 216q-455 369 -455 392q0 26 72.5 59t130.5 33q25 0 47 -13q40 -26 78.5 -54t65 -48t72.5 -60t68.5 -60.5t89 -80.5t99.5 -90q25 -21 25 -35q0 -13 -31 -49q-61 -81 -137.5 -158.5t-167.5 -148.5t-192.5 -114.5t-192.5 -43.5q-55 0 -55 27 z" />
<glyph unicode="&#xbc;" horiz-adv-x="1431" d="M123 938q0 39 39 68t112 38q3 113 78 347q-75 -52 -112 -52q-15 0 -22 12.5t-7 26.5q0 41 32 76t76 49q3 1 21.5 7t25.5 8.5t24.5 7t29 6.5t28 4t31.5 2q35 -40 35 -57q0 -37 -35.5 -194.5t-44.5 -242.5h82q19 0 28 -6.5t9 -25.5q0 -30 -19 -58t-49 -28q-24 0 -83.5 2 t-73.5 2q-47 0 -105.5 -9.5t-70.5 -9.5q-29 0 -29 27zM209 41q0 17 6 35l809 1446q6 16 20 16q30 0 69.5 -58.5t39.5 -109.5q0 -35 -22.5 -85t-47.5 -90t-82 -125t-90 -136q-198 -312 -362.5 -602t-212.5 -436q-4 -7 -12 -7q-41 0 -78 54t-37 98zM799 252q22 87 88 201 t102 114q14 0 23.5 -13t9.5 -34q0 -31 -11 -66.5t-29.5 -82.5t-27.5 -76l107 8q51 190 78 238q32 57 75 57q31 0 31 -37q0 -27 -4 -59.5t-8.5 -58t-13 -70t-13.5 -72.5h82q41 0 41 -35q0 -26 -25.5 -56t-52.5 -30q-38 0 -61 2q-10 -98 -10 -162q0 -40 -54 -40 q-60 0 -82 21.5t-22 78.5q0 41 12 102l-155 -14q-65 39 -80 84z" />
<glyph unicode="&#xbd;" horiz-adv-x="1427" d="M123 938q0 39 39 68t112 38q3 113 78 347q-75 -52 -112 -52q-15 0 -22 12.5t-7 26.5q0 41 32 76t76 49q3 1 21.5 7t25.5 8.5t24.5 7t29 6.5t28 4t31.5 2q35 -40 35 -57q0 -37 -35.5 -194.5t-44.5 -242.5h82q19 0 28 -6.5t9 -25.5q0 -30 -19 -58t-49 -28q-24 0 -83.5 2 t-73.5 2q-47 0 -105.5 -9.5t-70.5 -9.5q-29 0 -29 27zM209 41q0 17 6 35l809 1446q6 16 20 16q30 0 69.5 -58.5t39.5 -109.5q0 -35 -22.5 -85t-47.5 -90t-82 -125t-90 -136q-198 -312 -362.5 -602t-212.5 -436q-4 -7 -12 -7q-41 0 -78 54t-37 98zM778 80q0 48 34 74t89 26 q51 0 84 -10q5 4 12.5 12t27 34.5t34.5 55t27 73.5t12 91q0 25 -14 38t-37 13q-33 0 -59.5 -17.5t-47 -35.5t-39.5 -18q-13 0 -22 11.5t-9 23.5q0 51 55 101t140 50q91 0 143 -41t52 -115q0 -80 -45 -168.5t-111 -162.5q35 -13 63 -13q27 0 51.5 19t43 38t30.5 19 q15 0 24 -14t9 -37q0 -51 -55 -97t-148 -46q-24 0 -50.5 8.5t-41.5 17.5l-14 8q-51 -45 -125 -45q-54 0 -83.5 29t-29.5 78z" />
<glyph unicode="&#xbe;" horiz-adv-x="1431" d="M102 1047q0 34 37 34q21 0 64.5 -29.5t81.5 -29.5q47 0 72.5 26.5t25.5 57.5q0 47 -27 86h-22q-90 0 -90 57q0 31 26.5 44.5t55.5 13.5q14 0 26 -4q23 32 23 71q0 51 -56 51q-33 0 -74.5 -35.5t-66.5 -35.5q-13 0 -22 11t-9 21q0 52 53.5 103t139.5 51q92 0 142 -41 t50 -117q0 -67 -59 -133q76 -64 76 -153q0 -88 -78 -139.5t-170 -51.5q-80 0 -139.5 47.5t-59.5 94.5zM209 41q0 17 6 35l809 1446q6 16 20 16q30 0 69.5 -58.5t39.5 -109.5q0 -35 -22.5 -85t-47.5 -90t-82 -125t-90 -136q-198 -312 -362.5 -602t-212.5 -436q-4 -7 -12 -7 q-41 0 -78 54t-37 98zM799 252q22 87 88 201t102 114q14 0 23.5 -13t9.5 -34q0 -31 -11 -66.5t-29.5 -82.5t-27.5 -76l107 8q51 190 78 238q32 57 75 57q31 0 31 -37q0 -27 -4 -59.5t-8.5 -58t-13 -70t-13.5 -72.5h82q41 0 41 -35q0 -26 -25.5 -56t-52.5 -30q-38 0 -61 2 q-10 -98 -10 -162q0 -40 -54 -40q-60 0 -82 21.5t-22 78.5q0 41 12 102l-155 -14q-65 39 -80 84z" />
<glyph unicode="&#xbf;" horiz-adv-x="1171" d="M102 -135q0 124 29 215t76 142t103.5 86.5t112.5 59.5t103 50t76 69.5t29 106.5q0 12 22 12q38 0 81.5 -27.5t43.5 -68.5q0 -88 -19.5 -150t-50.5 -96.5t-69 -59.5t-76 -48t-69 -53t-50.5 -83.5t-19.5 -130.5q0 -93 52.5 -144.5t141.5 -51.5q77 0 134 20t88.5 48.5 t55.5 57t49.5 48.5t55.5 20q11 0 19 -10.5t8 -21.5q0 -55 -31 -116t-87 -116t-146.5 -91t-196.5 -36q-221 0 -343 96t-122 273zM623 772q0 90 54.5 159.5t123.5 69.5q48 0 91.5 -49t43.5 -108q0 -43 -21.5 -74.5t-58 -47.5t-74.5 -23t-80 -7q-79 0 -79 80z" />
<glyph unicode="&#xc0;" horiz-adv-x="1423" d="M-41 616q0 62 104 127.5t273 94.5q44 113 95.5 212.5t118.5 193t139.5 160t160.5 106.5t180 40q103 0 178.5 -30.5t118.5 -85.5t63.5 -123.5t20.5 -151.5q0 -108 -34 -239.5t-75.5 -230.5t-75.5 -199.5t-34 -153.5q0 -56 9 -81.5t38 -25.5q28 0 78.5 39.5t95 87.5 t85 87.5t52.5 39.5q15 0 26 -21.5t11 -55.5q0 -87 -72 -184t-183.5 -162.5t-215.5 -65.5q-114 0 -163.5 56.5t-49.5 160.5q0 141 92 426q-375 12 -411 12h-29q-37 -220 -37 -477q0 -111 -84 -152q-3 -2 -18.5 -9.5t-19.5 -9.5t-17.5 -8t-19.5 -8l-18 -6t-20 -5.5t-18 -3 t-20 -1.5q-50 0 -76.5 52t-26.5 147q0 175 84 459q-39 -5 -104 -14t-104.5 -13t-69.5 -4q-27 0 -27 20zM399 1997q0 31 62 53.5t117 22.5q51 0 75 -31q74 -101 174.5 -161t243.5 -101q41 -11 41 -29q0 -21 -60 -36t-112 -15q-49 0 -116 11t-142 36t-137.5 58.5t-104 84 t-41.5 107.5zM600 854l465 -6q51 169 51 239q0 86 -32.5 135.5t-92.5 49.5q-269 0 -391 -418z" />
<glyph unicode="&#xc1;" horiz-adv-x="1423" d="M-41 616q0 62 104 127.5t273 94.5q44 113 95.5 212.5t118.5 193t139.5 160t160.5 106.5t180 40q103 0 178.5 -30.5t118.5 -85.5t63.5 -123.5t20.5 -151.5q0 -108 -34 -239.5t-75.5 -230.5t-75.5 -199.5t-34 -153.5q0 -56 9 -81.5t38 -25.5q28 0 78.5 39.5t95 87.5 t85 87.5t52.5 39.5q15 0 26 -21.5t11 -55.5q0 -87 -72 -184t-183.5 -162.5t-215.5 -65.5q-114 0 -163.5 56.5t-49.5 160.5q0 141 92 426q-375 12 -411 12h-29q-37 -220 -37 -477q0 -111 -84 -152q-3 -2 -18.5 -9.5t-19.5 -9.5t-17.5 -8t-19.5 -8l-18 -6t-20 -5.5t-18 -3 t-20 -1.5q-50 0 -76.5 52t-26.5 147q0 175 84 459q-39 -5 -104 -14t-104.5 -13t-69.5 -4q-27 0 -27 20zM600 854l465 -6q51 169 51 239q0 86 -32.5 135.5t-92.5 49.5q-269 0 -391 -418zM987 1729q0 10 6.5 18.5t18.5 15t20.5 10.5t22 8.5t14.5 4.5q130 43 205.5 94 t138.5 145q14 22 53.5 35t83.5 13q40 0 69.5 -9.5t29.5 -23.5q0 -8 -10 -30t-23 -40q-80 -104 -150.5 -161.5t-166 -88t-230.5 -30.5q-82 0 -82 39z" />
<glyph unicode="&#xc2;" horiz-adv-x="1423" d="M-41 616q0 62 104 127.5t273 94.5q44 113 95.5 212.5t118.5 193t139.5 160t160.5 106.5t180 40q103 0 178.5 -30.5t118.5 -85.5t63.5 -123.5t20.5 -151.5q0 -108 -34 -239.5t-75.5 -230.5t-75.5 -199.5t-34 -153.5q0 -56 9 -81.5t38 -25.5q28 0 78.5 39.5t95 87.5 t85 87.5t52.5 39.5q15 0 26 -21.5t11 -55.5q0 -87 -72 -184t-183.5 -162.5t-215.5 -65.5q-114 0 -163.5 56.5t-49.5 160.5q0 141 92 426q-375 12 -411 12h-29q-37 -220 -37 -477q0 -111 -84 -152q-3 -2 -18.5 -9.5t-19.5 -9.5t-17.5 -8t-19.5 -8l-18 -6t-20 -5.5t-18 -3 t-20 -1.5q-50 0 -76.5 52t-26.5 147q0 175 84 459q-39 -5 -104 -14t-104.5 -13t-69.5 -4q-27 0 -27 20zM600 854l465 -6q51 169 51 239q0 86 -32.5 135.5t-92.5 49.5q-269 0 -391 -418zM633 1761q0 24 26 47q45 39 88 72.5t101.5 77t93.5 70.5q85 65 176 65q36 0 58 -14 q143 -83 212.5 -135.5t161.5 -155.5q13 -13 13 -25q0 -36 -66 -69t-131 -33q-46 0 -68 22q-82 81 -136.5 127t-125.5 93q-104 -84 -162 -134q-59 -53 -155 -53q-86 0 -86 45z" />
<glyph unicode="&#xc3;" horiz-adv-x="1423" d="M-41 616q0 62 104 127.5t273 94.5q44 113 95.5 212.5t118.5 193t139.5 160t160.5 106.5t180 40q103 0 178.5 -30.5t118.5 -85.5t63.5 -123.5t20.5 -151.5q0 -108 -34 -239.5t-75.5 -230.5t-75.5 -199.5t-34 -153.5q0 -56 9 -81.5t38 -25.5q28 0 78.5 39.5t95 87.5 t85 87.5t52.5 39.5q15 0 26 -21.5t11 -55.5q0 -87 -72 -184t-183.5 -162.5t-215.5 -65.5q-114 0 -163.5 56.5t-49.5 160.5q0 141 92 426q-375 12 -411 12h-29q-37 -220 -37 -477q0 -111 -84 -152q-3 -2 -18.5 -9.5t-19.5 -9.5t-17.5 -8t-19.5 -8l-18 -6t-20 -5.5t-18 -3 t-20 -1.5q-50 0 -76.5 52t-26.5 147q0 175 84 459q-39 -5 -104 -14t-104.5 -13t-69.5 -4q-27 0 -27 20zM578 1843q-2 29 36 78q81 99 174.5 146t172.5 47q46 0 91 -23t81 -56t70.5 -66t72 -56t72.5 -23q15 0 33 13t34.5 28t48 28t70.5 13q68 0 68 -37q0 -11 -7 -16 q-97 -201 -309 -201q-47 0 -91.5 21.5t-80 52t-70 60.5t-75 51.5t-80.5 21.5q-38 0 -76 -67q-18 -29 -80.5 -44.5t-114.5 -15.5q-21 0 -30.5 14t-9.5 31zM600 854l465 -6q51 169 51 239q0 86 -32.5 135.5t-92.5 49.5q-269 0 -391 -418z" />
<glyph unicode="&#xc4;" horiz-adv-x="1423" d="M-41 616q0 62 104 127.5t273 94.5q44 113 95.5 212.5t118.5 193t139.5 160t160.5 106.5t180 40q103 0 178.5 -30.5t118.5 -85.5t63.5 -123.5t20.5 -151.5q0 -108 -34 -239.5t-75.5 -230.5t-75.5 -199.5t-34 -153.5q0 -56 9 -81.5t38 -25.5q28 0 78.5 39.5t95 87.5 t85 87.5t52.5 39.5q15 0 26 -21.5t11 -55.5q0 -87 -72 -184t-183.5 -162.5t-215.5 -65.5q-114 0 -163.5 56.5t-49.5 160.5q0 141 92 426q-375 12 -411 12h-29q-37 -220 -37 -477q0 -111 -84 -152q-3 -2 -18.5 -9.5t-19.5 -9.5t-17.5 -8t-19.5 -8l-18 -6t-20 -5.5t-18 -3 t-20 -1.5q-50 0 -76.5 52t-26.5 147q0 175 84 459q-39 -5 -104 -14t-104.5 -13t-69.5 -4q-27 0 -27 20zM600 854l465 -6q51 169 51 239q0 86 -32.5 135.5t-92.5 49.5q-269 0 -391 -418zM690 1817q0 91 56 162t126 71q77 0 146 -145q-32 -77 -99.5 -123.5t-146.5 -46.5 q-82 0 -82 82zM1100 1831q0 92 42.5 146.5t112.5 54.5q104 0 160 -68q-88 -229 -213 -229q-44 0 -73 29t-29 67z" />
<glyph unicode="&#xc5;" horiz-adv-x="1423" d="M-41 616q0 62 104 127.5t273 94.5q44 114 96.5 214t116 191.5t140.5 160.5t159 105q-92 79 -92 199q0 102 75.5 164.5t184.5 62.5h22q21 7 37 7q63 0 136 -39t124 -102t51 -124q0 -108 -133 -180q158 -98 158 -338q0 -108 -34 -239.5t-75.5 -230.5t-75.5 -199.5 t-34 -153.5q0 -56 9 -81.5t38 -25.5q28 0 78.5 39.5t95 87.5t85 87.5t52.5 39.5q15 0 26 -21.5t11 -55.5q0 -87 -72 -184t-183.5 -162.5t-215.5 -65.5q-114 0 -163.5 56.5t-49.5 160.5q0 141 92 426q-375 12 -411 12h-29q-37 -220 -37 -477q0 -111 -84 -152 q-3 -2 -18.5 -9.5t-19.5 -9.5t-17.5 -8t-19.5 -8l-18 -6t-20 -5.5t-18 -3t-20 -1.5q-50 0 -76.5 52t-26.5 147q0 175 84 459q-39 -5 -104 -14t-104.5 -13t-69.5 -4q-27 0 -27 20zM600 854l465 -6q51 169 51 239q0 86 -32.5 135.5t-92.5 49.5q-269 0 -391 -418zM956 1739 q0 -63 39.5 -110.5t104.5 -47.5q36 0 61 18.5t25 55.5q0 39 -38 76.5t-87 58.5q-8 -2 -25 -2q-38 0 -65 8q-15 -24 -15 -57z" />
<glyph unicode="&#xc6;" horiz-adv-x="2068" d="M-41 616q0 62 104 127.5t273 94.5q44 113 95.5 212.5t118.5 193t139.5 160t160.5 106.5t180 40q73 0 135 -16q144 -1 496 -5.5t393 -4.5q55 0 55 -43q0 -7 -7.5 -25t-19 -43t-16.5 -39q-18 -43 -43.5 -61.5t-72.5 -18.5q-133 0 -555 4q16 -69 16 -139q0 -138 -53 -309 q106 -1 256 0q149 2 189 -4t40 -37q0 -7 -7.5 -24t-18 -39t-15.5 -35q-18 -41 -42.5 -58.5t-69.5 -17.5q-11 0 -64 0.5t-158.5 1.5t-185.5 2l-20 -55q-56 -201 -66 -383q250 12 410 12q87 0 152.5 13.5t101 32.5t61 38.5t49 33t49.5 13.5q15 0 26 -22t11 -56 q0 -81 -41.5 -138t-120.5 -89.5t-179.5 -47t-231.5 -14.5q-25 0 -163 8.5t-194 10.5q-61 -27 -170 -27q-17 0 -29 5.5t-19.5 19.5t-11.5 27t-6 40.5t-2.5 47.5t-0.5 59q0 165 106 457l6 18q-307 6 -415 6h-29q-37 -220 -37 -477q0 -111 -84 -152q-3 -2 -18.5 -9.5 t-19.5 -9.5t-17.5 -8t-19.5 -8l-18 -6t-20 -5.5t-18 -3t-20 -1.5q-50 0 -76.5 52t-26.5 147q0 175 84 459q-39 -5 -104 -14t-104.5 -13t-69.5 -4q-27 0 -27 20zM600 854q47 0 205 -1t260 -1q51 165 51 235q0 86 -32.5 135.5t-92.5 49.5q-269 0 -391 -418z" />
<glyph unicode="&#xc7;" horiz-adv-x="1124" d="M123 510q0 197 67.5 395t190.5 350q-45 55 -73.5 116t-28.5 102q0 19 12 32t28 13q22 0 51 -25t65.5 -62t64.5 -55q203 172 452 172q314 0 314 -252q0 -110 -97 -183t-258 -73q-154 0 -321 66q-69 -114 -107.5 -254.5t-38.5 -263.5q0 -182 74.5 -278.5t224.5 -96.5 q118 0 240.5 55.5t200.5 155.5q45 59 73 59q31 0 31 -77q0 -115 -69.5 -206.5t-179 -143.5t-240.5 -66q-3 -39 -13 -92q65 0 101.5 -36t36.5 -98q0 -67 -42 -140t-116.5 -124t-155.5 -51q-73 0 -133.5 55.5t-60.5 124.5q0 25 41.5 44.5t83.5 19.5q37 0 55 -20t30.5 -55.5 t26.5 -51.5q34 34 58 82t24 86q0 34 -16 63q-46 -12 -82 -12q-59 0 -59 25q0 8 2 12q26 66 30 168q-232 23 -359.5 159.5t-127.5 360.5zM688 1233q106 -35 240 -35q110 0 110 68q0 80 -100 80q-137 0 -250 -113z" />
<glyph unicode="&#xc8;" horiz-adv-x="1083" d="M82 414q0 293 293 409q-150 105 -150 316q0 100 56 186q-51 57 -83 121t-32 108q0 19 12.5 32t28.5 13q22 0 53.5 -28.5t71.5 -69.5t69 -59q176 106 416 106q53 0 99.5 -7t91 -25t76 -46t50.5 -72.5t19 -101.5q0 -110 -96.5 -183t-257.5 -73q-78 0 -142.5 25t-132.5 74 q-2 -10 -2 -33q0 -124 82 -199q30 6 68 6t66.5 -3.5t54.5 -12.5t40.5 -26.5t16.5 -43.5v-4q0 -31 -19.5 -52.5t-52 -32t-65 -15t-68.5 -4.5q-45 0 -98 16q-61 -42 -92 -105t-31 -163q0 -123 87.5 -180.5t244.5 -57.5q73 0 142.5 26t119 63.5t89 75t66.5 63.5t37 26 q15 0 26 -21.5t11 -55.5q0 -109 -83 -204t-225 -151.5t-306 -56.5q-122 0 -220.5 24t-173.5 73.5t-116 131.5t-41 191zM158 1997q0 31 61.5 53.5t116.5 22.5q52 0 76 -31q74 -101 174.5 -161t242.5 -101q41 -11 41 -29q0 -21 -60 -36t-112 -15q-64 0 -151 19t-176.5 53.5 t-151 94t-61.5 130.5zM584 1266q110 -68 231 -68q111 0 111 68q0 39 -34.5 59.5t-88.5 20.5q-139 0 -219 -80z" />
<glyph unicode="&#xc9;" horiz-adv-x="1083" d="M82 414q0 293 293 409q-150 105 -150 316q0 100 56 186q-51 57 -83 121t-32 108q0 19 12.5 32t28.5 13q22 0 53.5 -28.5t71.5 -69.5t69 -59q176 106 416 106q53 0 99.5 -7t91 -25t76 -46t50.5 -72.5t19 -101.5q0 -110 -96.5 -183t-257.5 -73q-78 0 -142.5 25t-132.5 74 q-2 -10 -2 -33q0 -124 82 -199q30 6 68 6q52 0 88 -6t63 -27t27 -57q0 -31 -19.5 -52.5t-52 -32t-65 -15t-68.5 -4.5q-45 0 -98 16q-61 -42 -92 -105t-31 -163q0 -123 87.5 -180.5t244.5 -57.5q73 0 142.5 26t119 63.5t89 75t66.5 63.5t37 26q15 0 26 -21.5t11 -55.5 q0 -109 -83 -204t-225 -151.5t-306 -56.5q-122 0 -220.5 24t-173.5 73.5t-116 131.5t-41 191zM584 1266q110 -68 231 -68q111 0 111 68q0 39 -34.5 59.5t-88.5 20.5q-139 0 -219 -80zM745 1729q0 10 6.5 18.5t18.5 15t20.5 10.5t22 8.5t14.5 4.5q130 43 205.5 94t138.5 145 q14 22 54 35t84 13q40 0 69 -9t29 -24q0 -8 -10 -30t-23 -40q-80 -104 -150.5 -161.5t-166 -88t-230.5 -30.5q-82 0 -82 39z" />
<glyph unicode="&#xca;" horiz-adv-x="1083" d="M82 414q0 293 293 409q-150 105 -150 316q0 100 56 186q-51 57 -83 121t-32 108q0 19 12.5 32t28.5 13q22 0 53.5 -28.5t71.5 -69.5t69 -59q176 106 416 106q53 0 99.5 -7t91 -25t76 -46t50.5 -72.5t19 -101.5q0 -110 -96.5 -183t-257.5 -73q-78 0 -142.5 25t-132.5 74 q-2 -10 -2 -33q0 -124 82 -199q30 6 68 6q52 0 88 -6t63 -27t27 -57q0 -31 -19.5 -52.5t-52 -32t-65 -15t-68.5 -4.5q-45 0 -98 16q-61 -42 -92 -105t-31 -163q0 -123 87.5 -180.5t244.5 -57.5q73 0 142.5 26t119 63.5t89 75t66.5 63.5t37 26q15 0 26 -21.5t11 -55.5 q0 -109 -83 -204t-225 -151.5t-306 -56.5q-122 0 -220.5 24t-173.5 73.5t-116 131.5t-41 191zM391 1761q0 23 27 47q45 39 87 72t102 78t93 70q85 65 177 65q35 0 57 -14q144 -84 213.5 -136t161.5 -155q12 -12 12 -25q0 -36 -66 -69t-131 -33q-45 0 -67 22 q-82 81 -136.5 127t-125.5 93q-104 -84 -162 -134q-59 -53 -156 -53q-86 0 -86 45zM584 1266q110 -68 231 -68q111 0 111 68q0 39 -34.5 59.5t-88.5 20.5q-139 0 -219 -80z" />
<glyph unicode="&#xcb;" horiz-adv-x="1083" d="M82 414q0 293 293 409q-150 105 -150 316q0 100 56 186q-51 57 -83 121t-32 108q0 19 12.5 32t28.5 13q22 0 53.5 -28.5t71.5 -69.5t69 -59q176 106 416 106q53 0 99.5 -7t91 -25t76 -46t50.5 -72.5t19 -101.5q0 -110 -96.5 -183t-257.5 -73q-78 0 -142.5 25t-132.5 74 q-2 -10 -2 -33q0 -124 82 -199q30 6 68 6q52 0 88 -6t63 -27t27 -57q0 -31 -19.5 -52.5t-52 -32t-65 -15t-68.5 -4.5q-45 0 -98 16q-61 -42 -92 -105t-31 -163q0 -123 87.5 -180.5t244.5 -57.5q73 0 142.5 26t119 63.5t89 75t66.5 63.5t37 26q15 0 26 -21.5t11 -55.5 q0 -109 -83 -204t-225 -151.5t-306 -56.5q-122 0 -220.5 24t-173.5 73.5t-116 131.5t-41 191zM449 1817q0 91 56 162t126 71q76 0 145 -145q-32 -77 -99.5 -123.5t-146.5 -46.5q-81 0 -81 82zM584 1266q110 -68 231 -68q111 0 111 68q0 39 -34.5 59.5t-88.5 20.5 q-139 0 -219 -80zM858 1831q0 91 43 146t113 55q104 0 160 -68q-88 -229 -213 -229q-44 0 -73.5 29t-29.5 67z" />
<glyph unicode="&#xcc;" horiz-adv-x="671" d="M-35 1997q0 31 61.5 53.5t116.5 22.5q52 0 76 -31q74 -101 174.5 -161t243.5 -101q41 -11 41 -29q0 -21 -60 -36t-112 -15q-49 0 -116 11t-142 36t-137.5 58.5t-104 84t-41.5 107.5zM133 209q0 186 101.5 594.5t187.5 597.5q65 143 172 143q27 0 47.5 -34t20.5 -76 q0 -63 -35 -235t-77 -355.5t-77 -410.5t-35 -386q0 -31 -24.5 -44t-57.5 -13q-127 0 -175 49t-48 170z" />
<glyph unicode="&#xcd;" horiz-adv-x="671" d="M133 209q0 186 101.5 594.5t187.5 597.5q65 143 172 143q27 0 47.5 -34t20.5 -76q0 -63 -35 -235t-77 -355.5t-77 -410.5t-35 -386q0 -31 -24.5 -44t-57.5 -13q-127 0 -175 49t-48 170zM553 1729q0 10 6.5 18.5t18.5 15t20.5 10.5t22 8.5t14.5 4.5q130 43 205.5 94 t138.5 145q14 22 53.5 35t83.5 13q40 0 69 -9t29 -24q0 -8 -9.5 -30t-22.5 -40q-80 -104 -150.5 -161.5t-166 -88t-230.5 -30.5q-82 0 -82 39z" />
<glyph unicode="&#xce;" horiz-adv-x="671" d="M133 209q0 186 101.5 594.5t187.5 597.5q65 143 172 143q27 0 47.5 -34t20.5 -76q0 -63 -35 -235t-77 -355.5t-77 -410.5t-35 -386q0 -31 -24.5 -44t-57.5 -13q-127 0 -175 49t-48 170zM199 1761q0 24 26 47q45 39 88 72.5t101.5 77t93.5 70.5q85 65 176 65q35 0 57 -14 q144 -84 213.5 -136t161.5 -155q12 -12 12 -25q0 -36 -65.5 -69t-130.5 -33q-46 0 -68 22q-82 81 -136.5 127t-125.5 93q-104 -84 -162 -134q-59 -53 -155 -53q-86 0 -86 45z" />
<glyph unicode="&#xcf;" horiz-adv-x="671" d="M133 209q0 186 101.5 594.5t187.5 597.5q65 143 172 143q27 0 47.5 -34t20.5 -76q0 -63 -35 -235t-77 -355.5t-77 -410.5t-35 -386q0 -31 -24.5 -44t-57.5 -13q-127 0 -175 49t-48 170zM256 1817q0 91 56 162t126 71q77 0 146 -145q-32 -77 -99.5 -123.5t-146.5 -46.5 q-82 0 -82 82zM666 1831q0 92 42.5 146.5t112.5 54.5q104 0 160 -68q-88 -229 -213 -229q-44 0 -73 29t-29 67z" />
<glyph unicode="&#xd0;" horiz-adv-x="1525" d="M-20 354q0 10 9 17.5t23 7.5q37 0 203 -45q18 151 66 315q-62 0 -149.5 -1t-96.5 -1q-12 0 -12 19q0 165 280 165h37q62 165 94 232q65 143 152 143q17 0 32 -34.5t15 -75.5q0 -71 -45 -267q300 -4 327 -4q25 0 25 -34q0 -35 -52 -94.5t-85 -59.5q-4 0 -256 12 q-47 -218 -64 -383q140 -30 236 -30q103 0 192 53t148 140.5t92 199t33 229.5q0 111 -20 196t-53.5 139t-82.5 87.5t-102 47t-117 13.5q-92 0 -213 -35.5t-221.5 -70.5t-143.5 -35q-57 0 -57 29q0 38 58.5 92t147 103t206 83.5t223.5 34.5t201.5 -22t185.5 -74t155 -131 t104.5 -202t39.5 -277q0 -129 -30.5 -250.5t-96 -231.5t-159.5 -192t-230 -130t-299 -48q-94 0 -213 36q-13 -38 -78 -38q-103 0 -140 34.5t-42 118.5q-101 57 -164 116.5t-63 102.5z" />
<glyph unicode="&#xd1;" horiz-adv-x="1415" d="M0 1280q0 110 102.5 183t245.5 73q60 0 103 -17.5t67.5 -45t38.5 -71.5t18.5 -87t4.5 -101v-14q81 158 192.5 249t249.5 91q103 0 178.5 -30.5t118.5 -85.5t63.5 -123.5t20.5 -151.5q0 -88 -22.5 -189.5t-54.5 -189t-64.5 -168t-55 -151.5t-22.5 -115q0 -107 47 -107 q35 0 109.5 63t127.5 132q47 59 74 59q15 0 26 -21.5t11 -55.5q0 -87 -72 -184t-183.5 -162.5t-215.5 -65.5q-114 0 -163.5 56.5t-49.5 160.5q0 87 33.5 217.5t73 242t73 228t33.5 178.5q0 86 -32.5 135.5t-92.5 49.5q-78 0 -153 -62.5t-132 -156.5t-105.5 -210.5 t-77.5 -219.5t-44 -187q2 -12 13 -64t14 -71.5t7.5 -55t4.5 -63.5q0 -111 -84 -152q-2 -1 -16.5 -8t-17.5 -8.5t-16 -7.5t-17.5 -7.5t-15.5 -6t-17.5 -6t-16 -4t-18 -3t-17.5 -0.5q-50 0 -76 52t-26 147q0 124 36.5 354t73.5 419.5t37 217.5q0 73 -19.5 119.5t-63.5 46.5 q-38 0 -100 -51t-103 -51q-33 0 -33 57zM563 1843q-2 28 37 78q81 99 174.5 146t171.5 47q46 0 91 -23t81 -56t70.5 -66t72 -56t72.5 -23q15 0 33 13t34.5 28t48.5 28t71 13q67 0 67 -37q0 -12 -6 -16q-97 -201 -309 -201q-47 0 -91.5 21.5t-80.5 52t-70.5 60.5t-75 51.5 t-80.5 21.5q-37 0 -75 -67q-18 -29 -80.5 -44.5t-114.5 -15.5q-21 0 -31 14t-10 31z" />
<glyph unicode="&#xd2;" horiz-adv-x="1738" d="M143 612q0 144 37 280.5t109 254t171.5 206t232 139t282.5 50.5q194 0 323 -67.5t129 -143.5q0 -22 -61 -22q-10 0 -144 18.5t-264 18.5q-112 0 -207.5 -60t-156.5 -155.5t-95 -210.5t-34 -230q0 -203 94.5 -318.5t261.5 -115.5q206 0 343 96.5t202 263.5 q-149 19 -229 112.5t-80 246.5q0 116 76.5 197t195.5 81q134 0 203.5 -96.5t69.5 -245.5q0 -19 -5 -96q18 7 41 21.5t42 23t40 8.5q12 0 20.5 -10t8.5 -24q0 -70 -47.5 -123t-128.5 -80q-63 -300 -262.5 -473.5t-509.5 -173.5q-135 0 -246 34.5t-186.5 93.5t-127 140 t-75 171t-23.5 189zM395 1997q0 31 61.5 53.5t116.5 22.5q52 0 76 -31q74 -101 174.5 -161t243.5 -101q41 -11 41 -29q0 -21 -60 -36t-112 -15q-49 0 -116 11t-142 36t-137.5 58.5t-104 84t-41.5 107.5zM1319 993q0 -55 26.5 -98.5t71.5 -69.5q6 55 6 115q0 133 -61 133 q-21 0 -32 -23t-11 -57z" />
<glyph unicode="&#xd3;" horiz-adv-x="1738" d="M143 612q0 144 37 280.5t109 254t171.5 206t232 139t282.5 50.5q194 0 323 -67.5t129 -143.5q0 -22 -61 -22q-10 0 -144 18.5t-264 18.5q-112 0 -207.5 -60t-156.5 -155.5t-95 -210.5t-34 -230q0 -203 94.5 -318.5t261.5 -115.5q206 0 343 96.5t202 263.5 q-149 19 -229 112.5t-80 246.5q0 116 76.5 197t195.5 81q134 0 203.5 -96.5t69.5 -245.5q0 -19 -5 -96q18 7 41 21.5t42 23t40 8.5q12 0 20.5 -10t8.5 -24q0 -70 -47.5 -123t-128.5 -80q-63 -300 -262.5 -473.5t-509.5 -173.5q-135 0 -246 34.5t-186.5 93.5t-127 140 t-75 171t-23.5 189zM983 1729q0 10 6.5 18.5t18.5 15t20.5 10.5t22 8.5t14.5 4.5q130 43 205.5 94t138.5 145q14 22 53.5 35t83.5 13q40 0 69.5 -9.5t29.5 -23.5q0 -8 -10 -30t-23 -40q-80 -104 -150.5 -161.5t-166 -88t-230.5 -30.5q-82 0 -82 39zM1319 993 q0 -55 26.5 -98.5t71.5 -69.5q6 55 6 115q0 133 -61 133q-21 0 -32 -23t-11 -57z" />
<glyph unicode="&#xd4;" horiz-adv-x="1738" d="M143 612q0 144 37 280.5t109 254t171.5 206t232 139t282.5 50.5q194 0 323 -67.5t129 -143.5q0 -22 -61 -22q-10 0 -144 18.5t-264 18.5q-112 0 -207.5 -60t-156.5 -155.5t-95 -210.5t-34 -230q0 -203 94.5 -318.5t261.5 -115.5q206 0 343 96.5t202 263.5 q-149 19 -229 112.5t-80 246.5q0 116 76.5 197t195.5 81q134 0 203.5 -96.5t69.5 -245.5q0 -19 -5 -96q18 7 41 21.5t42 23t40 8.5q12 0 20.5 -10t8.5 -24q0 -70 -47.5 -123t-128.5 -80q-63 -300 -262.5 -473.5t-509.5 -173.5q-135 0 -246 34.5t-186.5 93.5t-127 140 t-75 171t-23.5 189zM629 1761q0 24 26 47q45 39 88 72.5t101.5 77t93.5 70.5q85 65 176 65q35 0 57 -14q144 -84 213.5 -136t161.5 -155q13 -13 13 -25q0 -36 -66 -69t-131 -33q-46 0 -68 22q-82 81 -136.5 127t-125.5 93q-104 -84 -162 -134q-59 -53 -155 -53q-86 0 -86 45 zM1319 993q0 -55 26.5 -98.5t71.5 -69.5q6 55 6 115q0 133 -61 133q-21 0 -32 -23t-11 -57z" />
<glyph unicode="&#xd5;" horiz-adv-x="1738" d="M143 612q0 144 37 280.5t109 254t171.5 206t232 139t282.5 50.5q194 0 323 -67.5t129 -143.5q0 -22 -61 -22q-10 0 -144 18.5t-264 18.5q-112 0 -207.5 -60t-156.5 -155.5t-95 -210.5t-34 -230q0 -203 94.5 -318.5t261.5 -115.5q206 0 343 96.5t202 263.5 q-149 19 -229 112.5t-80 246.5q0 116 76.5 197t195.5 81q134 0 203.5 -96.5t69.5 -245.5q0 -19 -5 -96q18 7 41 21.5t42 23t40 8.5q12 0 20.5 -10t8.5 -24q0 -70 -47.5 -123t-128.5 -80q-63 -300 -262.5 -473.5t-509.5 -173.5q-135 0 -246 34.5t-186.5 93.5t-127 140 t-75 171t-23.5 189zM573 1843q-2 28 37 78q81 99 174.5 146t171.5 47q46 0 91 -23t81 -56t70.5 -66t72 -56t72.5 -23q15 0 33 13t34.5 28t48.5 28t71 13q67 0 67 -37q0 -12 -6 -16q-97 -201 -309 -201q-47 0 -91.5 21.5t-80 52t-70 60.5t-75 51.5t-80.5 21.5q-38 0 -76 -67 q-18 -29 -80.5 -44.5t-114.5 -15.5q-21 0 -31 14t-10 31zM1319 993q0 -55 26.5 -98.5t71.5 -69.5q6 55 6 115q0 133 -61 133q-21 0 -32 -23t-11 -57z" />
<glyph unicode="&#xd6;" horiz-adv-x="1738" d="M143 612q0 144 37 280.5t109 254t171.5 206t232 139t282.5 50.5q194 0 323 -67.5t129 -143.5q0 -22 -61 -22q-10 0 -144 18.5t-264 18.5q-112 0 -207.5 -60t-156.5 -155.5t-95 -210.5t-34 -230q0 -203 94.5 -318.5t261.5 -115.5q206 0 343 96.5t202 263.5 q-149 19 -229 112.5t-80 246.5q0 116 76.5 197t195.5 81q134 0 203.5 -96.5t69.5 -245.5q0 -19 -5 -96q18 7 41 21.5t42 23t40 8.5q12 0 20.5 -10t8.5 -24q0 -70 -47.5 -123t-128.5 -80q-63 -300 -262.5 -473.5t-509.5 -173.5q-135 0 -246 34.5t-186.5 93.5t-127 140 t-75 171t-23.5 189zM686 1817q0 91 56 162t126 71q77 0 146 -145q-32 -77 -99.5 -123.5t-146.5 -46.5q-82 0 -82 82zM1096 1831q0 92 42.5 146.5t112.5 54.5q104 0 160 -68q-88 -229 -213 -229q-44 0 -73 29t-29 67zM1319 993q0 -55 26.5 -98.5t71.5 -69.5q6 55 6 115 q0 133 -61 133q-21 0 -32 -23t-11 -57z" />
<glyph unicode="&#xd7;" horiz-adv-x="1028" d="M123 238l305 305l-291 293l88 88l291 -293l291 293l84 -84l-291 -291l305 -305l-88 -88l-305 305l-305 -307z" />
<glyph unicode="&#xd8;" horiz-adv-x="1734" d="M41 18q0 48 22 76q74 70 168 166q-92 152 -92 352q0 144 37 280.5t109 254t171.5 206t232 139t282.5 50.5q171 0 338 -80l121 133q7 11 16 11q26 0 38.5 -37.5t12.5 -77.5q0 -29 -1.5 -40t-11.5 -33t-34 -52q78 -75 78 -149q0 -37 -49 -37q-7 0 -16 3t-23 11t-25 14 t-32 19t-33 20l-60 -65q-67 -74 -753 -787q94 -139 280 -139q219 0 359.5 109t201.5 294q-49 37 -77.5 96.5t-28.5 135.5q0 70 48 125t112 55q165 0 165 -201q0 -37 -2 -55q17 7 40 21.5t41.5 23t39.5 8.5q12 0 20.5 -10t8.5 -24q0 -86 -46.5 -145.5t-125.5 -72.5 q-61 -294 -261.5 -463t-514.5 -169q-294 0 -467 157q-177 -239 -230 -239q-33 0 -46 37t-13 79zM461 690q0 -90 18 -164l35 41q15 17 670 754q-6 0 -8 2q-105 23 -222 23q-112 0 -207.5 -60t-156.5 -155.5t-95 -210.5t-34 -230z" />
<glyph unicode="&#xd9;" horiz-adv-x="1415" d="M0 1280q0 110 102.5 183t245.5 73q59 0 105.5 -21.5t74.5 -54.5t46 -77t25 -83.5t7 -78.5q0 -84 -22 -194.5t-48.5 -203t-48.5 -212.5t-22 -220q0 -58 33.5 -97.5t109.5 -39.5q62 0 117 33.5t95.5 87.5t74.5 127t56 147.5t36 153.5l12 92q0 41 -4 224t-4 204 q0 64 42.5 115t99.5 75.5t112 24.5q34 0 46 -50t12 -157q0 -46 -52.5 -401.5t-52.5 -513.5q0 -187 51 -187q27 0 75 38.5t91 85.5t82.5 85.5t52.5 38.5q29 0 29 -71q0 -66 -40 -139.5t-102.5 -133.5t-146 -99.5t-164.5 -39.5q-42 0 -72.5 16t-48.5 41.5t-28.5 68.5t-14 86 t-4.5 105q-137 -317 -407 -317q-188 0 -292.5 94t-104.5 285q0 44 41 204t82.5 333.5t41.5 248.5q0 73 -19.5 119.5t-63.5 46.5q-38 0 -100 -51t-103 -51q-33 0 -33 57zM178 1997q0 31 61.5 53.5t116.5 22.5q52 0 76 -31q74 -101 174.5 -161t243.5 -101q41 -11 41 -29 q0 -21 -60 -36t-112 -15q-49 0 -116 11t-142 36t-137.5 58.5t-104 84t-41.5 107.5z" />
<glyph unicode="&#xda;" horiz-adv-x="1415" d="M0 1280q0 110 102.5 183t245.5 73q59 0 105.5 -21.5t74.5 -54.5t46 -77t25 -83.5t7 -78.5q0 -84 -22 -194.5t-48.5 -203t-48.5 -212.5t-22 -220q0 -58 33.5 -97.5t109.5 -39.5q62 0 117 33.5t95.5 87.5t74.5 127t56 147.5t36 153.5l12 92q0 41 -4 224t-4 204 q0 64 42.5 115t99.5 75.5t112 24.5q34 0 46 -50t12 -157q0 -46 -52.5 -401.5t-52.5 -513.5q0 -187 51 -187q27 0 75 38.5t91 85.5t82.5 85.5t52.5 38.5q29 0 29 -71q0 -66 -40 -139.5t-102.5 -133.5t-146 -99.5t-164.5 -39.5q-42 0 -72.5 16t-48.5 41.5t-28.5 68.5t-14 86 t-4.5 105q-137 -317 -407 -317q-188 0 -292.5 94t-104.5 285q0 44 41 204t82.5 333.5t41.5 248.5q0 73 -19.5 119.5t-63.5 46.5q-38 0 -100 -51t-103 -51q-33 0 -33 57zM766 1729q0 10 6.5 18.5t18.5 15t20.5 10.5t22 8.5t14.5 4.5q130 43 205.5 94t138.5 145q14 22 53.5 35 t83.5 13q40 0 69 -9t29 -24q0 -8 -9.5 -30t-22.5 -40q-80 -104 -150.5 -161.5t-166 -88t-230.5 -30.5q-82 0 -82 39z" />
<glyph unicode="&#xdb;" horiz-adv-x="1415" d="M0 1280q0 110 102.5 183t245.5 73q59 0 105.5 -21.5t74.5 -54.5t46 -77t25 -83.5t7 -78.5q0 -84 -22 -194.5t-48.5 -203t-48.5 -212.5t-22 -220q0 -58 33.5 -97.5t109.5 -39.5q62 0 117 33.5t95.5 87.5t74.5 127t56 147.5t36 153.5l12 92q0 41 -4 224t-4 204 q0 64 42.5 115t99.5 75.5t112 24.5q34 0 46 -50t12 -157q0 -46 -52.5 -401.5t-52.5 -513.5q0 -187 51 -187q27 0 75 38.5t91 85.5t82.5 85.5t52.5 38.5q29 0 29 -71q0 -66 -40 -139.5t-102.5 -133.5t-146 -99.5t-164.5 -39.5q-42 0 -72.5 16t-48.5 41.5t-28.5 68.5t-14 86 t-4.5 105q-137 -317 -407 -317q-188 0 -292.5 94t-104.5 285q0 44 41 204t82.5 333.5t41.5 248.5q0 73 -19.5 119.5t-63.5 46.5q-38 0 -100 -51t-103 -51q-33 0 -33 57zM412 1761q0 24 26 47q45 39 88 72.5t101.5 77t93.5 70.5q85 65 176 65q35 0 57 -14q144 -84 213.5 -136 t161.5 -155q12 -12 12 -25q0 -36 -65.5 -69t-130.5 -33q-46 0 -68 22q-82 81 -136.5 127t-125.5 93q-104 -84 -162 -134q-59 -53 -155 -53q-86 0 -86 45z" />
<glyph unicode="&#xdc;" horiz-adv-x="1415" d="M0 1280q0 110 102.5 183t245.5 73q59 0 105.5 -21.5t74.5 -54.5t46 -77t25 -83.5t7 -78.5q0 -84 -22 -194.5t-48.5 -203t-48.5 -212.5t-22 -220q0 -58 33.5 -97.5t109.5 -39.5q62 0 117 33.5t95.5 87.5t74.5 127t56 147.5t36 153.5l12 92q0 41 -4 224t-4 204 q0 64 42.5 115t99.5 75.5t112 24.5q34 0 46 -50t12 -157q0 -46 -52.5 -401.5t-52.5 -513.5q0 -187 51 -187q27 0 75 38.5t91 85.5t82.5 85.5t52.5 38.5q29 0 29 -71q0 -66 -40 -139.5t-102.5 -133.5t-146 -99.5t-164.5 -39.5q-42 0 -72.5 16t-48.5 41.5t-28.5 68.5t-14 86 t-4.5 105q-137 -317 -407 -317q-188 0 -292.5 94t-104.5 285q0 44 41 204t82.5 333.5t41.5 248.5q0 73 -19.5 119.5t-63.5 46.5q-38 0 -100 -51t-103 -51q-33 0 -33 57zM469 1817q0 91 56 162t126 71q77 0 146 -145q-32 -77 -99.5 -123.5t-146.5 -46.5q-82 0 -82 82z M879 1831q0 92 42.5 146.5t112.5 54.5q104 0 160 -68q-88 -229 -213 -229q-44 0 -73 29t-29 67z" />
<glyph unicode="&#xdd;" horiz-adv-x="1325" d="M0 1280q0 110 102.5 183t245.5 73q59 0 105.5 -19.5t74.5 -50t46 -70t25 -75t7 -70.5q0 -76 -22 -175.5t-48.5 -182.5t-48.5 -191.5t-22 -199.5q0 -123 108 -123q121 0 211 143q29 130 97 390.5t84 336.5q52 244 139 244q98 0 146 -44.5t48 -154.5q0 -103 -73 -241 q-75 -450 -148 -801q235 94 299 166q24 29 47.5 44t36.5 15q29 0 29 -78q0 -48 -35.5 -96t-101.5 -93.5t-142 -84.5t-174 -80q-11 -47 -23.5 -91.5t-37.5 -107.5t-54.5 -116.5t-74.5 -109t-97.5 -94t-123.5 -63t-152 -24.5t-152 17.5t-129 52.5t-92 94.5t-34 136.5 q0 27 13.5 53.5t44.5 52.5t61.5 47.5t86 48t95 44.5t111.5 45t112 41.5t119 42.5l14 4q0 59 10 127q-131 -72 -280 -72q-145 0 -222 90t-77 252q0 67 26 162t56.5 175.5t56.5 174.5t26 160q0 137 -83 137q-38 0 -100 -51t-103 -51q-33 0 -33 57zM274 -285q0 -50 61 -84 t136 -34q123 0 207 313q-51 -18 -112 -38.5t-94.5 -32t-72 -25.5t-57.5 -23.5t-37 -22t-24.5 -25t-6.5 -28.5zM754 1729q0 10 6.5 18.5t18.5 15t20.5 10.5t22 8.5t14.5 4.5q130 43 205.5 94t138.5 145q14 22 53.5 35t83.5 13q40 0 69 -9t29 -24q0 -8 -10 -30t-23 -40 q-81 -104 -150.5 -161.5t-165 -88t-230.5 -30.5q-82 0 -82 39z" />
<glyph unicode="&#xde;" horiz-adv-x="1175" d="M51 553q0 22 35 22q39 0 96 -24q45 211 105 426q-105 -19 -137 -19q-41 0 -41 35q0 33 67.5 82.5t167.5 93.5q50 151 82 222q65 143 172 143q16 0 42 -36.5t26 -74.5q0 -44 -25 -180h4q73 0 138.5 -15t127 -51t106 -90.5t71 -139t26.5 -191.5q0 -86 -20 -167 t-63.5 -154.5t-106.5 -128t-155 -86.5t-202 -32q-47 0 -116 27q-2 -22 -2 -60t-2 -62.5t-9 -50.5t-26.5 -39t-51.5 -13q-127 0 -175 49t-48 170q0 72 19 199q-105 98 -105 145zM475 428q53 -12 115 -12q69 0 121.5 57t77 136.5t24.5 162.5q0 131 -47.5 203t-120.5 72 q-7 0 -47 -5q-100 -466 -123 -614z" />
<glyph unicode="&#xdf;" horiz-adv-x="1304" d="M-82 -371q0 148 22 323t65 356t100.5 358t133 331.5t159 273t182.5 187t198 68.5q143 0 227.5 -74.5t84.5 -206.5q0 -133 -41 -226t-115 -175q18 -24 51 -57.5t57 -61t49 -65.5t38.5 -89t13.5 -114v-13q-3 -132 -64 -235h27q33 0 69 20.5t66 50.5t61 66t55 66t45.5 50.5 t35.5 20.5q30 0 30 -77q0 -64 -28.5 -134t-79.5 -133t-134.5 -104t-181.5 -41q-64 0 -139 47q-140 -76 -315 -76q-122 0 -184 62.5t-62 167.5q0 103 74.5 157t197.5 54q18 0 36.5 -3t31.5 -5.5t33 -11.5t28.5 -12.5t30.5 -17t27 -17t29.5 -20t27.5 -18.5q19 52 19 113 q0 41 -22 84.5t-53.5 82t-63.5 77.5t-54 87t-22 95q0 36 12 66t31 51.5t42 42t45.5 42t41.5 46.5t31 61.5t12 81.5q0 46 -21 71t-57 25q-84 0 -186.5 -153.5t-189.5 -388.5t-136 -482q-23 -114 -42 -222.5t-30 -183.5t-21 -144.5t-15.5 -113t-12 -81.5t-12.5 -58.5 t-16.5 -35.5t-23 -20t-32.5 -5q-60 0 -127 84q-39 45 -39 106zM543 182q0 -28 20.5 -42.5t48.5 -14.5q79 0 146 43q-30 25 -48 38.5t-44.5 25.5t-49.5 12q-31 0 -52 -16.5t-21 -45.5z" />
<glyph unicode="&#xe0;" d="M51 307q0 122 38.5 241.5t113.5 211.5q79 95 185.5 157t225.5 62q58 0 123 -12q41 -9 62 -21q29 60 69 60q61 0 129 -64.5t68 -116.5q-37 -84 -84 -161q-16 -89 -16 -267q0 -168 43 -168q28 0 78.5 39.5t95 87.5t85 87.5t52.5 39.5q15 0 26 -21.5t11 -55.5 q0 -87 -72 -184t-183.5 -162.5t-215.5 -65.5q-107 0 -146 190q-38 -62 -85 -104.5t-118.5 -69t-162.5 -26.5q-144 0 -233 88t-89 235zM197 1511q0 55 17.5 78t74.5 23q30 0 57 -5.5t51 -23.5t27 -45q18 -230 190 -346q25 -17 25 -41q0 -14 -41 -14q-74 0 -144 23.5 t-128.5 68t-93.5 117.5t-35 165zM352 360q0 -157 117 -157q78 0 149 60.5t105 182.5q6 245 41 394q-77 -14 -149 -52.5t-131.5 -97t-95.5 -145t-36 -185.5z" />
<glyph unicode="&#xe1;" d="M51 307q0 122 38.5 241.5t113.5 211.5q79 95 185.5 157t225.5 62q58 0 123 -12q41 -9 62 -21q29 60 69 60q61 0 129 -64.5t68 -116.5q-37 -84 -84 -161q-16 -89 -16 -267q0 -168 43 -168q28 0 78.5 39.5t95 87.5t85 87.5t52.5 39.5q15 0 26 -21.5t11 -55.5 q0 -87 -72 -184t-183.5 -162.5t-215.5 -65.5q-107 0 -146 190q-38 -62 -85 -104.5t-118.5 -69t-162.5 -26.5q-144 0 -233 88t-89 235zM352 360q0 -157 117 -157q78 0 149 60.5t105 182.5q6 245 41 394q-77 -14 -149 -52.5t-131.5 -97t-95.5 -145t-36 -185.5zM604 1165 q0 23 30.5 39t51.5 19q42 10 78.5 33t61 46t51.5 63.5t40.5 66t37.5 74t34 67.5q11 23 51 35t86 12q40 0 68.5 -9t28.5 -24q0 -13 -33 -69q-34 -58 -53 -88.5t-53 -79.5t-59 -75t-64.5 -59.5t-78 -49.5t-89 -28t-107.5 -12q-82 0 -82 39z" />
<glyph unicode="&#xe2;" d="M51 307q0 122 38.5 241.5t113.5 211.5q79 95 185.5 157t225.5 62q58 0 123 -12q41 -9 62 -21q29 60 69 60q61 0 129 -64.5t68 -116.5q-37 -84 -84 -161q-16 -89 -16 -267q0 -168 43 -168q28 0 78.5 39.5t95 87.5t85 87.5t52.5 39.5q15 0 26 -21.5t11 -55.5 q0 -87 -72 -184t-183.5 -162.5t-215.5 -65.5q-107 0 -146 190q-38 -62 -85 -104.5t-118.5 -69t-162.5 -26.5q-144 0 -233 88t-89 235zM276 1198q0 23 27 47q15 13 30 26.5t27 25t28 28t25.5 26.5t26.5 29t24 27t26 30t24 28.5t26 31t25 29.5q27 32 77.5 55t98.5 23 q34 0 58 -15q72 -50 122 -104t109 -132.5t103 -127.5q12 -12 12 -25q0 -36 -66 -69t-131 -33q-45 0 -67 22q-48 52 -109.5 133t-91.5 115q-93 -104 -162 -162q-59 -53 -156 -53q-86 0 -86 45zM352 360q0 -157 117 -157q78 0 149 60.5t105 182.5q6 245 41 394 q-77 -14 -149 -52.5t-131.5 -97t-95.5 -145t-36 -185.5z" />
<glyph unicode="&#xe3;" d="M51 307q0 122 38.5 241.5t113.5 211.5q79 95 185.5 157t225.5 62q58 0 123 -12q41 -9 62 -21q29 60 69 60q61 0 129 -64.5t68 -116.5q-37 -84 -84 -161q-16 -89 -16 -267q0 -168 43 -168q28 0 78.5 39.5t95 87.5t85 87.5t52.5 39.5q15 0 26 -21.5t11 -55.5 q0 -87 -72 -184t-183.5 -162.5t-215.5 -65.5q-107 0 -146 190q-38 -62 -85 -104.5t-118.5 -69t-162.5 -26.5q-144 0 -233 88t-89 235zM188 1280q-2 28 37 78q81 99 174 145.5t172 46.5q46 0 91 -23t81 -56t70.5 -65.5t72 -55.5t72.5 -23q15 0 33 13t34.5 28t48.5 28t71 13 q67 0 67 -37q0 -12 -6 -16q-97 -201 -309 -201q-47 0 -91.5 21.5t-80 51.5t-70 60.5t-75 52t-80.5 21.5q-37 0 -76 -68q-18 -29 -80 -44t-115 -15q-21 0 -31 14t-10 31zM352 360q0 -157 117 -157q78 0 149 60.5t105 182.5q6 245 41 394q-77 -14 -149 -52.5t-131.5 -97 t-95.5 -145t-36 -185.5z" />
<glyph unicode="&#xe4;" d="M51 307q0 122 38.5 241.5t113.5 211.5q79 95 185.5 157t225.5 62q58 0 123 -12q41 -9 62 -21q29 60 69 60q61 0 129 -64.5t68 -116.5q-37 -84 -84 -161q-16 -89 -16 -267q0 -168 43 -168q28 0 78.5 39.5t95 87.5t85 87.5t52.5 39.5q15 0 26 -21.5t11 -55.5 q0 -87 -72 -184t-183.5 -162.5t-215.5 -65.5q-107 0 -146 190q-38 -62 -85 -104.5t-118.5 -69t-162.5 -26.5q-144 0 -233 88t-89 235zM338 1315q0 91 56 162t126 71q77 0 146 -145q-32 -77 -99.5 -123.5t-146.5 -46.5q-82 0 -82 82zM352 360q0 -157 117 -157q78 0 149 60.5 t105 182.5q6 245 41 394q-77 -14 -149 -52.5t-131.5 -97t-95.5 -145t-36 -185.5zM748 1329q0 92 42.5 146.5t112.5 54.5q104 0 160 -68q-88 -229 -213 -229q-44 0 -73 29t-29 67z" />
<glyph unicode="&#xe5;" d="M51 307q0 122 38.5 241.5t113.5 211.5q79 95 185.5 157t225.5 62q58 0 123 -12q41 -9 62 -21q29 60 69 60q61 0 129 -64.5t68 -116.5q-37 -84 -84 -161q-16 -89 -16 -267q0 -168 43 -168q28 0 78.5 39.5t95 87.5t85 87.5t52.5 39.5q15 0 26 -21.5t11 -55.5 q0 -87 -72 -184t-183.5 -162.5t-215.5 -65.5q-107 0 -146 190q-38 -62 -85 -104.5t-118.5 -69t-162.5 -26.5q-144 0 -233 88t-89 235zM352 360q0 -157 117 -157q78 0 149 60.5t105 182.5q6 245 41 394q-77 -14 -149 -52.5t-131.5 -97t-95.5 -145t-36 -185.5zM408 1436 q0 102 75.5 164.5t184.5 62.5h22q18 6 37 6q63 0 136 -39t124 -101.5t51 -123.5q0 -52 -34 -98t-86 -76t-110.5 -47t-109.5 -17q-118 0 -204 75.5t-86 193.5zM608 1466q0 -63 39.5 -110t104.5 -47q36 0 61 18t25 55q0 40 -38 77.5t-87 58.5q-8 -2 -25 -2q-38 0 -65 8 q-15 -24 -15 -58z" />
<glyph unicode="&#xe6;" horiz-adv-x="1538" d="M51 307q0 122 38.5 241.5t113.5 211.5q79 95 185.5 157t225.5 62q197 0 289 -170q74 83 168.5 128.5t194.5 45.5q113 0 175 -54t62 -143q0 -37 -8 -71t-19.5 -62t-34 -56t-42 -48.5t-52.5 -45t-56.5 -39.5t-64 -37t-64.5 -34l-68 -34l-66 -33q8 -30 29.5 -51.5t50.5 -32 t56.5 -15t56.5 -4.5q75 0 145 26t118 63.5t86 75t64.5 63.5t38.5 26q29 0 29 -71q0 -31 -13.5 -71t-41.5 -88t-78 -93t-115 -83t-161 -60.5t-208 -22.5q-102 0 -188 38t-131 113q-88 -76 -181.5 -115.5t-211.5 -39.5q-144 0 -233 88t-89 235zM352 360q0 -157 117 -157 q97 0 254 102v2q0 233 113 412q-83 61 -156 61q-144 0 -236 -121t-92 -299zM1028 477q104 80 162.5 147t58.5 126q0 51 -63 51q-35 0 -63.5 -28.5t-47 -76.5t-30 -102.5t-17.5 -116.5z" />
<glyph unicode="&#xe7;" horiz-adv-x="747" d="M41 307q0 142 48 269.5t126.5 215.5t180 139.5t206.5 51.5q71 0 106 -33.5t35 -91.5q0 -70 -29 -114t-71 -44q-27 0 -60.5 30t-58.5 30q-58 0 -101 -63t-62 -151.5t-19 -185.5q0 -40 19 -69t48 -42.5t56 -19.5t51 -6q46 0 95 27t88 65t73.5 76t61.5 65t40 27 q16 0 26.5 -21t10.5 -56q0 -37 -16.5 -83.5t-52 -99t-85 -98.5t-123.5 -81.5t-159 -47.5q-4 -52 -12 -98q65 0 101 -36t36 -98q0 -67 -42 -140t-116 -124t-155 -51q-73 0 -134 56t-61 124q0 25 41.5 44.5t83.5 19.5q37 0 55 -20t31 -55.5t27 -51.5q34 34 58 82t24 86 q0 32 -17 63q-46 -12 -82 -12q-59 0 -59 25q0 8 2 12q13 32 22 85t11 93q-109 24 -178.5 101t-69.5 206z" />
<glyph unicode="&#xe8;" horiz-adv-x="856" d="M41 307q0 143 45 270t119.5 215t173.5 139.5t205 51.5q113 0 175 -54t62 -143q0 -58 -21.5 -105t-53.5 -77t-84.5 -58.5t-97.5 -45.5t-112 -42.5t-110 -45.5v-52q0 -40 19.5 -68.5t51.5 -42.5t62.5 -20t63.5 -6q75 0 145 26t118 63.5t86 75t64.5 63.5t38.5 26 q29 0 29 -71q0 -31 -13.5 -71t-41.5 -88t-78 -93t-115 -83t-161 -60.5t-208 -22.5q-71 0 -134.5 19t-115 56.5t-82 100t-30.5 143.5zM104 1511q0 55 17.5 78t75.5 23q30 0 57 -5.5t51 -23.5t27 -45q18 -230 190 -346q25 -17 25 -41q0 -14 -41 -14q-74 0 -144.5 23.5 t-128.5 68t-93.5 118t-35.5 164.5zM356 553q24 16 65 41t60.5 38t43 33t33 40.5t9.5 44.5q0 51 -63 51q-57 0 -94 -70t-54 -178z" />
<glyph unicode="&#xe9;" horiz-adv-x="856" d="M41 307q0 143 45 270t119.5 215t173.5 139.5t205 51.5q113 0 175 -54t62 -143q0 -58 -21.5 -105t-53.5 -77t-84.5 -58.5t-97.5 -45.5t-112 -42.5t-110 -45.5v-52q0 -40 19.5 -68.5t51.5 -42.5t62.5 -20t63.5 -6q75 0 145 26t118 63.5t86 75t64.5 63.5t38.5 26 q29 0 29 -71q0 -31 -13.5 -71t-41.5 -88t-78 -93t-115 -83t-161 -60.5t-208 -22.5q-71 0 -134.5 19t-115 56.5t-82 100t-30.5 143.5zM356 553q24 16 65 41t60.5 38t43 33t33 40.5t9.5 44.5q0 51 -63 51q-57 0 -94 -70t-54 -178zM512 1165q0 23 30.5 39t51.5 19 q42 10 78.5 33t61 46t51.5 63.5t40.5 66t37.5 74t34 67.5q11 23 51 35t86 12q40 0 68 -9t28 -24t-32 -69q-34 -58 -53 -88.5t-53 -79.5t-59 -75t-64.5 -59.5t-78 -49.5t-89 -28t-107.5 -12q-82 0 -82 39z" />
<glyph unicode="&#xea;" horiz-adv-x="856" d="M41 307q0 143 45 270t119.5 215t173.5 139.5t205 51.5q113 0 175 -54t62 -143q0 -58 -21.5 -105t-53.5 -77t-84.5 -58.5t-97.5 -45.5t-112 -42.5t-110 -45.5v-52q0 -40 19.5 -68.5t51.5 -42.5t62.5 -20t63.5 -6q75 0 145 26t118 63.5t86 75t64.5 63.5t38.5 26 q29 0 29 -71q0 -31 -13.5 -71t-41.5 -88t-78 -93t-115 -83t-161 -60.5t-208 -22.5q-71 0 -134.5 19t-115 56.5t-82 100t-30.5 143.5zM184 1198q0 23 27 47q15 13 30 26.5t27 25t28 28t25.5 26.5t26.5 29t24 27t26 30t24 28.5t26 31t25 29.5q27 32 77.5 55t98.5 23 q34 0 58 -15q71 -50 121.5 -104t109 -132.5t102.5 -127.5q13 -13 13 -25q0 -36 -66 -69t-131 -33q-46 0 -68 22q-47 52 -108.5 133t-91.5 115q-93 -104 -162 -162q-59 -53 -156 -53q-86 0 -86 45zM356 553q24 16 65 41t60.5 38t43 33t33 40.5t9.5 44.5q0 51 -63 51 q-57 0 -94 -70t-54 -178z" />
<glyph unicode="&#xeb;" horiz-adv-x="856" d="M41 307q0 143 45 270t119.5 215t173.5 139.5t205 51.5q113 0 175 -54t62 -143q0 -58 -21.5 -105t-53.5 -77t-84.5 -58.5t-97.5 -45.5t-112 -42.5t-110 -45.5v-52q0 -40 19.5 -68.5t51.5 -42.5t62.5 -20t63.5 -6q75 0 145 26t118 63.5t86 75t64.5 63.5t38.5 26 q29 0 29 -71q0 -31 -13.5 -71t-41.5 -88t-78 -93t-115 -83t-161 -60.5t-208 -22.5q-71 0 -134.5 19t-115 56.5t-82 100t-30.5 143.5zM246 1315q0 91 56 162t126 71q76 0 145 -145q-32 -78 -99 -124t-146 -46q-82 0 -82 82zM356 553q24 16 65 41t60.5 38t43 33t33 40.5 t9.5 44.5q0 51 -63 51q-57 0 -94 -70t-54 -178zM655 1329q0 91 43 146t113 55q104 0 160 -68q-88 -229 -213 -229q-44 0 -73.5 29t-29.5 67z" />
<glyph unicode="&#xec;" horiz-adv-x="595" d="M74 1511q0 55 17.5 78t74.5 23q30 0 57 -5.5t51 -23.5t27 -45q2 -28 5 -79t5 -70t9 -53.5t19.5 -64.5t33.5 -69q1 -1 7.5 -12t9.5 -20t3 -19q0 -14 -41 -14q-56 0 -121 54.5t-111 143.5t-46 176zM102 377q0 95 16 203.5t44.5 207.5t74.5 164.5t99 65.5q30 0 55 -23.5 t38.5 -57.5t20.5 -65t7 -51q-2 -100 -50.5 -290t-48.5 -238q0 -30 20.5 -47t51.5 -17q27 0 75 38.5t91 85.5t82.5 85.5t52.5 38.5q29 0 29 -71q0 -66 -40 -139.5t-102.5 -133.5t-146 -99.5t-164.5 -39.5q-205 0 -205 383z" />
<glyph unicode="&#xed;" horiz-adv-x="595" d="M102 377q0 95 16 203.5t44.5 207.5t74.5 164.5t99 65.5q30 0 55 -23.5t38.5 -57.5t20.5 -65t7 -51q-2 -100 -50.5 -290t-48.5 -238q0 -30 20.5 -47t51.5 -17q27 0 75 38.5t91 85.5t82.5 85.5t52.5 38.5q29 0 29 -71q0 -66 -40 -139.5t-102.5 -133.5t-146 -99.5 t-164.5 -39.5q-205 0 -205 383zM279 1165q0 23 27.5 42t51.5 28q49 16 85 42t61.5 64t41.5 70t38 82.5t37 79.5q11 23 51 35t86 12q40 0 69 -9t29 -24q0 -13 -33 -69q-51 -86 -98.5 -150.5t-105.5 -122.5t-124.5 -88.5t-136.5 -30.5q-79 0 -79 39z" />
<glyph unicode="&#xee;" horiz-adv-x="595" d="M102 377q0 95 16 203.5t44.5 207.5t74.5 164.5t99 65.5q30 0 55 -23.5t38.5 -57.5t20.5 -65t7 -51q-2 -100 -50.5 -290t-48.5 -238q0 -30 20.5 -47t51.5 -17q27 0 75 38.5t91 85.5t82.5 85.5t52.5 38.5q29 0 29 -71q0 -66 -40 -139.5t-102.5 -133.5t-146 -99.5 t-164.5 -39.5q-205 0 -205 383zM131 1194l15 28q188 384 300 384q45 0 58 -15q63 -66 96 -114.5t70 -119.5t75 -130q13 -17 13 -25q0 -38 -47 -70t-109 -32q-50 0 -67 22q-35 47 -62.5 92t-38.5 67.5t-33 70.5q-6 -12 -21.5 -41.5t-21.5 -39.5t-19 -32t-20.5 -30t-20.5 -22 t-24.5 -18.5t-26.5 -9t-32 -4.5q-29 0 -56.5 9.5t-27.5 29.5z" />
<glyph unicode="&#xef;" horiz-adv-x="595" d="M63 1270q0 85 48 152t106 67q67 0 125 -137q-28 -73 -85 -116.5t-124 -43.5q-70 0 -70 78zM102 377q0 95 16 203.5t44.5 207.5t74.5 164.5t99 65.5q30 0 55 -23.5t38.5 -57.5t20.5 -65t7 -51q-2 -100 -50.5 -290t-48.5 -238q0 -30 20.5 -47t51.5 -17q27 0 75 38.5 t91 85.5t82.5 85.5t52.5 38.5q29 0 29 -71q0 -66 -40 -139.5t-102.5 -133.5t-146 -99.5t-164.5 -39.5q-205 0 -205 383zM360 1282q0 87 35.5 139t93.5 52q89 0 138 -64q-76 -217 -181 -217q-38 0 -62 27t-24 63z" />
<glyph unicode="&#xf0;" horiz-adv-x="1200" d="M51 307q0 122 38.5 241.5t113.5 211.5q79 95 185.5 157t225.5 62q74 0 123 -12l47 -13q11 57 27 119q-33 6 -82 13t-81.5 12t-64.5 10.5t-48.5 11t-16.5 10.5q0 58 55.5 98t128.5 40q51 0 121 -13q37 -7 39 -8q49 140 95 210.5t98 70.5q57 0 105 -75.5t48 -121.5 q0 -78 -30 -143q39 -8 79.5 -15t60.5 -10t37 -7.5t23 -10.5t6 -17q0 -38 -59.5 -89.5t-99.5 -51.5q-18 0 -152 29l-16 -25q0 -130 -6.5 -231.5t-25 -210t-49 -188.5t-82.5 -154.5t-122.5 -121t-171.5 -74t-227 -27.5q-144 0 -233 88t-89 235zM352 360q0 -157 117 -157 q51 0 91.5 19t67 50t47.5 77t32 92.5t20 104.5t13.5 105t10.5 101.5t11 87.5q-61 -11 -119 -37.5t-111 -69t-93 -96.5t-63.5 -125.5t-23.5 -151.5z" />
<glyph unicode="&#xf1;" horiz-adv-x="1099" d="M92 168q0 109 1 165.5t5.5 140t14.5 135t27.5 117t46 122.5t67.5 117q38 57 80 57q39 0 77 -43.5t62 -97.5q96 100 242 100q136 0 209 -63t73 -173q0 -86 -21.5 -189t-43 -182.5t-21.5 -109.5q0 -35 23 -35q27 0 75 38.5t91 85.5t82.5 85.5t52.5 38.5q29 0 29 -71 q0 -66 -40 -139.5t-102.5 -133.5t-146 -99.5t-164.5 -39.5q-164 0 -164 262q0 92 16 174t32 146t16 112q0 74 -93 74q-52 0 -107 -63t-94.5 -150.5t-56.5 -173.5v-15q0 -62 21.5 -138.5t21.5 -98.5q0 -41 -38 -74.5t-136 -71.5q-27 -10 -47 -10q-49 0 -69.5 51t-20.5 150z M254 1280q-2 28 37 78q81 99 174 145.5t172 46.5q46 0 91 -23t81 -56t70.5 -65.5t72 -55.5t72.5 -23q15 0 33 13t34.5 28t48 28t70.5 13q68 0 68 -37q0 -12 -6 -16q-97 -201 -309 -201q-47 0 -91.5 21.5t-80.5 51.5t-70.5 60.5t-75 52t-80.5 21.5q-37 0 -76 -68 q-18 -29 -79.5 -44t-114.5 -15q-21 0 -31 14t-10 31z" />
<glyph unicode="&#xf2;" horiz-adv-x="1112" d="M51 387q0 116 39.5 223.5t110.5 190.5t178 132.5t233 49.5q114 0 210 -38.5t96 -82.5q0 -33 -160 -33q-177 0 -291.5 -114.5t-114.5 -294.5q0 -95 56.5 -156t162.5 -61q89 0 154 41q-145 99 -145 284q0 46 18 92t50.5 84.5t85.5 62.5t116 24q96 0 147.5 -62t51.5 -162 q0 -102 -48 -213h13q52 0 93.5 19.5t62 43t41 43t36.5 19.5q29 0 29 -73q0 -116 -73.5 -180t-182.5 -64q-70 0 -131 12q-76 -88 -176.5 -139t-216.5 -51q-113 0 -200.5 33.5t-139.5 91t-78.5 128t-26.5 150.5zM162 1511q0 55 17.5 78t74.5 23q30 0 57 -5.5t51 -23.5t27 -45 q18 -230 191 -346q24 -16 24 -41q0 -14 -41 -14q-74 0 -144 23.5t-128.5 68t-93.5 117.5t-35 165zM817 547q0 -82 53 -135q35 71 35 145q0 68 -45 68q-18 0 -30.5 -25.5t-12.5 -52.5z" />
<glyph unicode="&#xf3;" horiz-adv-x="1112" d="M51 387q0 116 39.5 223.5t110.5 190.5t178 132.5t233 49.5q114 0 210 -38.5t96 -82.5q0 -33 -160 -33q-177 0 -291.5 -114.5t-114.5 -294.5q0 -95 56.5 -156t162.5 -61q89 0 154 41q-145 99 -145 284q0 46 18 92t50.5 84.5t85.5 62.5t116 24q96 0 147.5 -62t51.5 -162 q0 -102 -48 -213h13q52 0 93.5 19.5t62 43t41 43t36.5 19.5q29 0 29 -73q0 -116 -73.5 -180t-182.5 -64q-70 0 -131 12q-76 -88 -176.5 -139t-216.5 -51q-113 0 -200.5 33.5t-139.5 91t-78.5 128t-26.5 150.5zM569 1165q0 23 30.5 39t51.5 19q42 10 78.5 33t61 46t51.5 63.5 t40.5 66t37.5 74t34 67.5q11 23 51.5 35t86.5 12q40 0 68 -9t28 -24q0 -13 -33 -69q-34 -58 -53 -88.5t-53 -79.5t-59 -75t-64.5 -59.5t-78 -49.5t-89 -28t-107.5 -12q-82 0 -82 39zM817 547q0 -82 53 -135q35 71 35 145q0 68 -45 68q-18 0 -30.5 -25.5t-12.5 -52.5z" />
<glyph unicode="&#xf4;" horiz-adv-x="1112" d="M51 387q0 116 39.5 223.5t110.5 190.5t178 132.5t233 49.5q114 0 210 -38.5t96 -82.5q0 -33 -160 -33q-177 0 -291.5 -114.5t-114.5 -294.5q0 -95 56.5 -156t162.5 -61q89 0 154 41q-145 99 -145 284q0 46 18 92t50.5 84.5t85.5 62.5t116 24q96 0 147.5 -62t51.5 -162 q0 -102 -48 -213h13q52 0 93.5 19.5t62 43t41 43t36.5 19.5q29 0 29 -73q0 -116 -73.5 -180t-182.5 -64q-70 0 -131 12q-76 -88 -176.5 -139t-216.5 -51q-113 0 -200.5 33.5t-139.5 91t-78.5 128t-26.5 150.5zM242 1198q0 24 26 47q15 13 30 26.5t27 25t28 28t25.5 26.5 t26.5 29t24 27t26 30t24 28.5t26 31t25 29.5q27 32 78 55t99 23q33 0 57 -15q72 -50 122 -104t109 -132.5t103 -127.5q12 -12 12 -25q0 -36 -66 -69t-131 -33q-45 0 -67 22q-48 52 -109.5 133t-91.5 115q-93 -104 -162 -162q-59 -53 -155 -53q-86 0 -86 45zM817 547 q0 -82 53 -135q35 71 35 145q0 68 -45 68q-18 0 -30.5 -25.5t-12.5 -52.5z" />
<glyph unicode="&#xf5;" horiz-adv-x="1112" d="M51 387q0 116 39.5 223.5t110.5 190.5t178 132.5t233 49.5q114 0 210 -38.5t96 -82.5q0 -33 -160 -33q-177 0 -291.5 -114.5t-114.5 -294.5q0 -95 56.5 -156t162.5 -61q89 0 154 41q-145 99 -145 284q0 46 18 92t50.5 84.5t85.5 62.5t116 24q96 0 147.5 -62t51.5 -162 q0 -102 -48 -213h13q52 0 93.5 19.5t62 43t41 43t36.5 19.5q29 0 29 -73q0 -116 -73.5 -180t-182.5 -64q-70 0 -131 12q-76 -88 -176.5 -139t-216.5 -51q-113 0 -200.5 33.5t-139.5 91t-78.5 128t-26.5 150.5zM154 1280q-2 29 36 78q81 99 174.5 145.5t172.5 46.5 q46 0 91 -23t81 -56t70.5 -65.5t72 -55.5t72.5 -23q15 0 33 13t34.5 28t48 28t70.5 13q68 0 68 -37q0 -11 -7 -16q-97 -201 -309 -201q-47 0 -91.5 21.5t-80 51.5t-70 60.5t-75 52t-80.5 21.5q-37 0 -76 -68q-18 -29 -79.5 -44t-114.5 -15q-21 0 -31 14t-10 31zM817 547 q0 -82 53 -135q35 71 35 145q0 68 -45 68q-18 0 -30.5 -25.5t-12.5 -52.5z" />
<glyph unicode="&#xf6;" horiz-adv-x="1112" d="M51 387q0 116 39.5 223.5t110.5 190.5t178 132.5t233 49.5q114 0 210 -38.5t96 -82.5q0 -33 -160 -33q-177 0 -291.5 -114.5t-114.5 -294.5q0 -95 56.5 -156t162.5 -61q89 0 154 41q-145 99 -145 284q0 46 18 92t50.5 84.5t85.5 62.5t116 24q96 0 147.5 -62t51.5 -162 q0 -102 -48 -213h13q52 0 93.5 19.5t62 43t41 43t36.5 19.5q29 0 29 -73q0 -116 -73.5 -180t-182.5 -64q-70 0 -131 12q-76 -88 -176.5 -139t-216.5 -51q-113 0 -200.5 33.5t-139.5 91t-78.5 128t-26.5 150.5zM303 1315q0 91 56 162t126 71q77 0 146 -145 q-32 -77 -99.5 -123.5t-146.5 -46.5q-82 0 -82 82zM713 1329q0 92 42.5 146.5t112.5 54.5q104 0 160 -68q-88 -229 -213 -229q-44 0 -73 29t-29 67zM817 547q0 -82 53 -135q35 71 35 145q0 68 -45 68q-18 0 -30.5 -25.5t-12.5 -52.5z" />
<glyph unicode="&#xf7;" horiz-adv-x="966" d="M102 479v119h762v-119h-762zM397 229q0 46 20.5 68t65.5 22q46 0 65 -21.5t19 -68.5q0 -46 -20 -67t-64 -21q-45 0 -65.5 21t-20.5 67zM397 844q0 46 20.5 68t65.5 22q46 0 65 -21.5t19 -68.5q0 -46 -20 -67t-64 -21q-45 0 -65.5 21t-20.5 67z" />
<glyph unicode="&#xf8;" horiz-adv-x="1107" d="M41 18q0 48 22 76q25 22 56 53q-72 103 -72 240q0 116 39.5 223.5t110.5 190.5t178 132.5t233 49.5q88 0 207 -33q49 63 115 157q3 4 5 2q2 -3 7 -3q26 0 38.5 -37.5t12.5 -77.5q0 -26 -1 -36.5t-8 -27.5t-23 -38q75 -52 75 -109q0 -14 -18 -14q-11 0 -28.5 4.5t-49.5 15 t-47 15.5l-107 -119q-89 -99 -181 -204.5t-141 -162t-52 -59.5q59 -53 155 -53q137 0 226 96q-43 76 -43 168q0 98 37.5 157.5t117.5 59.5q139 0 139 -178q0 -73 -36 -152h2q52 0 93.5 19.5t62 43t41 43t36.5 19.5q29 0 29 -73q0 -116 -73.5 -180t-182.5 -64q-64 0 -113 24 q-79 -92 -184 -147t-227 -55q-138 0 -244 53q-108 -135 -148 -135q-33 0 -46 37t-13 79zM348 420q0 -25 2 -35q91 98 158.5 177.5t212.5 264.5q-165 -11 -269 -124t-104 -283z" />
<glyph unicode="&#xf9;" horiz-adv-x="1091" d="M41 233q0 50 14.5 95.5t50.5 113.5l60 504q33 26 86 37.5t96 11.5q35 0 57.5 -15.5t33 -45.5t14.5 -61.5t4 -75.5q0 -67 -24.5 -155.5t-48.5 -183t-24 -175.5q0 -74 93 -74q54 0 99.5 49.5t75.5 128t48.5 152.5t28.5 147q-7 50 -7 178q0 137 213 137q49 0 64.5 -31.5 t15.5 -101.5q0 -115 -44 -328t-44 -276q0 -35 23 -35q27 0 75 38.5t91 85.5t82.5 85.5t52.5 38.5q28 0 28 -71q0 -66 -40 -139.5t-102 -133.5t-145.5 -99.5t-164.5 -39.5q-132 0 -150 180q-101 -184 -297 -184q-144 0 -229.5 61t-85.5 182zM131 1511q0 55 17.5 78t74.5 23 q30 0 57 -5.5t51 -23.5t27 -45q18 -230 191 -346q24 -16 24 -41q0 -14 -41 -14q-74 0 -144 23.5t-128.5 68t-93.5 117.5t-35 165z" />
<glyph unicode="&#xfa;" horiz-adv-x="1091" d="M41 233q0 50 14.5 95.5t50.5 113.5l60 504q33 26 86 37.5t96 11.5q35 0 57.5 -15.5t33 -45.5t14.5 -61.5t4 -75.5q0 -67 -24.5 -155.5t-48.5 -183t-24 -175.5q0 -74 93 -74q54 0 99.5 49.5t75.5 128t48.5 152.5t28.5 147q-7 50 -7 178q0 137 213 137q49 0 64.5 -31.5 t15.5 -101.5q0 -115 -44 -328t-44 -276q0 -35 23 -35q27 0 75 38.5t91 85.5t82.5 85.5t52.5 38.5q28 0 28 -71q0 -66 -40 -139.5t-102 -133.5t-145.5 -99.5t-164.5 -39.5q-132 0 -150 180q-101 -184 -297 -184q-144 0 -229.5 61t-85.5 182zM539 1165q0 23 30.5 39t51.5 19 q42 10 78.5 33t61 46t51.5 63.5t40.5 66t37.5 74t34 67.5q11 23 51 35t86 12q40 0 68 -9t28 -24q0 -13 -33 -69q-27 -46 -41 -69t-40.5 -64t-43.5 -62.5t-45.5 -53.5t-52 -49t-56.5 -38t-65.5 -31.5t-73 -17.5t-85.5 -7q-82 0 -82 39z" />
<glyph unicode="&#xfb;" horiz-adv-x="1091" d="M41 233q0 50 14.5 95.5t50.5 113.5l60 504q33 26 86 37.5t96 11.5q35 0 57.5 -15.5t33 -45.5t14.5 -61.5t4 -75.5q0 -67 -24.5 -155.5t-48.5 -183t-24 -175.5q0 -74 93 -74q54 0 99.5 49.5t75.5 128t48.5 152.5t28.5 147q-7 50 -7 178q0 137 213 137q49 0 64.5 -31.5 t15.5 -101.5q0 -115 -44 -328t-44 -276q0 -35 23 -35q27 0 75 38.5t91 85.5t82.5 85.5t52.5 38.5q28 0 28 -71q0 -66 -40 -139.5t-102 -133.5t-145.5 -99.5t-164.5 -39.5q-132 0 -150 180q-101 -184 -297 -184q-144 0 -229.5 61t-85.5 182zM211 1198q0 23 27 47 q15 13 30 26.5t27 25t28 28t25.5 26.5t26.5 29t24 27t26 30t24 28.5t26 31t25 29.5q27 32 77.5 55t98.5 23q33 0 57 -15q72 -50 122 -104t109 -132.5t103 -127.5q12 -12 12 -25q0 -36 -65.5 -69t-130.5 -33q-46 0 -68 22q-48 52 -109.5 133t-91.5 115q-96 -107 -161 -162 q-59 -53 -156 -53q-86 0 -86 45z" />
<glyph unicode="&#xfc;" horiz-adv-x="1091" d="M41 233q0 50 14.5 95.5t50.5 113.5l60 504q33 26 86 37.5t96 11.5q35 0 57.5 -15.5t33 -45.5t14.5 -61.5t4 -75.5q0 -67 -24.5 -155.5t-48.5 -183t-24 -175.5q0 -74 93 -74q54 0 99.5 49.5t75.5 128t48.5 152.5t28.5 147q-7 50 -7 178q0 137 213 137q49 0 64.5 -31.5 t15.5 -101.5q0 -115 -44 -328t-44 -276q0 -35 23 -35q27 0 75 38.5t91 85.5t82.5 85.5t52.5 38.5q28 0 28 -71q0 -66 -40 -139.5t-102 -133.5t-145.5 -99.5t-164.5 -39.5q-132 0 -150 180q-101 -184 -297 -184q-144 0 -229.5 61t-85.5 182zM272 1315q0 91 56.5 162t126.5 71 q76 0 145 -145q-32 -77 -99.5 -123.5t-146.5 -46.5q-82 0 -82 82zM682 1329q0 91 43 146t113 55q103 0 159 -68q-88 -229 -213 -229q-44 0 -73 29t-29 67z" />
<glyph unicode="&#xfd;" horiz-adv-x="1095" d="M10 -289q0 32 12 58.5t31.5 46t53.5 36.5t67 28t84.5 24t94.5 21.5t107.5 22t112.5 25.5q29 118 39 177q-101 -142 -274 -142q-143 0 -224 61t-81 183q0 50 14.5 95.5t50.5 113.5l60 485q62 49 172 49q35 0 57.5 -15.5t33 -45.5t14 -61t3.5 -76q0 -67 -24 -151t-48 -174 t-24 -171q0 -74 92 -74q73 0 116 50t75 143q31 132 84 316.5t71 228.5q23 57 80 57q55 0 106.5 -78.5t51.5 -124.5q0 -145 -176 -723q80 60 153 133.5t113 125t73 87t50 35.5q29 0 29 -71q0 -125 -146.5 -298t-351.5 -266q-17 -58 -29 -92t-32.5 -82.5t-40.5 -77t-52 -61 t-69.5 -50t-89 -29t-113.5 -11.5q-133 0 -229.5 79t-96.5 193zM199 -313q0 -40 45 -65t90 -25q99 0 174 167q-50 -10 -106 -18t-88 -12t-61 -9.5t-41.5 -14.5t-12.5 -23zM539 1165q0 23 30.5 39t51.5 19q42 10 78.5 33t61 46t51.5 63.5t40.5 66t37.5 74t34 67.5q11 23 51 35 t86 12q40 0 68 -9t28 -24q0 -13 -33 -69q-27 -46 -41 -69t-40.5 -64t-43.5 -62.5t-45.5 -53.5t-52 -49t-56.5 -38t-65.5 -31.5t-73 -17.5t-85.5 -7q-82 0 -82 39z" />
<glyph unicode="&#xfe;" horiz-adv-x="1122" d="M102 168q0 179 35.5 419t110.5 492.5t170 395.5q36 55 82 55q38 0 69.5 -41.5t45.5 -86.5t14 -73q-1 -41 -19 -82t-43 -75.5t-49.5 -70t-41.5 -79t-17 -88.5v-6q130 55 301 55q144 0 243 -88.5t99 -230.5q0 -112 -34.5 -199.5t-94.5 -141.5t-137.5 -82t-167.5 -28 q-150 0 -265 68q0 -30 -0.5 -67.5t-1 -70.5t-8.5 -62t-24 -42q-87 -70 -170 -70q-97 0 -97 199zM414 455q84 -19 168 -19q115 0 167 39t52 135q0 42 -33 75.5t-71.5 48t-69.5 14.5q-123 0 -197 -54q-16 -128 -16 -221v-18z" />
<glyph unicode="&#xff;" horiz-adv-x="1095" d="M10 -289q0 32 12 58.5t31.5 46t53.5 36.5t67 28t84.5 24t94.5 21.5t107.5 22t112.5 25.5q29 118 39 177q-101 -142 -274 -142q-143 0 -224 61t-81 183q0 50 14.5 95.5t50.5 113.5l60 485q62 49 172 49q35 0 57.5 -15.5t33 -45.5t14 -61t3.5 -76q0 -67 -24 -151t-48 -174 t-24 -171q0 -74 92 -74q73 0 116 50t75 143q31 132 84 316.5t71 228.5q23 57 80 57q55 0 106.5 -78.5t51.5 -124.5q0 -145 -176 -723q80 60 153 133.5t113 125t73 87t50 35.5q29 0 29 -71q0 -125 -146.5 -298t-351.5 -266q-17 -58 -29 -92t-32.5 -82.5t-40.5 -77t-52 -61 t-69.5 -50t-89 -29t-113.5 -11.5q-133 0 -229.5 79t-96.5 193zM199 -313q0 -40 45 -65t90 -25q99 0 174 167q-50 -10 -106 -18t-88 -12t-61 -9.5t-41.5 -14.5t-12.5 -23zM272 1315q0 91 56.5 162t126.5 71q76 0 145 -145q-32 -77 -99.5 -123.5t-146.5 -46.5q-82 0 -82 82z M682 1329q0 91 43 146t113 55q103 0 159 -68q-88 -229 -213 -229q-44 0 -73 29t-29 67z" />
<glyph unicode="&#x152;" horiz-adv-x="2355" d="M143 612q0 144 37 280.5t109 254t171.5 206t232 139t282.5 50.5q226 0 358 -143q0 4 2 6q41 92 152 92q155 0 493 13.5t361 13.5q55 0 55 -43q0 -7 -7.5 -25t-19 -43t-16.5 -39q-17 -43 -43.5 -61.5t-73.5 -18.5q-174 0 -596 4l-77 -444q86 -1 203.5 -2.5t198.5 -2.5 t112 -1q53 0 53 -39q0 -7 -7.5 -24t-18 -39t-15.5 -35q-18 -41 -43 -58.5t-70 -17.5q-20 0 -195.5 5.5t-250.5 6.5q-38 -252 -49 -446q250 12 411 12q87 0 152.5 13.5t101 32.5t61.5 38.5t49.5 33t49.5 13.5q15 0 26 -22t11 -56q0 -81 -41.5 -138t-121 -89.5t-180 -47 t-231.5 -14.5q-25 0 -162.5 8.5t-193.5 10.5q-61 -27 -170 -27q-22 0 -36.5 10.5t-21 34.5t-9 51.5t-2.5 71.5q-168 -153 -373 -153q-135 0 -246 34.5t-186.5 93.5t-127 140t-75 171t-23.5 189zM465 690q0 -203 94.5 -318.5t261.5 -115.5q198 0 359 121q30 548 104 866 q-11 5 -52.5 28.5t-69.5 36.5t-84.5 25.5t-119.5 12.5q-112 0 -207.5 -60t-156.5 -155.5t-95 -210.5t-34 -230z" />
<glyph unicode="&#x153;" horiz-adv-x="1640" d="M51 387q0 116 39.5 223.5t110.5 190.5t178 132.5t233 49.5t191 -54.5t65 -133.5q0 -158 -53 -158q-18 0 -37 16.5t-37 40.5t-38.5 48t-49.5 40.5t-61 16.5q-108 0 -174 -112t-66 -267q0 -95 56.5 -156t162.5 -61q138 0 256 59q-2 14 -2 45q0 143 45 270t119.5 215 t173.5 139.5t205 51.5q113 0 175.5 -54t62.5 -143q0 -37 -8 -71t-20 -62t-34 -56t-41.5 -48.5t-53 -44.5t-57 -39.5t-64 -37.5t-64.5 -34l-68 -34l-66 -33q8 -30 29.5 -51.5t50.5 -32t56.5 -15t56.5 -4.5q75 0 145 26t118.5 63.5t86.5 75t64.5 63.5t38.5 26q28 0 28 -71 q0 -38 -18 -87.5t-64.5 -109t-113.5 -108t-177 -81t-243 -32.5q-94 0 -174 32t-129 95q-182 -131 -389 -131q-113 0 -200.5 33.5t-139.5 91t-78.5 128t-26.5 150.5zM1130 477q104 81 163 147.5t59 125.5q0 51 -64 51q-35 0 -63.5 -28.5t-47 -76.5t-30 -102.5t-17.5 -116.5z " />
<glyph unicode="&#x178;" horiz-adv-x="1325" d="M0 1280q0 110 102.5 183t245.5 73q59 0 105.5 -19.5t74.5 -50t46 -70t25 -75t7 -70.5q0 -76 -22 -175.5t-48.5 -182.5t-48.5 -191.5t-22 -199.5q0 -123 108 -123q121 0 211 143q29 130 97 390.5t84 336.5q52 244 139 244q98 0 146 -44.5t48 -154.5q0 -103 -73 -241 q-75 -450 -148 -801q235 94 299 166q24 29 47.5 44t36.5 15q29 0 29 -78q0 -48 -35.5 -96t-101.5 -93.5t-142 -84.5t-174 -80q-11 -47 -23.5 -91.5t-37.5 -107.5t-54.5 -116.5t-74.5 -109t-97.5 -94t-123.5 -63t-152 -24.5t-152 17.5t-129 52.5t-92 94.5t-34 136.5 q0 27 13.5 53.5t44.5 52.5t61.5 47.5t86 48t95 44.5t111.5 45t112 41.5t119 42.5l14 4q0 59 10 127q-131 -72 -280 -72q-145 0 -222 90t-77 252q0 67 26 162t56.5 175.5t56.5 174.5t26 160q0 137 -83 137q-38 0 -100 -51t-103 -51q-33 0 -33 57zM274 -285q0 -50 61 -84 t136 -34q123 0 207 313q-51 -18 -112 -38.5t-94.5 -32t-72 -25.5t-57.5 -23.5t-37 -22t-24.5 -25t-6.5 -28.5zM457 1817q0 91 56 162t126 71q76 0 145 -145q-32 -78 -99 -124t-146 -46q-82 0 -82 82zM866 1831q0 91 43 146t113 55q104 0 160 -68q-88 -229 -213 -229 q-44 0 -73.5 29t-29.5 67z" />
<glyph unicode="&#x2c6;" horiz-adv-x="1024" d="M78 1198q0 24 26 47q47 40 97.5 93t77 84t88.5 104q27 32 77.5 55t98.5 23q33 0 57 -15q72 -50 122 -104t109 -132.5t103 -127.5q12 -12 12 -25q0 -36 -65.5 -69t-130.5 -33q-46 0 -68 22q-48 52 -109.5 133t-91.5 115q-93 -104 -162 -162q-59 -53 -155 -53q-86 0 -86 45 z" />
<glyph unicode="&#x2dc;" horiz-adv-x="1024" d="M0 1280q-2 28 37 78q81 99 174 145.5t172 46.5q46 0 91 -23t81 -56t70.5 -65.5t72 -55.5t72.5 -23q15 0 33 13t34.5 28t48 28t70.5 13q68 0 68 -37q0 -12 -6 -16q-97 -201 -309 -201q-47 0 -91.5 21.5t-80.5 51.5t-70.5 60.5t-75 52t-80.5 21.5q-36 0 -75 -68 q-18 -29 -80 -44t-115 -15q-21 0 -31 14t-10 31z" />
<glyph unicode="&#x2000;" horiz-adv-x="1057" />
<glyph unicode="&#x2001;" horiz-adv-x="2114" />
<glyph unicode="&#x2002;" horiz-adv-x="1057" />
<glyph unicode="&#x2003;" horiz-adv-x="2114" />
<glyph unicode="&#x2004;" horiz-adv-x="704" />
<glyph unicode="&#x2005;" horiz-adv-x="528" />
<glyph unicode="&#x2006;" horiz-adv-x="352" />
<glyph unicode="&#x2007;" horiz-adv-x="352" />
<glyph unicode="&#x2008;" horiz-adv-x="264" />
<glyph unicode="&#x2009;" horiz-adv-x="422" />
<glyph unicode="&#x200a;" horiz-adv-x="117" />
<glyph unicode="&#x2010;" horiz-adv-x="802" d="M94 573q0 166 281 166q67 0 187.5 -3t135.5 -3q25 0 25 -35t-52 -94t-85 -59q-13 0 -87 7t-96 7q-79 0 -177.5 -2t-119.5 -2q-12 0 -12 18z" />
<glyph unicode="&#x2011;" horiz-adv-x="802" d="M94 573q0 166 281 166q67 0 187.5 -3t135.5 -3q25 0 25 -35t-52 -94t-85 -59q-13 0 -87 7t-96 7q-79 0 -177.5 -2t-119.5 -2q-12 0 -12 18z" />
<glyph unicode="&#x2012;" horiz-adv-x="802" d="M94 573q0 166 281 166q67 0 187.5 -3t135.5 -3q25 0 25 -35t-52 -94t-85 -59q-13 0 -87 7t-96 7q-79 0 -177.5 -2t-119.5 -2q-12 0 -12 18z" />
<glyph unicode="&#x2013;" horiz-adv-x="901" d="M-31 575q0 55 43 106.5t97 51.5h882q25 0 25 -35q0 -34 -51.5 -87.5t-85.5 -53.5q-521 12 -611 12l-286 -12q-13 0 -13 18z" />
<glyph unicode="&#x2014;" horiz-adv-x="1417" d="M-31 575q0 55 43 106.5t97 51.5h1398q25 0 25 -35q0 -34 -51.5 -87.5t-85.5 -53.5q-762 12 -852 12l-561 -12q-13 0 -13 18z" />
<glyph unicode="&#x2018;" horiz-adv-x="708" d="M123 1151q0 95 53.5 198.5t145.5 175.5t190 72q35 0 64.5 -13t29.5 -42q0 -26 -21.5 -45.5t-49 -30.5t-57.5 -36t-42 -60q70 -46 70 -143q0 -94 -72.5 -154.5t-171.5 -60.5q-61 0 -100 33.5t-39 105.5z" />
<glyph unicode="&#x2019;" horiz-adv-x="708" d="M123 1067q0 26 21.5 45.5t49 30.5t57.5 36t42 60q-70 46 -70 143q0 94 72.5 154.5t171.5 60.5q61 0 100 -33.5t39 -105.5q0 -95 -53.5 -198.5t-145.5 -175.5t-190 -72q-35 0 -64.5 13t-29.5 42z" />
<glyph unicode="&#x201a;" horiz-adv-x="749" d="M164 -193q0 26 21.5 45.5t49 31t57.5 36.5t42 60q-70 46 -70 143q0 94 72.5 154.5t171.5 60.5q61 0 100 -33.5t39 -105.5q0 -95 -53.5 -199t-145.5 -176t-190 -72q-35 0 -64.5 13t-29.5 42z" />
<glyph unicode="&#x201c;" horiz-adv-x="1120" d="M102 1171q0 64 30 136t78.5 131.5t118.5 99t142 39.5q35 0 64.5 -13t29.5 -42q0 -26 -21.5 -45.5t-49 -30.5t-57.5 -36t-42 -60q70 -46 70 -144q0 -69 -65 -121.5t-158 -52.5q-61 0 -100.5 33.5t-39.5 105.5zM514 1151q0 95 53.5 198.5t145.5 175.5t190 72q35 0 64.5 -13 t29.5 -42q0 -26 -21.5 -45.5t-49 -30.5t-57.5 -36t-42 -60q70 -46 70 -143q0 -94 -72.5 -154.5t-171.5 -60.5q-61 0 -100 33.5t-39 105.5z" />
<glyph unicode="&#x201d;" horiz-adv-x="1120" d="M123 1067q0 26 21.5 45.5t49 30.5t57.5 36t42 60q-70 46 -70 143q0 94 72.5 154.5t171.5 60.5q61 0 100 -33.5t39 -105.5q0 -95 -53.5 -198.5t-145.5 -175.5t-190 -72q-35 0 -64.5 13t-29.5 42zM555 1087q0 26 21.5 45.5t49 31t57.5 36.5t42 60q-70 46 -70 143 q0 69 65.5 121.5t158.5 52.5q61 0 100 -33.5t39 -105.5q0 -65 -30 -137t-78.5 -131.5t-118.5 -98.5t-142 -39q-35 0 -64.5 13t-29.5 42z" />
<glyph unicode="&#x201e;" horiz-adv-x="1161" d="M164 -193q0 26 21.5 45.5t49 31t57.5 36.5t42 60q-70 46 -70 143q0 94 72.5 154.5t171.5 60.5q61 0 100 -33.5t39 -105.5q0 -95 -53.5 -199t-145.5 -176t-190 -72q-35 0 -64.5 13t-29.5 42zM596 -172q0 26 21.5 45.5t49 30.5t57.5 36t42 60q-70 46 -70 143 q0 69 65.5 121.5t158.5 52.5q61 0 100 -33.5t39 -105.5q0 -65 -30 -136.5t-78.5 -131t-118.5 -98.5t-142 -39q-35 0 -64.5 13t-29.5 42z" />
<glyph unicode="&#x2022;" horiz-adv-x="933" d="M246 612q0 120 51.5 176t169.5 56q123 0 172 -55t49 -177q0 -121 -51.5 -175t-169.5 -54q-119 0 -170 54t-51 175z" />
<glyph unicode="&#x202f;" horiz-adv-x="422" />
<glyph unicode="&#x2039;" horiz-adv-x="1103" d="M205 457q0 13 31 49q61 81 137.5 158.5t167.5 148.5t192.5 114.5t192.5 43.5q55 0 55 -27q0 -18 -25 -35q-47 -32 -231.5 -193t-226.5 -216q16 -13 58 -47.5t66.5 -54.5t65.5 -54.5t67.5 -56.5t60.5 -50.5t55.5 -47.5t41.5 -37.5t29.5 -29t9.5 -13.5q0 -26 -72 -59.5 t-130 -33.5q-26 0 -48 13q-40 26 -78.5 54t-65 48t-72.5 60t-68.5 60.5t-89 80.5t-99.5 90q-24 21 -24 35z" />
<glyph unicode="&#x203a;" horiz-adv-x="1103" d="M205 43q0 19 24 35q48 32 232.5 193t226.5 216q-455 369 -455 392q0 26 72.5 59t130.5 33q25 0 47 -13q40 -26 78.5 -54t65 -48t72.5 -60t68.5 -60.5t89 -80.5t99.5 -90q25 -21 25 -35q0 -13 -31 -49q-61 -81 -137.5 -158.5t-167.5 -148.5t-192.5 -114.5t-192.5 -43.5 q-55 0 -55 27z" />
<glyph unicode="&#x205f;" horiz-adv-x="528" />
<glyph unicode="&#x20ac;" horiz-adv-x="1357" d="M0 555q0 55 42.5 106.5t96.5 51.5h115q3 21 16 78l-155 -9q-13 0 -13 19q0 55 43 106t97 51h80q50 124 122 228.5t164.5 186.5t210 128.5t246.5 46.5q167 0 260.5 -82t93.5 -235q0 -34 -11 -56t-26 -22q-30 0 -73 59q-93 134 -258 134q-71 0 -136 -31t-117.5 -86 t-94 -123t-72.5 -148h493q25 0 25 -34t-51.5 -88t-85.5 -54q-248 7 -432 11q-9 -43 -15 -80h457q25 0 25 -35q0 -34 -52 -87.5t-86 -53.5q-184 4 -352 8q9 -161 84 -246.5t215 -85.5q118 0 239.5 55.5t200.5 155.5q45 59 74 59q31 0 31 -77t-32.5 -145.5t-89 -118.5 t-130.5 -86t-158 -54t-170 -18q-276 0 -430.5 139.5t-154.5 386.5v37l-224 -10q-12 0 -12 18z" />
<glyph unicode="&#x25fc;" horiz-adv-x="1013" d="M0 0v1014h1014v-1014h-1014z" />
</font>
</defs>
</svg>
